
<svg id="Layer_1" 
data-name="Layer 1" 
xmlns="http://www.w3.org/2000/svg" 
viewBox="0 0 1001.89 365.89"><defs><style>.cls-1{fill:none;stroke:#000;stroke-linecap:round;stroke-linejoin:round;stroke-width:1.89px;}</style></defs><title>Hello_typeset</title><path class="cls-1" d="M1,353.9c34.46-1.51,40.54-10.54,40.54-30.63V48.14C41.49,28.56,35.41,19,1,17.51V11H160.6v6.52c-29.9,1.51-39,10.55-39,30.63v126H226.49v-126c0-20.08-9.12-29.12-38.52-30.63V11H347.12v6.52c-34.46,1.51-40.54,11-40.54,30.63V323.27c0,20.09,6.08,29.12,40.54,30.63v7H188v-7c29.4-1.51,38.52-10,38.52-30.63V184.7H121.58V323.27c0,20.59,9.12,29.12,39,30.63v7H1Z"/><path class="cls-1" d="M324.31,247c0-74.81,45.62-124.51,109-124.51,64.37,0,98.33,51.71,95.29,118.48H399.33v2.52c0,66.77,24.32,99.4,62.84,99.4,26.36,0,45.62-19.07,59.31-44.68l7.09,3.52C509.31,340.34,477.89,365,434.3,365,366.89,365,324.31,319.26,324.31,247Zm75-16.07h56.76c5.07-57.23-3-98.9-25.34-98.9C409,132,399.83,168.64,399.33,230.89Z"/><path class="cls-1" d="M520.33,354.9c23.83-1,28.39-5,28.39-19.07V36.09c0-16.07-3-25.1-29.4-25.1V5L621.2,1V335.83c0,14.05,4.56,18.07,28.89,19.07v6H520.33Z"/><path class="cls-1" d="M659.08,354.9c23.82-1,28.38-5,28.38-19.07V36.09c0-16.07-3-25.1-29.39-25.1V5L759.94,1V335.83c0,14.05,4.56,18.07,28.89,19.07v6H659.08Z"/><path class="cls-1" d="M778.44,244c0-75.82,46.63-121.5,111.51-121.5,65.89,0,111,44.68,111,120.49S954.32,365,890,365C823.55,365,778.44,319.76,778.44,244Zm146.48-.5c0-80.34-9.12-111.46-36.49-111.46-26.87,0-34,31.12-34,111.46s9.12,112,36.49,112C917.32,355.41,924.92,323.78,924.92,243.45Z"/></svg>