<svg id="Layer_1" data-name="Layer 1" xmlns="http://www.w3.org/2000/svg" viewBox="0 0 300 12"><title>GM_Sig_2020_Chez</title><path d="M3.58,9.48C1.31,9.48,0,7.77,0,5.05S1.36.61,3.65.61a3.6,3.6,0,0,1,2,.56L5.46,2.7A2.73,2.73,0,0,0,3.73,2C2.43,2,1.64,3.16,1.64,5s.8,3,2.09,3a3.2,3.2,0,0,0,1.85-.7l.21,1.43A3.89,3.89,0,0,1,3.58,9.48Z"/><path d="M6.94,9.34V.74h4.57V2.13h-3V4.18h2.26L11,5.58H8.53V8h3.11V9.34Z"/><path d="M14.83,9.45a5.33,5.33,0,0,1-2.42-.57l.24-1.47a4.35,4.35,0,0,0,2.16.68c.7,0,1.17-.36,1.17-1s-.29-.93-1.38-1.52c-1.39-.75-2-1.35-2-2.61A2.34,2.34,0,0,1,15.17.63a4.1,4.1,0,0,1,2,.49L17,2.57A3.34,3.34,0,0,0,15.21,2c-.71,0-1.06.37-1.06.87s.3.84,1.32,1.41c1.5.8,2.1,1.43,2.1,2.68A2.46,2.46,0,0,1,14.83,9.45Z"/><path d="M22.91,7.16H20.27l-.63,2.18H18L20.76.72h1.77l2.66,8.42-1.61.3ZM20.63,5.83h1.91l-1-3.29Z"/><path d="M28.29,6h-.53V9.34H26.15V.74h2.38c1.87,0,3,.91,3,2.57a2.37,2.37,0,0,1-1.63,2.35L32,9.14l-1.67.3Zm.13-3.95h-.66V4.77h.6c1,0,1.55-.49,1.55-1.37S29.42,2.05,28.42,2.05Z"/><path d="M32.85,9.34V.74h4.58V2.13h-3V4.18H36.7l.24,1.4H34.45V8h3.1V9.34Z"/><path d="M42.05,4H40.42L41.55.64l.81.19Zm2.24,0H42.66L43.79.64l.81.19Z"/><path d="M49,9.48c-2.27,0-3.58-1.71-3.58-4.43S46.81.61,49.1.61a3.6,3.6,0,0,1,2,.56L50.91,2.7A2.74,2.74,0,0,0,49.17,2c-1.29,0-2.08,1.13-2.08,3s.8,3,2.08,3A3.21,3.21,0,0,0,51,7.36l.21,1.43A3.89,3.89,0,0,1,49,9.48Z"/><path d="M57,9.34V5.61H54V9.34H52.39V.74H54V4.16h3V.74h1.62v8.6Z"/><path d="M60.09,9.34V.74h4.57V2.13h-3V4.18h2.26l.24,1.4h-2.5V8h3.11V9.34Z"/><path d="M65.57,9.34V8.13l3.78-6H65.93L65.72.74h5.53V2L67.49,8h3.64l.21,1.35Z"/><path d="M72.37.74H74L72.87,4.09l-.81-.18Zm2.25,0h1.62L75.11,4.09l-.82-.18Z"/><path d="M81.73,9.34H79.5V.74h2.27c1.89,0,2.82.86,2.82,2.2a1.91,1.91,0,0,1-1.2,1.83,2,2,0,0,1,1.5,2.09C84.89,8.53,83.65,9.34,81.73,9.34Zm0-7.35h-.66V4.28h.61c.92,0,1.39-.46,1.39-1.17S82.68,2,81.72,2Zm0,3.47h-.64V8.09h.68c1,0,1.58-.45,1.58-1.29S82.76,5.46,81.7,5.46Z"/><path d="M90.25,7.16H87.61L87,9.34h-1.6L88.1.72h1.77l2.66,8.42-1.61.3ZM88,5.83h1.91l-1-3.29Z"/><path d="M95.9,2.16V9.34H94.28V2.16H92.07V.74h5.87l.24,1.42Z"/><path d="M102.44,2.16V9.34h-1.62V2.16H98.61V.74h5.87l.24,1.42Z"/><path d="M105.7,9.34V.74h1.62v8.6Z"/><path d="M111,9.45a5.36,5.36,0,0,1-2.42-.57l.24-1.47a4.36,4.36,0,0,0,2.17.68c.69,0,1.17-.36,1.17-1s-.3-.93-1.39-1.52c-1.39-.75-2-1.35-2-2.61A2.34,2.34,0,0,1,111.31.63a4.16,4.16,0,0,1,2,.49l-.24,1.45A3.31,3.31,0,0,0,111.34,2c-.71,0-1,.37-1,.87s.29.84,1.32,1.41c1.49.8,2.09,1.43,2.09,2.68A2.46,2.46,0,0,1,111,9.45Z"/><path d="M118,2.16V9.34h-1.62V2.16h-2.2V.74h5.86l.24,1.42Z"/><path d="M124.61,7.16H122l-.63,2.18h-1.61L122.46.72h1.77l2.66,8.42-1.6.3Zm-2.28-1.33h1.91l-1-3.29Z"/><path d="M130.33,9.34V.74h1.15V8.27h2.74l.16,1.07Z"/><path d="M137.33,9.45c-1.5,0-2.51-1-2.51-3.14,0-1.83.93-3.1,2.36-3.1,1.61,0,2.26,1.38,2.26,3v.3h-3.55c.06,1.26.6,2,1.54,2a2.83,2.83,0,0,0,1.83-.74l.17,1A3.32,3.32,0,0,1,137.33,9.45Zm-1.4-3.76h2.43c-.09-1-.45-1.61-1.19-1.61S136.08,4.67,135.93,5.69Z"/><path d="M143.79,9.34l-.1-.72a2.39,2.39,0,0,1-1.81.84,1.55,1.55,0,0,1-1.58-1.69c0-1.4,1.11-2,3.29-2.32V5.18a.89.89,0,0,0-1-1,4.1,4.1,0,0,0-1.8.5l-.14-1a5,5,0,0,1,2.06-.49c1.35,0,2,.62,2,1.91V9.34Zm-.2-3c-1.75.22-2.23.77-2.23,1.42a.72.72,0,0,0,.76.81,2.23,2.23,0,0,0,1.47-.75Z"/><path d="M148.3,3.26a3.58,3.58,0,0,1,1.21.22v-3l1.08-.17v9h-.86l-.12-.76a2.22,2.22,0,0,1-1.69.88c-1.14,0-2.1-.93-2.1-3S147,3.26,148.3,3.26Zm-.2,5.22a2,2,0,0,0,1.41-.87V4.47a2.33,2.33,0,0,0-1.15-.28c-.82,0-1.46.73-1.46,2.25S147.43,8.48,148.1,8.48Z"/><path d="M158.74,6.76h-2.89l-.8,2.58h-1.17L156.72.71h1.17l2.79,8.47-1.11.25Zm-2.58-1h2.25l-1.13-3.65Z"/><path d="M165.08,9.34V5.05c0-.51-.23-.86-.77-.86a2.23,2.23,0,0,0-1.49.8V9.34h-1.08v-6h.86l.12.75a2.84,2.84,0,0,1,1.89-.87,1.43,1.43,0,0,1,1.55,1.59V9.34Z"/><path d="M168.28,2.21a.68.68,0,0,1-.68-.7.69.69,0,0,1,.69-.69.68.68,0,0,1,.68.69A.69.69,0,0,1,168.28,2.21Zm-.53,7.13v-6h1.08v6Z"/><path d="M176.89,9.34V5c0-.51-.21-.84-.72-.84a2.13,2.13,0,0,0-1.42.8V9.34h-1.09V5c0-.51-.21-.84-.72-.84a2.15,2.15,0,0,0-1.43.8V9.34h-1.09v-6h.86l.13.75a2.79,2.79,0,0,1,1.85-.87,1.33,1.33,0,0,1,1.37.86,2.73,2.73,0,0,1,1.84-.86A1.39,1.39,0,0,1,178,4.77V9.34Z"/><path d="M182.61,9.34l-.1-.72a2.39,2.39,0,0,1-1.81.84,1.55,1.55,0,0,1-1.58-1.69c0-1.4,1.11-2,3.29-2.32V5.18a.89.89,0,0,0-1-1,4,4,0,0,0-1.79.5l-.15-1a5,5,0,0,1,2.06-.49c1.35,0,2,.62,2,1.91V9.34Zm-.2-3c-1.74.22-2.23.77-2.23,1.42a.73.73,0,0,0,.76.81,2.23,2.23,0,0,0,1.47-.75Z"/><path d="M186.79,9.44c-.95,0-1.59-.38-1.59-1.56V4.26h-.83V3.33h.83V1.48l1.06-.16v2h1.18l.14.93h-1.32V7.74a.64.64,0,0,0,.72.73,2.34,2.34,0,0,0,.5-.05l.15.92A3.17,3.17,0,0,1,186.79,9.44Z"/><path d="M190.76,9.46c-1.47,0-2.47-1.16-2.47-3.12s1-3.13,2.49-3.13,2.49,1.16,2.49,3.13S192.25,9.46,190.76,9.46Zm0-5.33c-.93,0-1.41.94-1.41,2.21s.49,2.19,1.39,2.19,1.42-.92,1.42-2.19S191.69,4.13,190.78,4.13Z"/><path d="M195.53,5.51V9.34h-1.09v-6h.86l.17,1.08a2.2,2.2,0,0,1,1.77-1.2l.17,1.07A2.33,2.33,0,0,0,195.53,5.51Z"/><path d="M200.89,11.66V.49l.91-.13V11.52Z"/><path d="M205.61,5.94A5.13,5.13,0,0,1,209.72.66l.16,1a4,4,0,0,0-3.11,3,3.36,3.36,0,0,1,1.87-.57A2.27,2.27,0,0,1,211,6.69a2.61,2.61,0,0,1-2.63,2.81C206.62,9.5,205.61,8,205.61,5.94Zm4.27.81c0-1-.47-1.66-1.46-1.66a2.76,2.76,0,0,0-1.75.66v.09c0,1.8.72,2.69,1.69,2.69S209.88,7.88,209.88,6.75Z"/><path d="M214.79,9.5c-1.77,0-2.9-1.58-2.9-4.42S213,.67,214.79.67s2.9,1.57,2.9,4.41S216.56,9.5,214.79,9.5Zm0-7.86c-1.11,0-1.79,1.21-1.79,3.44s.68,3.45,1.79,3.45,1.79-1.21,1.79-3.45S215.9,1.64,214.79,1.64Z"/><path d="M222.29,7.4h-3.74V6.59L222,.82h1.3V6.49h1.21V7.4h-1.21V9.34h-1Zm0-5.27-2.62,4.36h2.62Z"/><path d="M228.12,9.18l3-7.33h-3.67l-.17-1h5v.91l-3.14,7.69Z"/><path d="M233,7.15a2.79,2.79,0,0,1,1.59-2.31,2.27,2.27,0,0,1-1.32-2A2.22,2.22,0,0,1,235.73.67a2.19,2.19,0,0,1,2.46,2.14,2.49,2.49,0,0,1-1.36,2.06,2.45,2.45,0,0,1,1.61,2.3,2.75,2.75,0,0,1-5.44,0Zm4.35,0c0-.89-.56-1.31-1.9-1.9a2.3,2.3,0,0,0-1.36,1.85,1.5,1.5,0,0,0,1.63,1.49A1.48,1.48,0,0,0,237.35,7.15ZM236,4.48a2.11,2.11,0,0,0,1.16-1.63,1.3,1.3,0,0,0-1.41-1.29,1.26,1.26,0,0,0-1.39,1.2C234.33,3.55,234.86,4,236,4.48Z"/><path d="M241.49,9.49a3.93,3.93,0,0,1-2.18-.61l.17-1.05a3.55,3.55,0,0,0,2,.67,1.66,1.66,0,0,0,1.76-1.78,1.44,1.44,0,0,0-1.53-1.59,2.83,2.83,0,0,0-1.3.32l-.79-.2L240,.83h4l.13,1h-3.2l-.2,2.54a3.13,3.13,0,0,1,1.2-.22,2.33,2.33,0,0,1,2.48,2.51A2.69,2.69,0,0,1,241.49,9.49Z"/><path d="M251.11,7.4h-3.74V6.59L250.81.82h1.29V6.49h1.21V7.4H252.1V9.34h-1Zm0-5.27-2.62,4.36h2.62Z"/><path d="M254,5.94A5.14,5.14,0,0,1,258.12.66l.16,1a4,4,0,0,0-3.11,3A3.39,3.39,0,0,1,257,4.13a2.27,2.27,0,0,1,2.34,2.56,2.61,2.61,0,0,1-2.63,2.81C255,9.5,254,8,254,5.94Zm4.27.81c0-1-.47-1.66-1.45-1.66a2.77,2.77,0,0,0-1.76.66v.09c0,1.8.72,2.69,1.69,2.69S258.28,7.88,258.28,6.75Z"/><path d="M263.9,7.4h-3.74V6.59L263.6.82h1.3V6.49h1.21V7.4H264.9V9.34h-1Zm0-5.27-2.61,4.36h2.61Z"/><path d="M266.81,7.15a2.78,2.78,0,0,1,1.58-2.31,2.27,2.27,0,0,1-1.32-2A2.22,2.22,0,0,1,269.53.67,2.19,2.19,0,0,1,272,2.81a2.49,2.49,0,0,1-1.36,2.06,2.45,2.45,0,0,1,1.61,2.3,2.75,2.75,0,0,1-5.43,0Zm4.34,0c0-.89-.56-1.31-1.9-1.9a2.3,2.3,0,0,0-1.36,1.85,1.5,1.5,0,0,0,1.63,1.49A1.48,1.48,0,0,0,271.15,7.15Zm-1.38-2.67a2.11,2.11,0,0,0,1.16-1.63,1.3,1.3,0,0,0-1.41-1.29,1.26,1.26,0,0,0-1.39,1.2C268.13,3.55,268.66,4,269.77,4.48Z"/></svg>