<svg id="Layer_1" data-name="Layer 1" xmlns="http://www.w3.org/2000/svg" viewBox="0 0 300 12"><title>GM_Sig_2020_Tina</title><path d="M3.82,2.16V9.33H2.21V2.16H0V.74H5.87L6.1,2.16Z"/><path d="M7.09,9.33V.74H8.71V9.33Z"/><path d="M15.09,9.33,11.77,3.54l0,5.79h-1.5V.74h1.56L15,6.26V.74h1.49V9.33Z"/><path d="M22.31,7.15H19.67L19,9.33H17.43L20.16.71h1.77l2.66,8.42-1.6.3ZM20,5.82h1.91L21,2.53Z"/><path d="M31,9.49c-2.21,0-3.54-1.75-3.54-4.44S28.83.57,31,.57,34.56,2.33,34.56,5,33.21,9.49,31,9.49Zm0-7.56c-1.21,0-1.89,1.2-1.89,3.1s.7,3.11,1.89,3.11S32.9,6.94,32.9,5,32.21,1.93,31,1.93Z"/><path d="M38.77,9.48a2.82,2.82,0,0,1-3.06-3.15V.74h1.62V6.31c0,1.07.44,1.76,1.45,1.76s1.47-.64,1.47-1.74V.74h1.62V6.29A2.87,2.87,0,0,1,38.77,9.48Z"/><path d="M43.33,9.33V.74H47.9V2.12h-3V4.17h2.25l.24,1.4H44.93V8H48V9.33Z"/><path d="M49.16,9.33V.74h1.62V7.89h2.53l.23,1.44Z"/><path d="M54.52,9.33V.74h1.62V7.89h2.53l.22,1.44Z"/><path d="M59.88,9.33V.74h4.57V2.12h-3V4.17h2.26L64,5.57H61.47V8h3.1V9.33Z"/><path d="M69,2.16V9.33H67.4V2.16H65.2V.74h5.86l.24,1.42Z"/><path d="M75.56,2.16V9.33H73.94V2.16h-2.2V.74h5.87l.23,1.42Z"/><path d="M78.78,9.33V.74h4.57V2.12h-3V4.17h2.26l.23,1.4H80.37V8h3.1V9.33Z"/><path d="M90.18,9.48c-2.17,0-3.43-1.78-3.43-4.43S88.06.59,90.25.59a3.26,3.26,0,0,1,2,.63l-.17,1.17a2.91,2.91,0,0,0-1.89-.76C88.76,1.63,87.92,3,87.92,5s.85,3.39,2.28,3.39a3.24,3.24,0,0,0,2-.83l.17,1.12A3.71,3.71,0,0,1,90.18,9.48Z"/><path d="M93.74,9.33V.74H98v1H94.89V4.31h2.36l.18,1.05H94.89V8.27h3.19V9.33Z"/><path d="M102.25,9.49c-2.12,0-3.39-1.78-3.39-4.44S100.17.57,102.27.57s3.41,1.77,3.41,4.45S104.37,9.49,102.25,9.49Zm0-7.88C100.87,1.61,100,3,100,5s.86,3.42,2.23,3.42S104.5,7.12,104.5,5,103.64,1.61,102.26,1.61Z"/><path d="M113.76,8.19a2.93,2.93,0,0,1-2.42,1.29,2.26,2.26,0,0,1-2.51-2.32,3.07,3.07,0,0,1,1.77-2.65,2.76,2.76,0,0,1-.73-1.84,2.05,2.05,0,0,1,2.21-2.1,3.47,3.47,0,0,1,1.79.5l-.2,1.1a2.92,2.92,0,0,0-1.59-.6A1,1,0,0,0,111,2.64a2.46,2.46,0,0,0,.79,1.63l1.82,2.13a9.47,9.47,0,0,0,.54-2.08l1,.23a10.22,10.22,0,0,1-.81,2.7l1.61,1.88-1.11.29Zm-.66-.78-1.88-2.18A2.18,2.18,0,0,0,110,7.09a1.35,1.35,0,0,0,1.42,1.4A2,2,0,0,0,113.1,7.41Z"/><path d="M122.08,9.49c-2.11,0-3.39-1.78-3.39-4.44S120,.57,122.11.57s3.4,1.77,3.4,4.45S124.2,9.49,122.08,9.49Zm0-7.88c-1.4,0-2.23,1.34-2.23,3.42s.86,3.42,2.23,3.42,2.24-1.33,2.24-3.42S123.48,1.61,122.1,1.61Z"/><path d="M132.14,9.35h-1L130,4.79l-1.14,4.56H128l-1.67-5.94,1.06-.17,1.1,4.52,1.12-4.43h1l1.12,4.42,1-4.42h1Z"/><path d="M138.16,9.33V5.05c0-.51-.23-.86-.78-.86A2.19,2.19,0,0,0,135.9,5V9.33h-1.08v-6h.86l.12.75a2.78,2.78,0,0,1,1.88-.88,1.44,1.44,0,0,1,1.56,1.6V9.33Z"/><path d="M142.93,9.44c-1.51,0-2.52-1-2.52-3.13,0-1.84.94-3.11,2.37-3.11,1.6,0,2.25,1.39,2.25,3v.3h-3.55c.06,1.26.6,2,1.55,2a2.89,2.89,0,0,0,1.83-.75l.16,1A3.25,3.25,0,0,1,142.93,9.44Zm-1.41-3.76H144c-.09-1-.45-1.6-1.18-1.6S141.67,4.66,141.52,5.68Z"/><path d="M147.31,5.51V9.33h-1.08v-6h.86l.16,1.07A2.25,2.25,0,0,1,149,3.2l.17,1.07A2.34,2.34,0,0,0,147.31,5.51Z"/><path d="M152.67,11.65V.49l.91-.14V11.51Z"/><path d="M157.39,5.93A5.14,5.14,0,0,1,161.5.65l.17,1a4,4,0,0,0-3.12,3,3.31,3.31,0,0,1,1.87-.57,2.26,2.26,0,0,1,2.34,2.55,2.61,2.61,0,0,1-2.63,2.81C158.4,9.49,157.39,8,157.39,5.93Zm4.28.81c0-1-.48-1.66-1.46-1.66a2.77,2.77,0,0,0-1.76.66v.09c0,1.81.72,2.69,1.7,2.69S161.67,7.87,161.67,6.74Z"/><path d="M166.57,9.49c-1.77,0-2.9-1.58-2.9-4.42S164.8.66,166.57.66s2.91,1.57,2.91,4.41S168.34,9.49,166.57,9.49Zm0-7.86c-1.1,0-1.79,1.21-1.79,3.44s.69,3.45,1.79,3.45,1.8-1.21,1.8-3.45S167.68,1.63,166.57,1.63Z"/><path d="M174.07,7.39h-3.73V6.58L173.77.81h1.3V6.48h1.21v.91h-1.21V9.33h-1Zm0-5.27-2.61,4.36h2.61Z"/><path d="M182.78,7.39h-3.73V6.58L182.48.81h1.3V6.48H185v.91h-1.21V9.33h-1Zm0-5.27-2.61,4.36h2.61Z"/><path d="M186.89,9.33V2l-1.58.61-.13-.89L187,.81H188V9.33Z"/><path d="M189.51,7.14a2.79,2.79,0,0,1,1.58-2.3,2.3,2.3,0,0,1-1.32-2.06A2.23,2.23,0,0,1,192.24.66a2.2,2.2,0,0,1,2.45,2.14,2.46,2.46,0,0,1-1.35,2.06,2.47,2.47,0,0,1,1.6,2.3,2.75,2.75,0,0,1-5.43,0Zm4.35,0c0-.88-.56-1.31-1.91-1.89a2.3,2.3,0,0,0-1.36,1.84,1.52,1.52,0,0,0,1.64,1.5A1.48,1.48,0,0,0,193.86,7.14Zm-1.38-2.67a2.08,2.08,0,0,0,1.15-1.63,1.3,1.3,0,0,0-1.4-1.28,1.25,1.25,0,0,0-1.4,1.19C190.83,3.54,191.37,4,192.48,4.47Z"/><path d="M201.07,9.49c-1.77,0-2.9-1.58-2.9-4.42S199.3.66,201.07.66,204,2.23,204,5.07,202.84,9.49,201.07,9.49Zm0-7.86c-1.11,0-1.79,1.21-1.79,3.44s.68,3.45,1.79,3.45,1.8-1.21,1.8-3.45S202.18,1.63,201.07,1.63Z"/><path d="M205.4,9.17l3-7.32h-3.68l-.16-1h5v.91l-3.14,7.69Z"/><path d="M213.21,9.49c-1.77,0-2.91-1.58-2.91-4.42S211.44.66,213.21.66s2.9,1.57,2.9,4.41S215,9.49,213.21,9.49Zm0-7.86c-1.11,0-1.8,1.21-1.8,3.44s.69,3.45,1.8,3.45S215,7.31,215,5.07,214.32,1.63,213.21,1.63Z"/><path d="M220.06,9.49c-1.77,0-2.9-1.58-2.9-4.42s1.13-4.41,2.9-4.41S223,2.23,223,5.07,221.83,9.49,220.06,9.49Zm0-7.86c-1.11,0-1.79,1.21-1.79,3.44s.68,3.45,1.79,3.45,1.79-1.21,1.79-3.45S221.17,1.63,220.06,1.63Z"/></svg>