<svg id="Layer_1" data-name="Layer 1" xmlns="http://www.w3.org/2000/svg" viewBox="0 0 300 12"><title>GM_Sig_2020_Kevin</title><path d="M8.45,9.44,5.62,5.18V9.34H4V.74H5.62V4.49L8.17.74H10l-2.84,4,3,4.38Z"/><path d="M10.93,9.34V.74H15.5V2.13h-3V4.18h2.26L15,5.58H12.52V8h3.1V9.34Z"/><path d="M20.56,9.38H18.85L16.2.94,17.89.66l1.87,6.62L21.58.74h1.67Z"/><path d="M24.25,9.34V.74h1.62v8.6Z"/><path d="M32.24,9.34,28.93,3.55V9.34H27.45V.74H29l3.16,5.52,0-5.52h1.5v8.6Z"/><path d="M37.39,9.34V.74H39V7.89h2.53l.22,1.45Z"/><path d="M47.06,7.16H44.42l-.64,2.18H42.17L44.9.72h1.77l2.67,8.42-1.61.3ZM44.78,5.83h1.9l-1-3.29Z"/><path d="M55.09,9.34,51.78,3.55V9.34H50.3V.74h1.55L55,6.26,55,.74h1.5v8.6Z"/><path d="M61.38,9.5c-2.44,0-3.68-1.78-3.68-4.43S59,.59,61.5.59a4.21,4.21,0,0,1,2.23.59L63.5,2.69a3.29,3.29,0,0,0-2-.68c-1.46,0-2.21,1.15-2.21,3S60,8.11,61.47,8.11a2.07,2.07,0,0,0,1.07-.27v-2H61.17L61,4.54H64V8.72A4.9,4.9,0,0,1,61.38,9.5Z"/><path d="M67.63,9.34H65.42V.74h2.26c2.76,0,4.13,1.68,4.13,4.29S70.38,9.34,67.63,9.34ZM67.7,2.1H67V8h.64c1.55,0,2.48-.9,2.48-2.94S69.21,2.1,67.7,2.1Z"/><path d="M77,7.16H74.37l-.64,2.18H72.12L74.85.72h1.77l2.67,8.42-1.61.3ZM74.73,5.83h1.9l-.95-3.29Z"/><path d="M80.25,9.34V.74h1.62V7.89H84.4l.22,1.45Z"/><path d="M85.6,9.34V.74h4.58V2.13h-3V4.18h2.25l.24,1.4H87.2V8h3.1V9.34Z"/><path d="M93.91,9.34V.74h1.15V8.27H97.8L98,9.34Z"/><path d="M100.92,9.45c-1.51,0-2.52-1-2.52-3.14,0-1.83.93-3.1,2.37-3.1,1.6,0,2.25,1.38,2.25,3v.3H99.47c.06,1.26.6,2,1.55,2a2.87,2.87,0,0,0,1.83-.74l.16,1A3.31,3.31,0,0,1,100.92,9.45ZM99.51,5.69h2.43c-.09-1-.45-1.61-1.19-1.61S99.66,4.67,99.51,5.69Z"/><path d="M107.37,9.34l-.1-.72a2.39,2.39,0,0,1-1.81.84,1.55,1.55,0,0,1-1.58-1.69c0-1.4,1.11-2,3.29-2.32V5.18a.89.89,0,0,0-1-1,4,4,0,0,0-1.79.5l-.15-1a5,5,0,0,1,2.07-.49c1.34,0,1.95.62,1.95,1.91V9.34Zm-.2-3c-1.74.22-2.23.77-2.23,1.42a.73.73,0,0,0,.76.81,2.23,2.23,0,0,0,1.47-.75Z"/><path d="M111.88,3.26a3.58,3.58,0,0,1,1.21.22v-3l1.08-.17v9h-.86l-.12-.76a2.21,2.21,0,0,1-1.68.88c-1.15,0-2.11-.93-2.11-3S110.57,3.26,111.88,3.26Zm-.2,5.22a2,2,0,0,0,1.41-.87V4.47a2.3,2.3,0,0,0-1.15-.28c-.82,0-1.46.73-1.46,2.25S111,8.48,111.68,8.48Z"/><path d="M119.94,9.34h-1.89V.74h2c2.73,0,4.08,1.75,4.08,4.29S122.68,9.34,119.94,9.34Zm.14-7.56h-.89V8.29H120c1.79,0,2.87-1.06,2.87-3.25S121.81,1.78,120.08,1.78Z"/><path d="M127.57,9.45c-1.51,0-2.52-1-2.52-3.14,0-1.83.93-3.1,2.37-3.1,1.6,0,2.25,1.38,2.25,3v.3h-3.55c.06,1.26.6,2,1.55,2a2.87,2.87,0,0,0,1.83-.74l.16,1A3.31,3.31,0,0,1,127.57,9.45Zm-1.41-3.76h2.43c-.09-1-.45-1.61-1.19-1.61S126.31,4.67,126.16,5.69Z"/><path d="M132.39,9.46a3.89,3.89,0,0,1-1.91-.52l.16-1a3.27,3.27,0,0,0,1.82.62c.64,0,1-.29,1-.76s-.27-.71-1.2-1.06c-1.24-.47-1.69-.92-1.69-1.87s.73-1.63,1.95-1.63a3.78,3.78,0,0,1,1.68.39l-.18,1a3,3,0,0,0-1.54-.49c-.55,0-.89.27-.89.66s.24.6,1.06.93c1.31.52,1.84,1,1.84,2S133.73,9.46,132.39,9.46Z"/><path d="M136.25,2.21a.69.69,0,0,1-.69-.7.7.7,0,0,1,.7-.69.67.67,0,0,1,.67.69A.68.68,0,0,1,136.25,2.21Zm-.54,7.13v-6h1.09v6Z"/><path d="M140.29,11.61c-1.37,0-2.56-.5-2.56-1.56,0-.6.43-1.12,1.21-1.55a.73.73,0,0,1-.37-.63c0-.28.17-.51.53-.8a2,2,0,0,1-1-1.78,2.14,2.14,0,0,1,3.53-1.57l1.38-.5.18,1-1.06.1a2.25,2.25,0,0,1,.22,1,2,2,0,0,1-2.12,2.07,2.43,2.43,0,0,1-.38,0,.48.48,0,0,0-.23.33c0,.18.18.26,1,.42l.21,0c1.49.3,2.15.7,2.15,1.65C143,11,141.74,11.61,140.29,11.61ZM142,9.89c0-.41-.28-.64-1.31-.86L140.29,9l-.6-.13c-.61.32-.91.69-.91,1.1s.53.86,1.53.86S142,10.4,142,9.89ZM140.21,4c-.66,0-1.06.56-1.06,1.29a1.08,1.08,0,1,0,2.13,0A1.14,1.14,0,0,0,140.21,4Z"/><path d="M147.34,9.34V5.05c0-.51-.23-.86-.77-.86a2.21,2.21,0,0,0-1.49.8V9.34H144v-6h.86l.12.75a2.81,2.81,0,0,1,1.88-.87,1.43,1.43,0,0,1,1.56,1.59V9.34Z"/><path d="M152.11,9.45c-1.51,0-2.52-1-2.52-3.14,0-1.83.94-3.1,2.37-3.1,1.61,0,2.26,1.38,2.26,3v.3h-3.56c.07,1.26.6,2,1.55,2A2.85,2.85,0,0,0,154,7.76l.16,1A3.29,3.29,0,0,1,152.11,9.45ZM150.7,5.69h2.43c-.09-1-.45-1.61-1.18-1.61S150.85,4.67,150.7,5.69Z"/><path d="M156.49,5.51V9.34h-1.08v-6h.86l.16,1.08a2.23,2.23,0,0,1,1.77-1.2l.18,1.07A2.33,2.33,0,0,0,156.49,5.51Z"/><path d="M161.85,11.66V.49l.91-.13V11.52Z"/><path d="M166.57,5.94A5.14,5.14,0,0,1,170.69.66l.16,1a4,4,0,0,0-3.12,3,3.42,3.42,0,0,1,1.87-.57,2.27,2.27,0,0,1,2.34,2.56,2.61,2.61,0,0,1-2.63,2.81C167.58,9.5,166.57,8,166.57,5.94Zm4.28.81c0-1-.48-1.66-1.46-1.66a2.79,2.79,0,0,0-1.76.66v.09c0,1.8.73,2.69,1.7,2.69S170.85,7.88,170.85,6.75Z"/><path d="M175.76,9.5c-1.77,0-2.91-1.58-2.91-4.42S174,.67,175.76.67s2.9,1.57,2.9,4.41S177.53,9.5,175.76,9.5Zm0-7.86c-1.11,0-1.8,1.21-1.8,3.44s.69,3.45,1.8,3.45,1.79-1.21,1.79-3.45S176.87,1.64,175.76,1.64Z"/><path d="M183.26,7.4h-3.74V6.59L183,.82h1.29V6.49h1.21V7.4h-1.21V9.34h-1Zm0-5.27-2.62,4.36h2.62Z"/><path d="M188.35,7.15a2.8,2.8,0,0,1,1.58-2.31,2.27,2.27,0,0,1-1.32-2A2.23,2.23,0,0,1,191.08.67a2.19,2.19,0,0,1,2.45,2.14,2.48,2.48,0,0,1-1.35,2.06,2.44,2.44,0,0,1,1.6,2.3,2.75,2.75,0,0,1-5.43,0Zm4.35,0c0-.89-.56-1.31-1.91-1.9a2.29,2.29,0,0,0-1.35,1.85,1.5,1.5,0,0,0,1.63,1.49A1.48,1.48,0,0,0,192.7,7.15Zm-1.38-2.67a2.11,2.11,0,0,0,1.16-1.63,1.31,1.31,0,0,0-1.41-1.29,1.26,1.26,0,0,0-1.4,1.2C189.67,3.55,190.21,4,191.32,4.48Z"/><path d="M198.32,7.4h-3.74V6.59L198,.82h1.3V6.49h1.2V7.4h-1.2V9.34h-1Zm0-5.27L195.7,6.49h2.62Z"/><path d="M201.22,7.15a2.8,2.8,0,0,1,1.58-2.31,2.27,2.27,0,0,1-1.32-2A2.23,2.23,0,0,1,204,.67a2.19,2.19,0,0,1,2.45,2.14,2.48,2.48,0,0,1-1.35,2.06,2.44,2.44,0,0,1,1.6,2.3,2.75,2.75,0,0,1-5.43,0Zm4.35,0c0-.89-.56-1.31-1.91-1.9a2.29,2.29,0,0,0-1.35,1.85,1.5,1.5,0,0,0,1.63,1.49A1.48,1.48,0,0,0,205.57,7.15Zm-1.38-2.67a2.11,2.11,0,0,0,1.16-1.63,1.31,1.31,0,0,0-1.41-1.29,1.26,1.26,0,0,0-1.4,1.2C202.54,3.55,203.08,4,204.19,4.48Z"/><path d="M209.82,7.15a2.78,2.78,0,0,1,1.58-2.31,2.27,2.27,0,0,1-1.32-2A2.23,2.23,0,0,1,212.55.67,2.19,2.19,0,0,1,215,2.81a2.47,2.47,0,0,1-1.36,2.06,2.45,2.45,0,0,1,1.61,2.3,2.75,2.75,0,0,1-5.43,0Zm4.35,0c0-.89-.56-1.31-1.91-1.9A2.3,2.3,0,0,0,210.9,7.1a1.51,1.51,0,0,0,1.63,1.49A1.48,1.48,0,0,0,214.17,7.15Zm-1.39-2.67a2.09,2.09,0,0,0,1.16-1.63,1.3,1.3,0,0,0-1.41-1.29,1.26,1.26,0,0,0-1.39,1.2C211.14,3.55,211.68,4,212.78,4.48Z"/><path d="M216,8.88l.19-1.07a3.38,3.38,0,0,0,2,.67A1.45,1.45,0,0,0,219.85,7c0-1.07-.81-1.61-2.16-1.61h-.26l-.16-1h.46c1.25,0,2-.55,2-1.47a1.25,1.25,0,0,0-1.41-1.24,3.24,3.24,0,0,0-2,.69l-.16-1a3.57,3.57,0,0,1,2.18-.69,2.15,2.15,0,0,1,2.45,2.14,2.09,2.09,0,0,1-1.52,2.05A2.09,2.09,0,0,1,221,7a2.48,2.48,0,0,1-2.77,2.48A4.31,4.31,0,0,1,216,8.88Z"/><path d="M221.79,8.47l2.72-3.25a3.3,3.3,0,0,0,1-2.17,1.25,1.25,0,0,0-1.37-1.36,3.11,3.11,0,0,0-2,.91L222,1.51a3.57,3.57,0,0,1,2.26-.83A2.18,2.18,0,0,1,226.64,3a4.31,4.31,0,0,1-1.35,2.85l-2.13,2.47h3.45l.15,1h-5Z"/><path d="M229.83,9.49a3.93,3.93,0,0,1-2.18-.61l.17-1.05a3.55,3.55,0,0,0,2,.67,1.66,1.66,0,0,0,1.76-1.78,1.44,1.44,0,0,0-1.53-1.59,2.83,2.83,0,0,0-1.3.32l-.8-.2.33-4.42h4l.14,1h-3.2L229,4.38a3.13,3.13,0,0,1,1.2-.22,2.34,2.34,0,0,1,2.48,2.51A2.69,2.69,0,0,1,229.83,9.49Z"/></svg>