<svg id="Layer_1" data-name="Layer 1" xmlns="http://www.w3.org/2000/svg" viewBox="0 0 300 12"><title>GM_Sig_2020_Ben</title><path d="M2.23,9.34H0V.74H2.27c1.89,0,2.83.86,2.83,2.2A1.91,1.91,0,0,1,3.89,4.77a2,2,0,0,1,1.5,2.09C5.39,8.53,4.15,9.34,2.23,9.34ZM2.22,2H1.56V4.28h.61c.92,0,1.39-.46,1.39-1.17S3.18,2,2.22,2Zm0,3.47H1.56V8.09h.68c1,0,1.58-.45,1.58-1.29S3.26,5.46,2.21,5.46Z"/><path d="M6.52,9.34V.74h4.57V2.13h-3V4.18h2.26l.23,1.4H8.11V8h3.1V9.34Z"/><path d="M17.14,9.34,13.83,3.55V9.34H12.35V.74H13.9l3.16,5.52L17,.74h1.5v8.6Z"/><path d="M25.66,9.5C23.22,9.5,22,7.72,22,5.07S23.32.59,25.78.59A4.21,4.21,0,0,1,28,1.18l-.23,1.51a3.29,3.29,0,0,0-2-.68c-1.46,0-2.21,1.15-2.21,3s.67,3.07,2.13,3.07a2.07,2.07,0,0,0,1.07-.27v-2H25.45l-.2-1.3h3.06V8.72A4.9,4.9,0,0,1,25.66,9.5Z"/><path d="M34,7.16H31.33L30.7,9.34H29.09L31.82.72h1.77l2.66,8.42-1.6.3ZM31.7,5.83h1.9l-1-3.29Z"/><path d="M40,9.49a2.82,2.82,0,0,1-3.06-3.15V.74h1.61V6.31c0,1.07.45,1.77,1.46,1.77s1.47-.65,1.47-1.74V.74h1.62V6.3A2.87,2.87,0,0,1,40,9.49Z"/><path d="M51.58,9.34l-.36-6.42L49.41,9.36H47.92L46.1,2.92l-.35,6.42H44.32l.51-8.6h2.09l1.83,6.47L50.58.74h2.07l.51,8.6Z"/><path d="M57.71,9.5c-2.21,0-3.54-1.76-3.54-4.45S55.53.58,57.73.58,61.26,2.34,61.26,5,59.91,9.5,57.71,9.5Zm0-7.56c-1.21,0-1.89,1.19-1.89,3.1s.7,3.1,1.89,3.1S59.6,7,59.6,5,58.91,1.94,57.72,1.94Z"/><path d="M67.26,9.34,64,3.55V9.34H62.47V.74H64l3.15,5.52V.74h1.49v8.6Z"/><path d="M72.39,9.34H70.18V.74h2.26C75.2.74,76.57,2.42,76.57,5S75.14,9.34,72.39,9.34Zm.07-7.24H71.8V8h.64C74,8,74.91,7.08,74.91,5S74,2.1,72.46,2.1Z"/><path d="M83.14,1.79V9.34H82V1.79H79.7v-1h5.63l.17,1.05Z"/><path d="M87.52,9.45C86,9.45,85,8.4,85,6.31c0-1.83.93-3.1,2.36-3.1,1.61,0,2.26,1.38,2.26,3v.3H86.08c.06,1.26.6,2,1.54,2a2.83,2.83,0,0,0,1.83-.74l.17,1A3.32,3.32,0,0,1,87.52,9.45Zm-1.4-3.76h2.42c-.08-1-.44-1.61-1.18-1.61S86.26,4.67,86.12,5.69Z"/><path d="M93,9.45c-1.52,0-2.51-1.13-2.51-3.11s1-3.13,2.6-3.13a2.82,2.82,0,0,1,1.57.44L94.52,4.7a2.22,2.22,0,0,0-1.4-.53c-.92,0-1.51.78-1.51,2.15s.64,2.17,1.53,2.17a2.25,2.25,0,0,0,1.46-.55l.15,1A2.83,2.83,0,0,1,93,9.45Z"/><path d="M99.2,9.34V5.05c0-.51-.23-.86-.78-.86a2.21,2.21,0,0,0-1.48.8V9.34H95.86V.52L96.94.34V4a2.72,2.72,0,0,1,1.78-.78,1.43,1.43,0,0,1,1.56,1.59V9.34Z"/><path d="M105.11,9.34V5.05c0-.51-.22-.86-.77-.86a2.21,2.21,0,0,0-1.48.8V9.34h-1.08v-6h.86l.12.75a2.81,2.81,0,0,1,1.88-.87A1.43,1.43,0,0,1,106.2,4.8V9.34Z"/><path d="M108.32,2.21a.7.7,0,0,1,0-1.39.67.67,0,0,1,.67.69A.69.69,0,0,1,108.32,2.21Zm-.54,7.13v-6h1.09v6Z"/><path d="M112.66,9.45c-1.52,0-2.51-1.13-2.51-3.11s1-3.13,2.6-3.13a2.79,2.79,0,0,1,1.57.44l-.17,1.05a2.27,2.27,0,0,0-1.41-.53c-.92,0-1.51.78-1.51,2.15s.64,2.17,1.53,2.17a2.25,2.25,0,0,0,1.46-.55l.15,1A2.83,2.83,0,0,1,112.66,9.45Z"/><path d="M118.62,9.34l-.1-.72a2.39,2.39,0,0,1-1.81.84,1.55,1.55,0,0,1-1.58-1.69c0-1.4,1.11-2,3.29-2.32V5.18a.89.89,0,0,0-1-1,4,4,0,0,0-1.79.5l-.15-1a5,5,0,0,1,2.07-.49c1.34,0,1.95.62,1.95,1.91V9.34Zm-.2-3c-1.74.22-2.23.77-2.23,1.42a.73.73,0,0,0,.76.81,2.23,2.23,0,0,0,1.47-.75Z"/><path d="M121.05,9.34V.51l1.08-.17v9Z"/><path d="M130.22,9.34h-1.89V.74h1.95c2.73,0,4.08,1.75,4.08,4.29S133,9.34,130.22,9.34Zm.14-7.56h-.89V8.29h.85c1.79,0,2.86-1.06,2.86-3.25S132.09,1.78,130.36,1.78Z"/><path d="M136.27,2.21a.69.69,0,0,1-.68-.7.69.69,0,0,1,.7-.69.67.67,0,0,1,.67.69A.69.69,0,0,1,136.27,2.21Zm-.53,7.13v-6h1.08v6Z"/><path d="M139.49,5.51V9.34H138.4v-6h.86l.17,1.08a2.2,2.2,0,0,1,1.77-1.2l.17,1.07A2.33,2.33,0,0,0,139.49,5.51Z"/><path d="M144.28,9.45c-1.5,0-2.51-1-2.51-3.14,0-1.83.93-3.1,2.37-3.1,1.6,0,2.25,1.38,2.25,3v.3h-3.55c.06,1.26.6,2,1.54,2a2.88,2.88,0,0,0,1.84-.74l.16,1A3.32,3.32,0,0,1,144.28,9.45Zm-1.4-3.76h2.43c-.09-1-.45-1.61-1.19-1.61S143,4.67,142.88,5.69Z"/><path d="M149.8,9.45c-1.52,0-2.51-1.13-2.51-3.11s1-3.13,2.6-3.13a2.79,2.79,0,0,1,1.57.44l-.17,1.05a2.27,2.27,0,0,0-1.41-.53c-.92,0-1.51.78-1.51,2.15s.64,2.17,1.53,2.17a2.25,2.25,0,0,0,1.46-.55l.15,1A2.83,2.83,0,0,1,149.8,9.45Z"/><path d="M154.5,9.44c-1,0-1.59-.38-1.59-1.56V4.26h-.84V3.33h.84V1.48L154,1.32v2h1.18l.14.93H154V7.74c0,.45.18.73.72.73a2.34,2.34,0,0,0,.5-.05l.15.92A3.3,3.3,0,0,1,154.5,9.44Z"/><path d="M158.46,9.46C157,9.46,156,8.3,156,6.34s1-3.13,2.49-3.13S161,4.37,161,6.34,160,9.46,158.46,9.46Zm0-5.33c-.94,0-1.41.94-1.41,2.21s.49,2.19,1.38,2.19,1.42-.92,1.42-2.19S159.4,4.13,158.49,4.13Z"/><path d="M163.23,5.51V9.34h-1.08v-6H163l.16,1.08a2.23,2.23,0,0,1,1.77-1.2l.18,1.07A2.33,2.33,0,0,0,163.23,5.51Z"/><path d="M168.59,11.66V.49l.91-.13V11.52Z"/><path d="M173.31,5.94A5.14,5.14,0,0,1,177.43.66l.16,1a4,4,0,0,0-3.12,3,3.42,3.42,0,0,1,1.87-.57,2.27,2.27,0,0,1,2.34,2.56,2.61,2.61,0,0,1-2.63,2.81C174.32,9.5,173.31,8,173.31,5.94Zm4.28.81c0-1-.48-1.66-1.46-1.66a2.79,2.79,0,0,0-1.76.66v.09c0,1.8.73,2.69,1.7,2.69S177.59,7.88,177.59,6.75Z"/><path d="M182.5,9.5c-1.77,0-2.91-1.58-2.91-4.42S180.73.67,182.5.67s2.9,1.57,2.9,4.41S184.27,9.5,182.5,9.5Zm0-7.86c-1.11,0-1.8,1.21-1.8,3.44s.69,3.45,1.8,3.45,1.79-1.21,1.79-3.45S183.6,1.64,182.5,1.64Z"/><path d="M190,7.4h-3.74V6.59L189.7.82H191V6.49h1.21V7.4H191V9.34h-1Zm0-5.27-2.62,4.36H190Z"/><path d="M194.94,8.88l.19-1.07a3.38,3.38,0,0,0,2,.67A1.45,1.45,0,0,0,198.77,7c0-1.07-.81-1.61-2.16-1.61h-.26l-.16-1h.46c1.25,0,2-.55,2-1.47a1.25,1.25,0,0,0-1.41-1.24,3.24,3.24,0,0,0-2,.69l-.16-1a3.57,3.57,0,0,1,2.18-.69,2.15,2.15,0,0,1,2.45,2.14,2.09,2.09,0,0,1-1.52,2.05A2.09,2.09,0,0,1,199.88,7a2.49,2.49,0,0,1-2.77,2.48A4.31,4.31,0,0,1,194.94,8.88Z"/><path d="M202.93,9.49a3.93,3.93,0,0,1-2.18-.61l.17-1.05a3.55,3.55,0,0,0,2,.67,1.66,1.66,0,0,0,1.76-1.78,1.44,1.44,0,0,0-1.53-1.59,2.83,2.83,0,0,0-1.3.32l-.8-.2.33-4.42h4l.13,1h-3.2l-.2,2.54a3.13,3.13,0,0,1,1.2-.22,2.34,2.34,0,0,1,2.48,2.51A2.69,2.69,0,0,1,202.93,9.49Z"/><path d="M206.74,5.94A5.14,5.14,0,0,1,210.85.66l.16,1a4,4,0,0,0-3.11,3,3.39,3.39,0,0,1,1.87-.57,2.27,2.27,0,0,1,2.34,2.56,2.61,2.61,0,0,1-2.63,2.81C207.75,9.5,206.74,8,206.74,5.94Zm4.27.81c0-1-.47-1.66-1.45-1.66a2.77,2.77,0,0,0-1.76.66v.09c0,1.8.72,2.69,1.69,2.69S211,7.88,211,6.75Z"/><path d="M215.18,8.47l2.71-3.25a3.3,3.3,0,0,0,1-2.17,1.25,1.25,0,0,0-1.37-1.36,3.13,3.13,0,0,0-2,.91l-.16-1.09a3.58,3.58,0,0,1,2.27-.83A2.18,2.18,0,0,1,220,3a4.3,4.3,0,0,1-1.34,2.85l-2.13,2.47H220l.15,1h-5Z"/><path d="M221,5.94A5.13,5.13,0,0,1,225.12.66l.16,1a4,4,0,0,0-3.12,3A3.42,3.42,0,0,1,224,4.13a2.27,2.27,0,0,1,2.35,2.56,2.61,2.61,0,0,1-2.63,2.81C222,9.5,221,8,221,5.94Zm4.27.81c0-1-.47-1.66-1.46-1.66a2.74,2.74,0,0,0-1.75.66v.09c0,1.8.72,2.69,1.69,2.69S225.28,7.88,225.28,6.75Z"/><path d="M227.58,9.18l3-7.33H226.9l-.16-1h5v.91l-3.14,7.69Z"/><path d="M233.4,9.18l3-7.33h-3.67l-.16-1h5v.91l-3.14,7.69Z"/></svg>