<svg id="Layer_1" data-name="Layer 1" xmlns="http://www.w3.org/2000/svg" viewBox="0 0 300 12"><title>GM_Sig_2020_Brodie</title><path d="M3.58,9.48C1.31,9.48,0,7.77,0,5.05S1.36.61,3.65.61a3.6,3.6,0,0,1,2,.56L5.46,2.7A2.73,2.73,0,0,0,3.73,2C2.43,2,1.64,3.16,1.64,5s.8,3,2.09,3a3.2,3.2,0,0,0,1.85-.7l.21,1.43A3.89,3.89,0,0,1,3.58,9.48Z"/><path d="M11.51,9.34V5.61H8.56V9.34H6.94V.74H8.56V4.16h2.95V.74h1.62v8.6Z"/><path d="M16.78,6h-.53V9.34H14.64V.74H17c1.87,0,3,.91,3,2.57a2.36,2.36,0,0,1-1.64,2.35l2.13,3.48-1.66.3Zm.13-3.95h-.66V4.77h.59c1,0,1.56-.49,1.56-1.37S17.9,2.05,16.91,2.05Z"/><path d="M21.39,9.34V.74H23v8.6Z"/><path d="M26.65,9.45a5.36,5.36,0,0,1-2.42-.57l.24-1.47a4.36,4.36,0,0,0,2.17.68c.69,0,1.17-.36,1.17-1s-.3-.93-1.38-1.52c-1.4-.75-2-1.35-2-2.61A2.34,2.34,0,0,1,27,.63a4.16,4.16,0,0,1,2,.49l-.24,1.45A3.28,3.28,0,0,0,27,2c-.71,0-1.06.37-1.06.87s.3.84,1.32,1.41c1.49.8,2.09,1.43,2.09,2.68A2.46,2.46,0,0,1,26.65,9.45Z"/><path d="M35,9.34H32.77V.74H35c1.9,0,2.83.86,2.83,2.2a1.9,1.9,0,0,1-1.21,1.83,2,2,0,0,1,1.51,2.09C38.16,8.53,36.92,9.34,35,9.34ZM35,2h-.66V4.28h.61c.93,0,1.4-.46,1.4-1.17S35.94,2,35,2Zm0,3.47h-.65V8.09H35c1,0,1.58-.45,1.58-1.29S36,5.46,35,5.46Z"/><path d="M41.43,6h-.54V9.34H39.28V.74h2.38c1.87,0,3,.91,3,2.57A2.37,2.37,0,0,1,43,5.66l2.13,3.48-1.67.3Zm.12-3.95h-.66V4.77h.6c1,0,1.56-.49,1.56-1.37S42.55,2.05,41.55,2.05Z"/><path d="M49.1,9.5c-2.2,0-3.54-1.76-3.54-4.45S46.92.58,49.13.58,52.65,2.34,52.65,5,51.31,9.5,49.1,9.5Zm0-7.56c-1.21,0-1.89,1.19-1.89,3.1s.7,3.1,1.89,3.1S51,7,51,5,50.3,1.94,49.11,1.94Z"/><path d="M56.06,9.34h-2.2V.74h2.25c2.77,0,4.14,1.68,4.14,4.29S58.82,9.34,56.06,9.34Zm.08-7.24h-.66V8h.63c1.56,0,2.48-.9,2.48-2.94S57.65,2.1,56.14,2.1Z"/><path d="M61.52,9.34V.74h1.62v8.6Z"/><path d="M64.72,9.34V.74H69.3V2.13h-3V4.18h2.25l.24,1.4H66.32V8h3.1V9.34Z"/><path d="M74.79,9.44a4.39,4.39,0,0,1-2.13-.54l.17-1.14a3.76,3.76,0,0,0,2,.64c.83,0,1.42-.44,1.42-1.23S75.87,6,74.78,5.39c-1.37-.8-2-1.36-2-2.55A2.19,2.19,0,0,1,75.23.64,3.43,3.43,0,0,1,77,1.09L76.8,2.24a2.73,2.73,0,0,0-1.61-.58,1.1,1.1,0,0,0-1.26,1.1c0,.7.36,1,1.46,1.66,1.43.86,2,1.46,2,2.65A2.35,2.35,0,0,1,74.79,9.44Z"/><path d="M80.8,9.45c-1.51,0-2.52-1-2.52-3.14,0-1.83.93-3.1,2.37-3.1,1.6,0,2.25,1.38,2.25,3v.3H79.35c.06,1.26.6,2,1.54,2a2.88,2.88,0,0,0,1.84-.74l.16,1A3.31,3.31,0,0,1,80.8,9.45ZM79.39,5.69h2.43c-.09-1-.45-1.61-1.19-1.61S79.54,4.67,79.39,5.69Z"/><path d="M87.45,9.34V5.05c0-.51-.23-.86-.77-.86a2.21,2.21,0,0,0-1.49.8V9.34H84.11v-6H85l.12.75A2.81,2.81,0,0,1,87,3.21,1.43,1.43,0,0,1,88.53,4.8V9.34Z"/><path d="M90.65,2.21a.69.69,0,0,1-.69-.7.7.7,0,0,1,.7-.69.68.68,0,0,1,.68.69A.69.69,0,0,1,90.65,2.21Zm-.54,7.13v-6H91.2v6Z"/><path d="M94.94,9.46c-1.47,0-2.47-1.16-2.47-3.12s1-3.13,2.49-3.13,2.49,1.16,2.49,3.13S96.43,9.46,94.94,9.46Zm0-5.33c-.93,0-1.41.94-1.41,2.21S94,8.53,94.94,8.53s1.42-.92,1.42-2.19S95.87,4.13,95,4.13Z"/><path d="M99.71,5.51V9.34H98.62v-6h.86l.17,1.08a2.19,2.19,0,0,1,1.76-1.2l.18,1.07A2.33,2.33,0,0,0,99.71,5.51Z"/><path d="M104.88.74h1.93c1.78,0,2.84.91,2.84,2.58S108.47,6,106.67,6H106V9.34h-1.14Zm1.87,1H106V5h.66c1.19,0,1.82-.53,1.82-1.64S107.93,1.76,106.75,1.76Z"/><path d="M111.71,5.51V9.34h-1.09v-6h.86l.16,1.08a2.23,2.23,0,0,1,1.77-1.2l.18,1.07A2.3,2.3,0,0,0,111.71,5.51Z"/><path d="M116.45,9.46C115,9.46,114,8.3,114,6.34s1-3.13,2.49-3.13S119,4.37,119,6.34,118,9.46,116.45,9.46Zm0-5.33c-.94,0-1.41.94-1.41,2.21s.49,2.19,1.38,2.19,1.42-.92,1.42-2.19S117.39,4.13,116.48,4.13Z"/><path d="M122.32,3.26a3.58,3.58,0,0,1,1.21.22v-3l1.08-.17v9h-.86l-.12-.76a2.21,2.21,0,0,1-1.68.88c-1.15,0-2.11-.93-2.11-3S121,3.26,122.32,3.26Zm-.2,5.22a2,2,0,0,0,1.41-.87V4.47a2.3,2.3,0,0,0-1.15-.28c-.82,0-1.45.73-1.45,2.25S121.45,8.48,122.12,8.48Z"/><path d="M127.19,3.33V7.62c0,.5.23.86.79.86a2.22,2.22,0,0,0,1.47-.81V3.33h1.08v6h-.86l-.12-.76a2.76,2.76,0,0,1-1.87.88,1.44,1.44,0,0,1-1.57-1.59V3.33Z"/><path d="M134.26,9.45c-1.52,0-2.52-1.13-2.52-3.11s1-3.13,2.6-3.13a2.79,2.79,0,0,1,1.57.44l-.17,1.05a2.27,2.27,0,0,0-1.41-.53c-.92,0-1.51.78-1.51,2.15s.64,2.17,1.54,2.17a2.24,2.24,0,0,0,1.45-.55l.15,1A2.8,2.8,0,0,1,134.26,9.45Z"/><path d="M139.12,9.45c-1.51,0-2.52-1-2.52-3.14,0-1.83.93-3.1,2.37-3.1,1.6,0,2.25,1.38,2.25,3v.3h-3.55c.06,1.26.6,2,1.54,2a2.88,2.88,0,0,0,1.84-.74l.16,1A3.31,3.31,0,0,1,139.12,9.45Zm-1.41-3.76h2.43c-.09-1-.45-1.61-1.19-1.61S137.86,4.67,137.71,5.69Z"/><path d="M143.5,5.51V9.34h-1.08v-6h.86l.16,1.08a2.21,2.21,0,0,1,1.77-1.2l.17,1.07A2.33,2.33,0,0,0,143.5,5.51Z"/><path d="M148.86,11.66V.49l.91-.13V11.52Z"/><path d="M153.58,5.94A5.14,5.14,0,0,1,157.69.66l.16,1a4,4,0,0,0-3.11,3,3.36,3.36,0,0,1,1.87-.57A2.27,2.27,0,0,1,159,6.69a2.61,2.61,0,0,1-2.63,2.81C154.59,9.5,153.58,8,153.58,5.94Zm4.27.81c0-1-.47-1.66-1.45-1.66a2.77,2.77,0,0,0-1.76.66v.09c0,1.8.72,2.69,1.69,2.69S157.85,7.88,157.85,6.75Z"/><path d="M162.76,9.5c-1.77,0-2.9-1.58-2.9-4.42S161,.67,162.76.67s2.9,1.57,2.9,4.41S164.53,9.5,162.76,9.5Zm0-7.86c-1.11,0-1.79,1.21-1.79,3.44s.68,3.45,1.79,3.45,1.8-1.21,1.8-3.45S163.87,1.64,162.76,1.64Z"/><path d="M170.26,7.4h-3.74V6.59L170,.82h1.3V6.49h1.21V7.4h-1.21V9.34h-1Zm0-5.27-2.61,4.36h2.61Z"/><path d="M176.09,9.18l3-7.33h-3.67l-.16-1h5v.91l-3.14,7.69Z"/><path d="M180.75,5.94A5.14,5.14,0,0,1,184.86.66l.17,1a4,4,0,0,0-3.12,3,3.39,3.39,0,0,1,1.87-.57,2.27,2.27,0,0,1,2.34,2.56,2.61,2.61,0,0,1-2.63,2.81C181.76,9.5,180.75,8,180.75,5.94Zm4.28.81c0-1-.48-1.66-1.46-1.66a2.77,2.77,0,0,0-1.76.66v.09c0,1.8.72,2.69,1.7,2.69S185,7.88,185,6.75Z"/><path d="M186.78,8.88,187,7.81a3.38,3.38,0,0,0,2,.67A1.45,1.45,0,0,0,190.61,7c0-1.07-.81-1.61-2.16-1.61h-.26l-.16-1h.46c1.25,0,2-.55,2-1.47A1.25,1.25,0,0,0,189,1.68a3.24,3.24,0,0,0-2,.69l-.16-1A3.57,3.57,0,0,1,189.1.68a2.15,2.15,0,0,1,2.45,2.14A2.09,2.09,0,0,1,190,4.87,2.09,2.09,0,0,1,191.72,7,2.49,2.49,0,0,1,189,9.49,4.31,4.31,0,0,1,186.78,8.88Z"/><path d="M195.62,9.18l3-7.33h-3.68l-.16-1h5v.91l-3.14,7.69Z"/><path d="M201.43,9.18l3-7.33h-3.67l-.16-1h5v.91l-3.14,7.69Z"/><path d="M209.22,7.4h-3.74V6.59L208.92.82h1.3V6.49h1.21V7.4h-1.21V9.34h-1Zm0-5.27L206.6,6.49h2.62Z"/><path d="M214.2,9.49A4,4,0,0,1,212,8.88l.18-1.05a3.55,3.55,0,0,0,2,.67A1.66,1.66,0,0,0,216,6.72a1.44,1.44,0,0,0-1.54-1.59,2.78,2.78,0,0,0-1.29.32l-.8-.2.32-4.42h4l.14,1h-3.2l-.2,2.54a3.11,3.11,0,0,1,1.19-.22,2.33,2.33,0,0,1,2.48,2.51A2.69,2.69,0,0,1,214.2,9.49Z"/></svg>