<svg id="Layer_1" data-name="Layer 1" xmlns="http://www.w3.org/2000/svg" viewBox="0 0 300 12"><title>GM_Sig_2020_Rachel</title><path d="M2.14,6H1.61V9.33H0V.74H2.38c1.87,0,3,.91,3,2.56A2.38,2.38,0,0,1,3.73,5.66L5.86,9.13l-1.67.3ZM2.27,2H1.61V4.76h.6c1,0,1.55-.49,1.55-1.37S3.26,2,2.27,2Z"/><path d="M11,7.15H8.31L7.67,9.33H6.07L8.8.71h1.77l2.66,8.42-1.61.3ZM8.67,5.82h1.91l-1-3.29Z"/><path d="M17.19,9.47c-2.26,0-3.57-1.71-3.57-4.42S15,.6,17.27.6a3.6,3.6,0,0,1,2,.56l-.23,1.53A2.69,2.69,0,0,0,17.34,2c-1.29,0-2.08,1.13-2.08,3s.8,3,2.08,3a3.17,3.17,0,0,0,1.86-.7l.21,1.43A3.83,3.83,0,0,1,17.19,9.47Z"/><path d="M25.13,9.33V5.61H22.18V9.33H20.56V.74h1.62V4.15h2.95V.74h1.62V9.33Z"/><path d="M28.26,9.33V.74h4.57V2.12h-3V4.17h2.26l.23,1.4H29.85V8H33V9.33Z"/><path d="M34.09,9.33V.74h1.62V7.89h2.53l.22,1.44Z"/><path d="M43.73,9.44a5.36,5.36,0,0,1-2.42-.57l.24-1.47a4.4,4.4,0,0,0,2.17.69c.7,0,1.17-.36,1.17-1s-.3-.92-1.38-1.52c-1.4-.75-2-1.35-2-2.6A2.34,2.34,0,0,1,44.08.62a4.16,4.16,0,0,1,2,.49l-.24,1.46A3.21,3.21,0,0,0,44.12,2c-.71,0-1.06.38-1.06.87s.3.84,1.32,1.41c1.49.8,2.09,1.43,2.09,2.68A2.46,2.46,0,0,1,43.73,9.44Z"/><path d="M50.78,2.16V9.33H49.16V2.16H47V.74h5.87l.23,1.42Z"/><path d="M56.85,9.49c-2.21,0-3.54-1.75-3.54-4.44S54.67.57,56.87.57,60.4,2.33,60.4,5,59.05,9.49,56.85,9.49Zm0-7.56C55.65,1.93,55,3.13,55,5s.7,3.11,1.89,3.11S58.74,6.94,58.74,5,58.05,1.93,56.86,1.93Z"/><path d="M61.61,9.33V.74h1.62V7.89h2.53L66,9.33Z"/><path d="M69.2,9.33H67V.74h2.26c1.9,0,2.83.86,2.83,2.19a1.89,1.89,0,0,1-1.21,1.83,2,2,0,0,1,1.51,2.09C72.36,8.52,71.12,9.33,69.2,9.33Zm0-7.35h-.66V4.27h.61c.93,0,1.4-.46,1.4-1.17S70.14,2,69.18,2Zm0,3.48h-.65V8.09h.69c1,0,1.58-.45,1.58-1.3S70.23,5.46,69.17,5.46Z"/><path d="M73.48,9.33V.74h4.57V2.12h-3V4.17h2.25l.24,1.4H75.08V8h3.1V9.33Z"/><path d="M81.46,6h-.54V9.33H79.31V.74h2.38c1.87,0,3,.91,3,2.56A2.38,2.38,0,0,1,83,5.66l2.13,3.47-1.67.3ZM81.58,2h-.66V4.76h.6c1,0,1.56-.49,1.56-1.37S82.58,2,81.58,2Z"/><path d="M89.28,9.49c-2.44,0-3.69-1.78-3.69-4.43S86.94.59,89.39.59a4.21,4.21,0,0,1,2.23.58L91.4,2.68a3.36,3.36,0,0,0-2-.67c-1.46,0-2.2,1.14-2.2,3s.67,3.07,2.13,3.07a2.17,2.17,0,0,0,1.07-.26v-2H89.07l-.2-1.29h3V8.71A4.84,4.84,0,0,1,89.28,9.49Z"/><path d="M100.07,6.75H97.18l-.8,2.58H95.21L98.05.7h1.17L102,9.17l-1.11.25Zm-2.58-1h2.26L98.61,2.08Z"/><path d="M104.62,9.46a3.89,3.89,0,0,1-1.91-.53l.16-1a3.27,3.27,0,0,0,1.82.62c.64,0,1-.28,1-.76s-.27-.71-1.21-1.06c-1.23-.47-1.68-.92-1.68-1.86s.73-1.64,2-1.64a3.78,3.78,0,0,1,1.68.39l-.18,1a3.09,3.09,0,0,0-1.54-.48c-.55,0-.89.26-.89.66s.24.6,1.06.92c1.31.52,1.83,1,1.83,2S106,9.46,104.62,9.46Z"/><path d="M109.38,9.46a3.89,3.89,0,0,1-1.91-.53l.16-1a3.27,3.27,0,0,0,1.82.62c.64,0,1-.28,1-.76s-.27-.71-1.21-1.06c-1.23-.47-1.68-.92-1.68-1.86s.72-1.64,2-1.64a3.78,3.78,0,0,1,1.68.39l-.18,1a3.09,3.09,0,0,0-1.54-.48c-.55,0-.89.26-.89.66s.24.6,1.06.92c1.31.52,1.83,1,1.83,2S110.72,9.46,109.38,9.46Z"/><path d="M113.24,2.21a.7.7,0,0,1,0-1.4.67.67,0,0,1,.67.7A.69.69,0,0,1,113.24,2.21Zm-.54,7.12v-6h1.09v6Z"/><path d="M116.93,9.46A3.89,3.89,0,0,1,115,8.93l.16-1a3.27,3.27,0,0,0,1.82.62c.64,0,1-.28,1-.76s-.27-.71-1.21-1.06c-1.23-.47-1.68-.92-1.68-1.86s.72-1.64,2-1.64a3.78,3.78,0,0,1,1.68.39l-.18,1A3.09,3.09,0,0,0,117,4.14c-.55,0-.89.26-.89.66s.24.6,1.06.92c1.31.52,1.83,1,1.83,2S118.27,9.46,116.93,9.46Z"/><path d="M122,9.43c-1,0-1.6-.37-1.6-1.56V4.25h-.83V3.33h.83V1.47l1.06-.16v2h1.19l.13.92h-1.32V7.74c0,.45.19.72.73.72a1.72,1.72,0,0,0,.49-.05l.15.92A3.15,3.15,0,0,1,122,9.43Z"/><path d="M127.05,9.33,127,8.61a2.44,2.44,0,0,1-1.81.85,1.55,1.55,0,0,1-1.58-1.7c0-1.39,1.11-2,3.29-2.31V5.17a.89.89,0,0,0-1-1,4.24,4.24,0,0,0-1.8.5l-.15-1A5,5,0,0,1,126,3.22c1.35,0,2,.62,2,1.9V9.33Zm-.19-3c-1.75.23-2.23.78-2.23,1.42a.72.72,0,0,0,.76.81,2.23,2.23,0,0,0,1.47-.74Z"/><path d="M132.74,9.33V5.05c0-.51-.23-.86-.78-.86a2.19,2.19,0,0,0-1.48.79V9.33H129.4v-6h.86l.12.75a2.78,2.78,0,0,1,1.88-.88,1.44,1.44,0,0,1,1.56,1.6V9.33Z"/><path d="M137.2,9.43c-1,0-1.6-.37-1.6-1.56V4.25h-.83V3.33h.83V1.47l1.06-.16v2h1.18l.14.92h-1.32V7.74a.63.63,0,0,0,.72.72,1.83,1.83,0,0,0,.5-.05l.15.92A3.15,3.15,0,0,1,137.2,9.43Z"/><path d="M143.35,9.33h-1.89V.74h1.95c2.73,0,4.08,1.74,4.08,4.28S146.09,9.33,143.35,9.33Zm.14-7.56h-.89V8.29h.85c1.79,0,2.87-1.06,2.87-3.26S145.22,1.77,143.49,1.77Z"/><path d="M149.41,2.21a.7.7,0,0,1,0-1.4.68.68,0,0,1,.67.7A.69.69,0,0,1,149.41,2.21Zm-.54,7.12v-6H150v6Z"/><path d="M152.62,5.51V9.33h-1.08v-6h.86l.16,1.07a2.22,2.22,0,0,1,1.77-1.2l.17,1.07A2.34,2.34,0,0,0,152.62,5.51Z"/><path d="M157.42,9.44c-1.51,0-2.52-1-2.52-3.13,0-1.84.93-3.11,2.37-3.11,1.6,0,2.25,1.39,2.25,3v.3H156c.06,1.26.6,2,1.55,2a2.89,2.89,0,0,0,1.83-.75l.16,1A3.25,3.25,0,0,1,157.42,9.44ZM156,5.68h2.43c-.09-1-.45-1.6-1.19-1.6S156.16,4.66,156,5.68Z"/><path d="M162.94,9.44c-1.52,0-2.52-1.13-2.52-3.11S161.47,3.2,163,3.2a2.79,2.79,0,0,1,1.57.44l-.17,1.06A2.22,2.22,0,0,0,163,4.16c-.92,0-1.51.79-1.51,2.16s.64,2.17,1.54,2.17a2.24,2.24,0,0,0,1.45-.55l.15,1A2.73,2.73,0,0,1,162.94,9.44Z"/><path d="M167.63,9.43c-1,0-1.59-.37-1.59-1.56V4.25h-.84V3.33H166V1.47l1.06-.16v2h1.18l.14.92H167.1V7.74c0,.45.18.72.72.72a1.83,1.83,0,0,0,.5-.05l.15.92A3.3,3.3,0,0,1,167.63,9.43Z"/><path d="M171.59,9.46c-1.47,0-2.46-1.16-2.46-3.13s1-3.13,2.49-3.13,2.49,1.16,2.49,3.13S173.09,9.46,171.59,9.46Zm0-5.33c-.93,0-1.41.93-1.41,2.2s.49,2.19,1.38,2.19S173,7.6,173,6.33,172.53,4.13,171.62,4.13Z"/><path d="M176.37,5.51V9.33h-1.09v-6h.86l.16,1.07a2.25,2.25,0,0,1,1.77-1.2l.18,1.07A2.34,2.34,0,0,0,176.37,5.51Z"/><path d="M181.72,11.65V.49l.91-.14V11.51Z"/><path d="M186.45,5.93A5.13,5.13,0,0,1,190.56.65l.16,1a4,4,0,0,0-3.12,3,3.34,3.34,0,0,1,1.87-.57,2.27,2.27,0,0,1,2.35,2.55,2.61,2.61,0,0,1-2.63,2.81C187.45,9.49,186.45,8,186.45,5.93Zm4.27.81c0-1-.47-1.66-1.46-1.66a2.79,2.79,0,0,0-1.76.66v.09c0,1.81.73,2.69,1.7,2.69S190.72,7.87,190.72,6.74Z"/><path d="M195.63,9.49c-1.77,0-2.91-1.58-2.91-4.42S193.86.66,195.63.66s2.9,1.57,2.9,4.41S197.4,9.49,195.63,9.49Zm0-7.86c-1.11,0-1.8,1.21-1.8,3.44s.69,3.45,1.8,3.45,1.79-1.21,1.79-3.45S196.74,1.63,195.63,1.63Z"/><path d="M203.13,7.39h-3.74V6.58L202.83.81h1.29V6.48h1.21v.91h-1.21V9.33h-1Zm0-5.27-2.62,4.36h2.62Z"/><path d="M209.13,8.49a4,4,0,0,0,3.2-2.92,3.3,3.3,0,0,1-1.83.56c-1.44,0-2.34-1-2.34-2.63A2.62,2.62,0,0,1,210.78.66c1.74,0,2.74,1.48,2.74,3.56a5.14,5.14,0,0,1-4.23,5.29Zm3.34-4V4.32c0-1.8-.73-2.7-1.71-2.7s-1.51.65-1.51,1.82.47,1.73,1.45,1.73A2.75,2.75,0,0,0,212.47,4.5Z"/><path d="M214.19,8.46l2.72-3.25a3.28,3.28,0,0,0,1-2.17,1.25,1.25,0,0,0-1.37-1.36,3.11,3.11,0,0,0-2,.91l-.16-1.08a3.58,3.58,0,0,1,2.26-.84A2.18,2.18,0,0,1,219,3a4.31,4.31,0,0,1-1.35,2.86l-2.13,2.46H219l.15,1h-5Z"/><path d="M220.06,7.14a2.77,2.77,0,0,1,1.58-2.3,2.3,2.3,0,0,1-1.32-2.06A2.23,2.23,0,0,1,222.79.66a2.2,2.2,0,0,1,2.45,2.14,2.45,2.45,0,0,1-1.36,2.06,2.46,2.46,0,0,1,1.61,2.3,2.75,2.75,0,0,1-5.43,0Zm4.35,0c0-.88-.56-1.31-1.91-1.89a2.3,2.3,0,0,0-1.36,1.84,1.52,1.52,0,0,0,1.64,1.5A1.48,1.48,0,0,0,224.41,7.14ZM223,4.47a2.07,2.07,0,0,0,1.16-1.63,1.3,1.3,0,0,0-1.4-1.28,1.25,1.25,0,0,0-1.4,1.19C221.38,3.54,221.92,4,223,4.47Z"/><path d="M228.63,8.46l2.72-3.25a3.28,3.28,0,0,0,1-2.17A1.25,1.25,0,0,0,231,1.68a3.11,3.11,0,0,0-2,.91l-.16-1.08a3.58,3.58,0,0,1,2.26-.84A2.18,2.18,0,0,1,233.48,3a4.31,4.31,0,0,1-1.35,2.86L230,8.32h3.45l.15,1h-5Z"/><path d="M235.45,8.49a4,4,0,0,0,3.2-2.92,3.35,3.35,0,0,1-1.83.56c-1.45,0-2.35-1-2.35-2.63A2.62,2.62,0,0,1,237.09.66c1.74,0,2.74,1.48,2.74,3.56a5.14,5.14,0,0,1-4.22,5.29Zm3.33-4V4.32c0-1.8-.73-2.7-1.7-2.7s-1.52.65-1.52,1.82S236,5.17,237,5.17A2.72,2.72,0,0,0,238.78,4.5Z"/><path d="M240.85,5.93A5.14,5.14,0,0,1,245,.65l.17,1a4,4,0,0,0-3.12,3,3.34,3.34,0,0,1,1.87-.57,2.26,2.26,0,0,1,2.34,2.55,2.61,2.61,0,0,1-2.63,2.81C241.86,9.49,240.85,8,240.85,5.93Zm4.28.81c0-1-.48-1.66-1.46-1.66a2.79,2.79,0,0,0-1.76.66v.09c0,1.81.72,2.69,1.7,2.69S245.13,7.87,245.13,6.74Z"/><path d="M250,9.49c-1.77,0-2.91-1.58-2.91-4.42S248.27.66,250,.66s2.9,1.57,2.9,4.41S251.8,9.49,250,9.49Zm0-7.86c-1.11,0-1.8,1.21-1.8,3.44s.69,3.45,1.8,3.45,1.79-1.21,1.79-3.45S251.14,1.63,250,1.63Z"/></svg>