<svg id="Layer_1" data-name="Layer 1" xmlns="http://www.w3.org/2000/svg" viewBox="0 0 300 12"><title>GM_Sig_2020_Bruce</title><path d="M2.23,9.33H0V.74H2.27C4.16.74,5.1,1.6,5.1,2.93A1.9,1.9,0,0,1,3.89,4.76a2,2,0,0,1,1.5,2.09C5.39,8.52,4.15,9.33,2.23,9.33ZM2.22,2H1.56V4.27h.61c.92,0,1.39-.46,1.39-1.17S3.18,2,2.22,2Zm0,3.48H1.56V8.09h.68c1,0,1.58-.45,1.58-1.3S3.26,5.46,2.21,5.46Z"/><path d="M8.66,6H8.12V9.33H6.52V.74H8.9c1.86,0,3,.91,3,2.56a2.38,2.38,0,0,1-1.63,2.36l2.13,3.47-1.67.3ZM8.78,2H8.12V4.76h.6c1,0,1.56-.49,1.56-1.37S9.78,2,8.78,2Z"/><path d="M16.2,9.48a2.82,2.82,0,0,1-3.07-3.15V.74h1.62V6.31c0,1.07.45,1.76,1.46,1.76s1.47-.64,1.47-1.74V.74H19.3V6.29A2.87,2.87,0,0,1,16.2,9.48Z"/><path d="M24,9.47c-2.27,0-3.57-1.71-3.57-4.42S21.8.6,24.1.6a3.6,3.6,0,0,1,2,.56L25.9,2.69A2.69,2.69,0,0,0,24.17,2c-1.3,0-2.08,1.13-2.08,3s.8,3,2.08,3A3.19,3.19,0,0,0,26,7.35l.21,1.43A3.85,3.85,0,0,1,24,9.47Z"/><path d="M27.38,9.33V.74H32V2.12H29V4.17h2.25l.24,1.4H29V8h3.1V9.33Z"/><path d="M39.76,7.15H37.11l-.63,2.18H34.87L37.6.71h1.77L42,9.13l-1.61.3ZM37.48,5.82h1.9l-1-3.29Z"/><path d="M43,9.33V.74h1.61V7.89h2.53l.23,1.44Z"/><path d="M51.17,9.47c-2.27,0-3.58-1.71-3.58-4.42S49,.6,51.24.6a3.6,3.6,0,0,1,2,.56l-.22,1.53A2.73,2.73,0,0,0,51.32,2C50,2,49.24,3.15,49.24,5s.79,3,2.08,3a3.14,3.14,0,0,0,1.85-.7l.22,1.43A3.85,3.85,0,0,1,51.17,9.47Z"/><path d="M57.51,9.49C55.3,9.49,54,7.74,54,5.05S55.33.57,57.53.57,61.06,2.33,61.06,5,59.72,9.49,57.51,9.49Zm0-7.56c-1.21,0-1.89,1.2-1.89,3.1s.7,3.11,1.89,3.11S59.4,6.94,59.4,5,58.71,1.93,57.52,1.93Z"/><path d="M65.53,9.47C63.27,9.47,62,7.76,62,5.05S63.32.6,65.61.6a3.6,3.6,0,0,1,2,.56l-.23,1.53A2.69,2.69,0,0,0,65.68,2C64.39,2,63.6,3.15,63.6,5s.8,3,2.08,3a3.17,3.17,0,0,0,1.86-.7l.21,1.43A3.83,3.83,0,0,1,65.53,9.47Z"/><path d="M73.35,9.43,70.52,5.17V9.33H68.9V.74h1.62V4.49L73.07.74H74.9l-2.84,4,3,4.37Z"/><path d="M81.39,9.48C79.23,9.48,78,7.7,78,5.05S79.28.59,81.47.59a3.28,3.28,0,0,1,2,.63l-.17,1.17a2.94,2.94,0,0,0-1.9-.76C80,1.63,79.14,3,79.14,5S80,8.42,81.42,8.42a3.26,3.26,0,0,0,2-.83l.16,1.12A3.66,3.66,0,0,1,81.39,9.48Z"/><path d="M85.92,5.51V9.33H84.83v-6h.86l.16,1.07a2.25,2.25,0,0,1,1.77-1.2l.18,1.07A2.34,2.34,0,0,0,85.92,5.51Z"/><path d="M90.71,9.44c-1.5,0-2.51-1-2.51-3.13,0-1.84.93-3.11,2.36-3.11,1.61,0,2.26,1.39,2.26,3v.3H89.27c.06,1.26.6,2,1.54,2a2.84,2.84,0,0,0,1.83-.75l.17,1A3.26,3.26,0,0,1,90.71,9.44Zm-1.4-3.76h2.42c-.08-1-.44-1.6-1.18-1.6S89.45,4.66,89.31,5.68Z"/><path d="M97.17,9.33l-.1-.72a2.4,2.4,0,0,1-1.81.85,1.55,1.55,0,0,1-1.58-1.7c0-1.39,1.11-2,3.29-2.31V5.17a.89.89,0,0,0-1-1,4.24,4.24,0,0,0-1.8.5L94,3.7a5,5,0,0,1,2.07-.48c1.35,0,2,.62,2,1.9V9.33Zm-.2-3c-1.75.23-2.23.78-2.23,1.42a.72.72,0,0,0,.76.81A2.21,2.21,0,0,0,97,7.78Z"/><path d="M101.35,9.43c-1,0-1.59-.37-1.59-1.56V4.25h-.84V3.33h.84V1.47l1.06-.16v2H102l.14.92h-1.32V7.74c0,.45.18.72.72.72a1.83,1.83,0,0,0,.5-.05l.15.92A3.3,3.3,0,0,1,101.35,9.43Z"/><path d="M103.88,2.21a.7.7,0,0,1,0-1.4.68.68,0,0,1,.68.7A.69.69,0,0,1,103.88,2.21Zm-.53,7.12v-6h1.08v6Z"/><path d="M108.47,9.37h-1.11l-1.88-6,1.11-.17L107.93,8l1.3-4.71h1.12Z"/><path d="M113.4,9.44c-1.51,0-2.52-1-2.52-3.13,0-1.84.94-3.11,2.37-3.11,1.61,0,2.26,1.39,2.26,3v.3H112c.06,1.26.59,2,1.54,2a2.86,2.86,0,0,0,1.83-.75l.16,1A3.23,3.23,0,0,1,113.4,9.44ZM112,5.68h2.43c-.09-1-.45-1.6-1.18-1.6S112.14,4.66,112,5.68Z"/><path d="M121,9.33h-1.89V.74h2c2.73,0,4.08,1.74,4.08,4.28S123.7,9.33,121,9.33Zm.14-7.56h-.88V8.29h.84c1.8,0,2.87-1.06,2.87-3.26S122.83,1.77,121.1,1.77Z"/><path d="M127,2.21a.7.7,0,0,1,0-1.4.67.67,0,0,1,.67.7A.69.69,0,0,1,127,2.21Zm-.54,7.12v-6h1.09v6Z"/><path d="M130.23,5.51V9.33h-1.08v-6H130l.16,1.07a2.25,2.25,0,0,1,1.77-1.2l.17,1.07A2.34,2.34,0,0,0,130.23,5.51Z"/><path d="M135,9.44c-1.51,0-2.52-1-2.52-3.13,0-1.84.94-3.11,2.37-3.11,1.61,0,2.25,1.39,2.25,3v.3h-3.55c.07,1.26.6,2,1.55,2A2.89,2.89,0,0,0,137,7.75l.16,1A3.23,3.23,0,0,1,135,9.44Zm-1.41-3.76h2.43c-.09-1-.45-1.6-1.18-1.6S133.77,4.66,133.62,5.68Z"/><path d="M140.55,9.44C139,9.44,138,8.31,138,6.33s1.05-3.13,2.6-3.13a2.79,2.79,0,0,1,1.57.44L142,4.7a2.2,2.2,0,0,0-1.41-.54c-.92,0-1.51.79-1.51,2.16s.64,2.17,1.54,2.17a2.27,2.27,0,0,0,1.46-.55l.14,1A2.73,2.73,0,0,1,140.55,9.44Z"/><path d="M145.24,9.43c-1,0-1.59-.37-1.59-1.56V4.25h-.83V3.33h.83V1.47l1.06-.16v2h1.18l.14.92h-1.32V7.74a.63.63,0,0,0,.72.72,1.83,1.83,0,0,0,.5-.05l.15.92A3.17,3.17,0,0,1,145.24,9.43Z"/><path d="M149.21,9.46c-1.47,0-2.47-1.16-2.47-3.13s1-3.13,2.49-3.13,2.49,1.16,2.49,3.13S150.7,9.46,149.21,9.46Zm0-5.33c-.93,0-1.41.93-1.41,2.2s.49,2.19,1.39,2.19,1.42-.92,1.42-2.19S150.14,4.13,149.23,4.13Z"/><path d="M154,5.51V9.33h-1.09v-6h.86l.17,1.07a2.22,2.22,0,0,1,1.77-1.2l.17,1.07A2.34,2.34,0,0,0,154,5.51Z"/><path d="M163.6,8.19a2.93,2.93,0,0,1-2.42,1.29,2.26,2.26,0,0,1-2.52-2.32,3.09,3.09,0,0,1,1.77-2.65,2.8,2.8,0,0,1-.72-1.84,2,2,0,0,1,2.2-2.1,3.48,3.48,0,0,1,1.8.5l-.2,1.1a3,3,0,0,0-1.6-.6,1,1,0,0,0-1.08,1.07,2.48,2.48,0,0,0,.8,1.63l1.82,2.13A9.5,9.5,0,0,0,164,4.32l1,.23a10.61,10.61,0,0,1-.81,2.7l1.6,1.88-1.1.29Zm-.66-.78-1.89-2.18a2.19,2.19,0,0,0-1.27,1.86,1.35,1.35,0,0,0,1.42,1.4A2.06,2.06,0,0,0,162.94,7.41Z"/><path d="M171.92,9.49c-2.12,0-3.39-1.78-3.39-4.44S169.84.57,171.94.57s3.41,1.77,3.41,4.45S174,9.49,171.92,9.49Zm0-7.88C170.54,1.61,169.7,3,169.7,5s.86,3.42,2.23,3.42,2.24-1.33,2.24-3.42S173.31,1.61,171.93,1.61Z"/><path d="M182,9.35h-1l-1.14-4.56-1.15,4.56h-.92l-1.67-5.94,1.06-.17,1.1,4.52,1.12-4.43h1l1.12,4.42,1-4.42h1.06Z"/><path d="M188,9.33V5.05c0-.51-.22-.86-.77-.86a2.19,2.19,0,0,0-1.48.79V9.33h-1.09v-6h.86l.13.75a2.78,2.78,0,0,1,1.88-.88,1.43,1.43,0,0,1,1.55,1.6V9.33Z"/><path d="M192.76,9.44c-1.5,0-2.51-1-2.51-3.13,0-1.84.93-3.11,2.36-3.11,1.61,0,2.26,1.39,2.26,3v.3h-3.55c.06,1.26.6,2,1.54,2a2.84,2.84,0,0,0,1.83-.75l.17,1A3.28,3.28,0,0,1,192.76,9.44Zm-1.41-3.76h2.43c-.08-1-.44-1.6-1.18-1.6S191.5,4.66,191.35,5.68Z"/><path d="M197.15,5.51V9.33h-1.09v-6h.86l.17,1.07a2.22,2.22,0,0,1,1.76-1.2L199,4.27A2.34,2.34,0,0,0,197.15,5.51Z"/><path d="M202.51,11.65V.49l.9-.14V11.51Z"/><path d="M207.91,9.17l3-7.32h-3.67l-.16-1h5v.91l-3.14,7.69Z"/><path d="M213.73,9.17l3-7.32h-3.67l-.17-1h5v.91l-3.14,7.69Z"/><path d="M218.61,7.14a2.78,2.78,0,0,1,1.59-2.3,2.3,2.3,0,0,1-1.32-2.06A2.22,2.22,0,0,1,221.34.66,2.2,2.2,0,0,1,223.8,2.8a2.47,2.47,0,0,1-1.36,2.06,2.46,2.46,0,0,1,1.61,2.3,2.75,2.75,0,0,1-5.44,0Zm4.35,0c0-.88-.56-1.31-1.9-1.89a2.3,2.3,0,0,0-1.36,1.84,1.51,1.51,0,0,0,1.63,1.5A1.48,1.48,0,0,0,223,7.14Zm-1.38-2.67a2.1,2.1,0,0,0,1.16-1.63,1.3,1.3,0,0,0-1.41-1.28,1.25,1.25,0,0,0-1.39,1.19C219.94,3.54,220.47,4,221.58,4.47Z"/><path d="M227.26,5.93A5.14,5.14,0,0,1,231.37.65l.16,1a4,4,0,0,0-3.11,3,3.31,3.31,0,0,1,1.87-.57,2.26,2.26,0,0,1,2.34,2.55A2.61,2.61,0,0,1,230,9.49C228.27,9.49,227.26,8,227.26,5.93Zm4.27.81c0-1-.47-1.66-1.45-1.66a2.77,2.77,0,0,0-1.76.66v.09c0,1.81.72,2.69,1.69,2.69S231.53,7.87,231.53,6.74Z"/><path d="M233.48,7.14a2.77,2.77,0,0,1,1.58-2.3,2.3,2.3,0,0,1-1.32-2.06A2.23,2.23,0,0,1,236.21.66a2.2,2.2,0,0,1,2.45,2.14,2.45,2.45,0,0,1-1.36,2.06,2.46,2.46,0,0,1,1.61,2.3,2.75,2.75,0,0,1-5.43,0Zm4.35,0c0-.88-.56-1.31-1.91-1.89a2.3,2.3,0,0,0-1.36,1.84,1.51,1.51,0,0,0,1.63,1.5A1.48,1.48,0,0,0,237.83,7.14Zm-1.39-2.67a2.07,2.07,0,0,0,1.16-1.63,1.3,1.3,0,0,0-1.41-1.28,1.25,1.25,0,0,0-1.39,1.19C234.8,3.54,235.33,4,236.44,4.47Z"/><path d="M239.83,7.14a2.79,2.79,0,0,1,1.58-2.3,2.3,2.3,0,0,1-1.32-2.06A2.23,2.23,0,0,1,242.56.66,2.2,2.2,0,0,1,245,2.8a2.46,2.46,0,0,1-1.35,2.06,2.45,2.45,0,0,1,1.6,2.3,2.75,2.75,0,0,1-5.43,0Zm4.35,0c0-.88-.56-1.31-1.91-1.89a2.29,2.29,0,0,0-1.35,1.84,1.51,1.51,0,0,0,1.63,1.5A1.48,1.48,0,0,0,244.18,7.14ZM242.8,4.47A2.1,2.1,0,0,0,244,2.84a1.3,1.3,0,0,0-1.41-1.28,1.25,1.25,0,0,0-1.4,1.19C241.15,3.54,241.69,4,242.8,4.47Z"/><path d="M248.43,7.14A2.77,2.77,0,0,1,250,4.84a2.3,2.3,0,0,1-1.32-2.06A2.23,2.23,0,0,1,251.16.66a2.2,2.2,0,0,1,2.45,2.14,2.45,2.45,0,0,1-1.36,2.06,2.46,2.46,0,0,1,1.61,2.3,2.75,2.75,0,0,1-5.43,0Zm4.35,0c0-.88-.56-1.31-1.91-1.89a2.3,2.3,0,0,0-1.36,1.84,1.51,1.51,0,0,0,1.63,1.5A1.48,1.48,0,0,0,252.78,7.14Zm-1.39-2.67a2.07,2.07,0,0,0,1.16-1.63,1.3,1.3,0,0,0-1.41-1.28,1.25,1.25,0,0,0-1.39,1.19C249.75,3.54,250.29,4,251.39,4.47Z"/><path d="M258.4,7.39h-3.74V6.58L258.1.81h1.29V6.48h1.21v.91h-1.21V9.33h-1Zm0-5.27-2.62,4.36h2.62Z"/><path d="M261.3,7.14a2.77,2.77,0,0,1,1.58-2.3,2.3,2.3,0,0,1-1.32-2.06A2.23,2.23,0,0,1,264,.66a2.2,2.2,0,0,1,2.45,2.14,2.45,2.45,0,0,1-1.36,2.06,2.46,2.46,0,0,1,1.61,2.3,2.75,2.75,0,0,1-5.43,0Zm4.35,0c0-.88-.56-1.31-1.91-1.89a2.3,2.3,0,0,0-1.36,1.84A1.51,1.51,0,0,0,264,8.59,1.48,1.48,0,0,0,265.65,7.14Zm-1.39-2.67a2.07,2.07,0,0,0,1.16-1.63A1.3,1.3,0,0,0,264,1.56a1.25,1.25,0,0,0-1.39,1.19C262.62,3.54,263.16,4,264.26,4.47Z"/><path d="M268.18,9.17l3-7.32h-3.68l-.16-1h5v.91L269.2,9.42Z"/></svg>