<svg id="Layer_1" data-name="Layer 1" xmlns="http://www.w3.org/2000/svg" viewBox="0 0 300 12"><title>GM_Sig_2020_Rhonda</title><path d="M2.14,6H1.61V9.34H0V.74H2.38c1.87,0,3,.91,3,2.57A2.37,2.37,0,0,1,3.73,5.66L5.86,9.14l-1.67.3Zm.13-3.95H1.61V4.77h.6c1,0,1.55-.49,1.55-1.37S3.26,2.05,2.27,2.05Z"/><path d="M11.28,9.34V5.61h-3V9.34H6.7V.74H8.32V4.16h3V.74h1.61v8.6Z"/><path d="M17.63,9.5c-2.21,0-3.54-1.76-3.54-4.45S15.45.58,17.65.58,21.18,2.34,21.18,5,19.83,9.5,17.63,9.5Zm0-7.56c-1.21,0-1.89,1.19-1.89,3.1s.7,3.1,1.89,3.1S19.52,7,19.52,5,18.83,1.94,17.64,1.94Z"/><path d="M27.19,9.34,23.87,3.55V9.34H22.39V.74H24L27.1,6.26V.74h1.49v8.6Z"/><path d="M32.31,9.34H30.1V.74h2.26c2.76,0,4.13,1.68,4.13,4.29S35.06,9.34,32.31,9.34Zm.07-7.24h-.66V8h.64c1.55,0,2.47-.9,2.47-2.94S33.89,2.1,32.38,2.1Z"/><path d="M41.69,7.16H39.05l-.64,2.18H36.8L39.53.72H41.3L44,9.14l-1.61.3ZM39.41,5.83h1.9l-1-3.29Z"/><path d="M49.39,9.34H47.16V.74h2.26c1.9,0,2.83.86,2.83,2.2A1.9,1.9,0,0,1,51,4.77a2,2,0,0,1,1.51,2.09C52.55,8.53,51.31,9.34,49.39,9.34Zm0-7.35h-.66V4.28h.61c.93,0,1.4-.46,1.4-1.17S50.33,2,49.37,2Zm0,3.47h-.65V8.09h.69c1,0,1.58-.45,1.58-1.29S50.42,5.46,49.36,5.46Z"/><path d="M56.68,9.49a2.82,2.82,0,0,1-3.07-3.15V.74h1.62V6.31c0,1.07.45,1.77,1.46,1.77s1.47-.65,1.47-1.74V.74h1.62V6.3A2.87,2.87,0,0,1,56.68,9.49Z"/><path d="M64.5,9.48c-2.27,0-3.58-1.71-3.58-4.43S62.28.61,64.57.61a3.6,3.6,0,0,1,2,.56L66.38,2.7A2.73,2.73,0,0,0,64.65,2c-1.3,0-2.08,1.13-2.08,3s.8,3,2.08,3a3.26,3.26,0,0,0,1.86-.7l.21,1.43A3.93,3.93,0,0,1,64.5,9.48Z"/><path d="M72.31,9.44,69.48,5.18V9.34H67.86V.74h1.62V4.49L72,.74h1.83L71,4.75l3,4.38Z"/><path d="M74.79,9.34V.74h1.62V7.89h2.53l.22,1.45Z"/><path d="M80.15,9.34V.74h4.57V2.13h-3V4.18H84l.23,1.4H81.74V8h3.1V9.34Z"/><path d="M89.58,6.07V9.34H88V6.1L85.33.93,87,.66l1.8,3.82L90.53.74h1.73Z"/><path d="M95.56.74h1.93c1.78,0,2.84.91,2.84,2.58S99.15,6,97.35,6h-.64V9.34H95.56Zm1.87,1h-.72V5h.66c1.18,0,1.81-.53,1.81-1.64S98.61,1.76,97.43,1.76Z"/><path d="M102.39,5.51V9.34H101.3v-6h.86l.16,1.08a2.23,2.23,0,0,1,1.77-1.2l.18,1.07A2.33,2.33,0,0,0,102.39,5.51Z"/><path d="M107.13,9.46c-1.47,0-2.46-1.16-2.46-3.12s1-3.13,2.49-3.13,2.49,1.16,2.49,3.13S108.63,9.46,107.13,9.46Zm0-5.33c-.94,0-1.41.94-1.41,2.21s.49,2.19,1.38,2.19,1.42-.92,1.42-2.19S108.07,4.13,107.16,4.13Z"/><path d="M113,3.26a3.53,3.53,0,0,1,1.21.22v-3l1.08-.17v9h-.86l-.12-.76a2.18,2.18,0,0,1-1.68.88c-1.15,0-2.11-.93-2.11-3S111.69,3.26,113,3.26Zm-.2,5.22a2,2,0,0,0,1.41-.87V4.47a2.3,2.3,0,0,0-1.15-.28c-.82,0-1.45.73-1.45,2.25S112.13,8.48,112.8,8.48Z"/><path d="M117.87,3.33V7.62c0,.5.23.86.79.86a2.22,2.22,0,0,0,1.47-.81V3.33h1.08v6h-.86l-.12-.76a2.76,2.76,0,0,1-1.87.88,1.44,1.44,0,0,1-1.57-1.59V3.33Z"/><path d="M124.94,9.45c-1.52,0-2.52-1.13-2.52-3.11s1-3.13,2.6-3.13a2.79,2.79,0,0,1,1.57.44l-.17,1.05A2.25,2.25,0,0,0,125,4.17c-.92,0-1.51.78-1.51,2.15s.64,2.17,1.54,2.17a2.22,2.22,0,0,0,1.45-.55l.15,1A2.8,2.8,0,0,1,124.94,9.45Z"/><path d="M129.63,9.44c-1,0-1.59-.38-1.59-1.56V4.26h-.84V3.33H128V1.48l1.06-.16v2h1.18l.14.93H129.1V7.74a.64.64,0,0,0,.72.73,2.34,2.34,0,0,0,.5-.05l.15.92A3.24,3.24,0,0,1,129.63,9.44Z"/><path d="M132.16,2.21a.69.69,0,0,1-.68-.7.69.69,0,0,1,.7-.69.67.67,0,0,1,.67.69A.69.69,0,0,1,132.16,2.21Zm-.53,7.13v-6h1.08v6Z"/><path d="M136.45,9.46C135,9.46,134,8.3,134,6.34s1-3.13,2.49-3.13S139,4.37,139,6.34,137.94,9.46,136.45,9.46Zm0-5.33c-.93,0-1.4.94-1.4,2.21s.48,2.19,1.38,2.19,1.42-.92,1.42-2.19S137.38,4.13,136.47,4.13Z"/><path d="M143.49,9.34V5.05c0-.51-.23-.86-.77-.86a2.21,2.21,0,0,0-1.49.8V9.34h-1.08v-6H141l.12.75A2.81,2.81,0,0,1,143,3.21a1.43,1.43,0,0,1,1.56,1.59V9.34Z"/><path d="M151.51,9.49c-2.17,0-3.42-1.78-3.42-4.44s1.3-4.46,3.5-4.46a3.29,3.29,0,0,1,2,.64l-.17,1.17a2.94,2.94,0,0,0-1.9-.76c-1.47,0-2.3,1.33-2.3,3.4s.84,3.39,2.28,3.39a3.24,3.24,0,0,0,2-.84l.16,1.13A3.77,3.77,0,0,1,151.51,9.49Z"/><path d="M157,9.46c-1.47,0-2.47-1.16-2.47-3.12s1-3.13,2.5-3.13,2.49,1.16,2.49,3.13S158.48,9.46,157,9.46Zm0-5.33c-.94,0-1.41.94-1.41,2.21s.48,2.19,1.38,2.19,1.42-.92,1.42-2.19S157.92,4.13,157,4.13Z"/><path d="M162.82,9.46c-1.47,0-2.46-1.16-2.46-3.12s1-3.13,2.49-3.13,2.49,1.16,2.49,3.13S164.32,9.46,162.82,9.46Zm0-5.33c-.94,0-1.41.94-1.41,2.21s.49,2.19,1.38,2.19,1.42-.92,1.42-2.19S163.76,4.13,162.85,4.13Z"/><path d="M167.6,5.51V9.34h-1.09v-6h.86l.16,1.08a2.23,2.23,0,0,1,1.77-1.2l.18,1.07A2.33,2.33,0,0,0,167.6,5.51Z"/><path d="M172.37,3.26a3.58,3.58,0,0,1,1.21.22v-3l1.08-.17v9h-.86l-.12-.76a2.22,2.22,0,0,1-1.69.88c-1.14,0-2.1-.93-2.1-3S171.06,3.26,172.37,3.26Zm-.2,5.22a2,2,0,0,0,1.41-.87V4.47a2.33,2.33,0,0,0-1.15-.28c-.82,0-1.46.73-1.46,2.25S171.5,8.48,172.17,8.48Z"/><path d="M176.8,2.21a.69.69,0,0,1-.68-.7.69.69,0,0,1,.7-.69.67.67,0,0,1,.67.69A.69.69,0,0,1,176.8,2.21Zm-.53,7.13v-6h1.08v6Z"/><path d="M182.28,9.34V5.05c0-.51-.22-.86-.77-.86A2.21,2.21,0,0,0,180,5V9.34H179v-6h.86l.12.75a2.81,2.81,0,0,1,1.88-.87,1.43,1.43,0,0,1,1.56,1.59V9.34Z"/><path d="M188,9.34l-.1-.72a2.39,2.39,0,0,1-1.8.84,1.54,1.54,0,0,1-1.58-1.69c0-1.4,1.1-2,3.28-2.32V5.18a.88.88,0,0,0-1-1,4,4,0,0,0-1.8.5l-.15-1a5,5,0,0,1,2.07-.49c1.35,0,2,.62,2,1.91V9.34Zm-.2-3c-1.74.22-2.23.77-2.23,1.42a.73.73,0,0,0,.76.81,2.21,2.21,0,0,0,1.47-.75Z"/><path d="M192.19,9.44c-1,0-1.59-.38-1.59-1.56V4.26h-.84V3.33h.84V1.48l1.05-.16v2h1.19l.13.93h-1.32V7.74a.64.64,0,0,0,.73.73,2.17,2.17,0,0,0,.49-.05l.15.92A3.15,3.15,0,0,1,192.19,9.44Z"/><path d="M196.15,9.46c-1.47,0-2.47-1.16-2.47-3.12s1-3.13,2.5-3.13,2.49,1.16,2.49,3.13S197.65,9.46,196.15,9.46Zm0-5.33c-.94,0-1.41.94-1.41,2.21s.48,2.19,1.38,2.19,1.42-.92,1.42-2.19S197.09,4.13,196.18,4.13Z"/><path d="M200.92,5.51V9.34h-1.08v-6h.86l.16,1.08a2.23,2.23,0,0,1,1.77-1.2l.17,1.07A2.33,2.33,0,0,0,200.92,5.51Z"/><path d="M206.28,11.66V.49l.91-.13V11.52Z"/><path d="M211.69,9.18l3-7.33H211l-.16-1h5v.91l-3.14,7.69Z"/><path d="M219.5,9.5c-1.77,0-2.9-1.58-2.9-4.42S217.73.67,219.5.67s2.9,1.57,2.9,4.41S221.27,9.5,219.5,9.5Zm0-7.86c-1.11,0-1.79,1.21-1.79,3.44s.68,3.45,1.79,3.45,1.79-1.21,1.79-3.45S220.61,1.64,219.5,1.64Z"/><path d="M224.3,8.49a4,4,0,0,0,3.2-2.91,3.44,3.44,0,0,1-1.83.56c-1.45,0-2.35-1-2.35-2.63A2.61,2.61,0,0,1,225.94.67c1.74,0,2.74,1.48,2.74,3.56a5.13,5.13,0,0,1-4.22,5.28Zm3.33-4V4.33c0-1.81-.73-2.7-1.7-2.7s-1.52.64-1.52,1.82.47,1.73,1.46,1.73A2.72,2.72,0,0,0,227.63,4.51Z"/><path d="M232.63,9.18l3-7.33H232l-.17-1h5v.91l-3.14,7.69Z"/><path d="M238.45,9.18l3-7.33h-3.68l-.16-1h5v.91l-3.14,7.69Z"/><path d="M246.26,9.5c-1.77,0-2.9-1.58-2.9-4.42s1.13-4.41,2.9-4.41,2.9,1.57,2.9,4.41S248,9.5,246.26,9.5Zm0-7.86c-1.11,0-1.79,1.21-1.79,3.44s.68,3.45,1.79,3.45,1.79-1.21,1.79-3.45S247.37,1.64,246.26,1.64Z"/><path d="M254.52,9.49a3.93,3.93,0,0,1-2.18-.61l.18-1.05a3.52,3.52,0,0,0,2,.67,1.65,1.65,0,0,0,1.75-1.78,1.44,1.44,0,0,0-1.53-1.59,2.86,2.86,0,0,0-1.3.32l-.79-.2L253,.83h4l.13,1h-3.2l-.2,2.54a3.21,3.21,0,0,1,1.2-.22,2.33,2.33,0,0,1,2.48,2.51A2.69,2.69,0,0,1,254.52,9.49Z"/><path d="M261.9,7.4h-3.74V6.59L261.6.82h1.29V6.49h1.21V7.4h-1.21V9.34h-1Zm0-5.27-2.62,4.36h2.62Z"/><path d="M264.72,8.47l2.72-3.25a3.3,3.3,0,0,0,1-2.17,1.25,1.25,0,0,0-1.37-1.36,3.13,3.13,0,0,0-2,.91l-.16-1.09a3.58,3.58,0,0,1,2.27-.83A2.18,2.18,0,0,1,269.57,3a4.3,4.3,0,0,1-1.34,2.85L266.1,8.33h3.45l.15,1h-5Z"/><path d="M273.79,7.4h-3.73V6.59L273.5.82h1.29V6.49H276V7.4h-1.21V9.34h-1Zm0-5.27-2.61,4.36h2.61Z"/></svg>