<svg id="Layer_1" data-name="Layer 1" xmlns="http://www.w3.org/2000/svg" viewBox="0 0 120 12"><title>GM_Sig_2020_GM-Logo</title><path d="M55.09,11.48c1.31-.25,1.6-.94,1.6-2.6V2.48c0-1.21-.43-1.81-1.6-1.88V.39h4.1l2.64,8h.07l2.47-8H68.1V.6c-1.13.05-1.36.39-1.36,1v8.78c0,.67.23,1,1.36,1.06v.21H63.24v-.21c1-.05,1.31-.38,1.31-1.06v-9h-.08L61.33,11.72h-.68L57.18,1.41H57.1V8.88c0,1.66.31,2.35,1.68,2.6v.21H55.09Z"/><path d="M67.63,8c0-2.37,1.46-4,3.35-4s3,1.67,2.94,3.73H69.74V7.9c0,2,.74,3.24,2.05,3.24a2.27,2.27,0,0,0,1.92-1.45l.21.13a3.15,3.15,0,0,1-2.9,2C69,11.82,67.63,10.29,67.63,8Zm2.11-.59h2.15c.15-1.81-.16-3.11-1-3.11S69.77,5.45,69.74,7.44Z"/><path d="M74.28,8c0-2.37,1.45-4,3.56-4,1.64,0,2.56.88,2.56,1.8a1,1,0,0,1-1,1.15,1,1,0,0,1-1.07-1,1.32,1.32,0,0,1,.58-1.09,1.08,1.08,0,0,0-1-.52c-1,0-1.54,1.33-1.54,3.41,0,1.89.62,3.42,2,3.42a2.29,2.29,0,0,0,1.88-1.41l.23.13a3.08,3.08,0,0,1-2.87,2C75.56,11.82,74.28,10.28,74.28,8Z"/><path d="M80.15,11.49c.75,0,.91-.14.91-.61V1.19c0-.54-.12-.8-1-.81V.18l3-.11V5.68a2.92,2.92,0,0,1,2.41-1.61c1.19,0,1.75.76,1.75,2.11v4.7c0,.47.16.58.93.61v.2H84.51v-.2c.5,0,.73-.13.73-.61V6.32c0-.82-.28-1.26-.91-1.26s-.91.36-1.26,1v4.78c0,.48.21.6.73.61v.2H80.15Z"/><path d="M88.14,9.87A1.92,1.92,0,0,1,89,8.24c1-.64,2.39-.65,3.1-.91V6C92.11,4.8,91.7,4.4,91,4.4a1.43,1.43,0,0,0-1,.37,1.25,1.25,0,0,1,.47,1,1,1,0,1,1-2,0c0-1,1.07-1.67,2.9-1.67s2.73.71,2.73,2.45v3.73c0,.82.27,1,1,.72l.08.18a2.53,2.53,0,0,1-1.56.62,1.27,1.27,0,0,1-1.41-1.17h-.06a2.51,2.51,0,0,1-2.06,1.19A1.83,1.83,0,0,1,88.14,9.87Zm4,.36V7.64c-1.48.34-1.88.82-1.88,1.89,0,.91.37,1.35.92,1.35A1.23,1.23,0,0,0,92.11,10.23Z"/><path d="M95.24,11.49c.76,0,.94-.14.94-.61V5.27c0-.49-.15-.83-.94-.84v-.2l2.92-.11V5.68a2.92,2.92,0,0,1,2.43-1.61c1.16,0,1.73.76,1.73,2.11v4.7c0,.47.16.58.92.61v.2H99.58v-.2c.52,0,.75-.13.75-.61V6.32c0-.82-.26-1.26-.89-1.26-.47,0-.91.36-1.27,1v4.78c0,.48.21.6.71.61v.2H95.24Z"/><path d="M103.59,11.49c.77,0,1-.14,1-.61V5.25c0-.51-.16-.81-1-.82v-.2l3-.11v6.76c0,.47.16.58,1,.61v.2h-3.93Zm.76-9.78A1.18,1.18,0,0,1,105.51.44a1.14,1.14,0,0,1,1.17,1.22,1.14,1.14,0,0,1-1.15,1.24A1.13,1.13,0,0,1,104.35,1.71Z"/><path d="M107.27,8c0-2.37,1.46-4,3.56-4,1.64,0,2.56.88,2.56,1.8a1,1,0,0,1-1,1.15,1,1,0,0,1-1.07-1,1.31,1.31,0,0,1,.59-1.09,1.11,1.11,0,0,0-1-.52c-1,0-1.54,1.33-1.54,3.41,0,1.89.62,3.42,2,3.42a2.28,2.28,0,0,0,1.88-1.41l.23.13a3.08,3.08,0,0,1-2.87,2C108.55,11.82,107.27,10.28,107.27,8Z"/><path id="Path_56" data-name="Path 56" d="M10,.41H3.32L0,6l3.32,5.6H10L13.28,6Z"/><path d="M15.29,6.06c0-3.56,2.32-5.93,5.12-5.93a4.64,4.64,0,0,1,2.53.7l.65-.78h.21V4h-.24C22.41,1.63,21.61.44,20.32.44S17.74,1.88,17.74,6s1.3,5.64,2.72,5.64a2.13,2.13,0,0,0,1.4-.43V7.54c0-.66-.33-1-1.43-1V6.32H25v.21c-.79,0-1,.18-1,1v3.4a7.2,7.2,0,0,1-3.61,1C17.45,12,15.29,9.92,15.29,6.06Z"/><path d="M24.53,11.49c.78,0,.94-.14.94-.61V1.19c0-.54-.11-.8-1-.81V.18l3-.11V10.88c0,.47.16.58.94.61v.2H24.53Z"/><path d="M28.2,7.94C28.2,5.55,29.69,4,31.65,4s3.44,1.49,3.44,3.88-1.5,3.92-3.44,3.92S28.2,10.34,28.2,7.94Zm4.76,0c0-2.61-.42-3.58-1.36-3.58s-1.26,1-1.26,3.58.42,3.6,1.36,3.6S33,10.54,33,7.91Z"/><path d="M35.71,10.46V1.19c0-.54-.11-.8-1-.81V.18l3-.11V5a2.73,2.73,0,0,1,2.06-1c1.7,0,2.59,1.61,2.59,3.68,0,2.27-1.2,4.12-3.16,4.12a3.71,3.71,0,0,1-2.27-.76l-1,.87h-.27Zm4.54-2.58c0-1.88-.46-3.11-1.43-3.11a1.55,1.55,0,0,0-1.1.61v5c.29.79.75,1.16,1.23,1.16C39.91,11.49,40.25,10.07,40.25,7.88Z"/><path d="M42.68,9.87a1.92,1.92,0,0,1,.87-1.63c1-.64,2.39-.65,3.1-.91V6c0-1.18-.41-1.58-1.07-1.58a1.43,1.43,0,0,0-1,.37,1.25,1.25,0,0,1,.47,1,1,1,0,1,1-2,0c0-1,1.07-1.67,2.9-1.67s2.73.71,2.73,2.45v3.73c0,.82.27,1,1,.72l.08.18a2.53,2.53,0,0,1-1.56.62,1.27,1.27,0,0,1-1.41-1.17H46.7a2.51,2.51,0,0,1-2.06,1.19A1.83,1.83,0,0,1,42.68,9.87Zm4,.36V7.64c-1.48.34-1.88.82-1.88,1.89,0,.91.37,1.35.92,1.35A1.23,1.23,0,0,0,46.65,10.23Z"/><path d="M49.66,11.49c.78,0,.94-.14.94-.61V1.19c0-.54-.11-.8-1-.81V.18l3-.11V10.88c0,.47.16.58.94.61v.2H49.66Z"/></svg>