<svg id="Layer_1" data-name="Layer 1" xmlns="http://www.w3.org/2000/svg" viewBox="0 0 300 12"><title>GM_Sig_2020_Ryan</title><path d="M2.14,6H1.61V9.33H0V.74H2.38c1.87,0,3,.91,3,2.56A2.38,2.38,0,0,1,3.73,5.66L5.86,9.13l-1.67.3ZM2.27,2H1.61V4.76h.6c1,0,1.55-.49,1.55-1.37S3.26,2,2.27,2Z"/><path d="M9.94,6.07V9.33H8.32V6.09L5.69.92,7.39.65,9.18,4.47,10.89.74h1.73Z"/><path d="M16.76,7.15H14.12l-.64,2.18H11.87L14.6.71h1.77L19,9.13l-1.61.3ZM14.48,5.82h1.9l-1-3.29Z"/><path d="M24.79,9.33,21.48,3.54V9.33H20V.74h1.55l3.16,5.52,0-5.52h1.5V9.33Z"/><path d="M34.39,9.43,31.56,5.17V9.33H29.94V.74h1.62V4.49L34.11.74h1.83l-2.84,4,3,4.37Z"/><path d="M41.15,7.15H38.51l-.64,2.18h-1.6L39,.71h1.77l2.66,8.42-1.61.3ZM38.87,5.82h1.91l-1-3.29Z"/><path d="M49.19,9.33,45.87,3.54l0,5.79h-1.5V.74H46L49.1,6.26V.74h1.49V9.33Z"/><path d="M52.1,9.33V.74h4.58V2.12h-3V4.17H56l.24,1.4H53.7V8h3.1V9.33Z"/><path d="M64.69,6.75H61.8L61,9.33H59.83L62.67.7h1.17l2.79,8.47-1.11.25Zm-2.58-1h2.25L63.23,2.08Z"/><path d="M68.76,5.51V9.33H67.68v-6h.86L68.7,4.4a2.22,2.22,0,0,1,1.77-1.2l.17,1.07A2.34,2.34,0,0,0,68.76,5.51Z"/><path d="M73.54,9.43c-1,0-1.59-.37-1.59-1.56V4.25h-.84V3.33H72V1.47L73,1.31v2h1.18l.14.92H73V7.74a.63.63,0,0,0,.72.72,1.83,1.83,0,0,0,.5-.05l.15.92A3.24,3.24,0,0,1,73.54,9.43Z"/><path d="M79.7,9.33H77.8V.74h2c2.73,0,4.07,1.74,4.07,4.28S82.44,9.33,79.7,9.33Zm.14-7.56H79V8.29h.85c1.79,0,2.86-1.06,2.86-3.26S81.57,1.77,79.84,1.77Z"/><path d="M85.75,2.21a.7.7,0,0,1,0-1.4.68.68,0,0,1,.67.7A.69.69,0,0,1,85.75,2.21Zm-.53,7.12v-6H86.3v6Z"/><path d="M89,5.51V9.33H87.88v-6h.86l.17,1.07a2.22,2.22,0,0,1,1.76-1.2l.18,1.07A2.34,2.34,0,0,0,89,5.51Z"/><path d="M93.76,9.44c-1.5,0-2.51-1-2.51-3.13,0-1.84.93-3.11,2.36-3.11,1.61,0,2.26,1.39,2.26,3v.3H92.32c.06,1.26.6,2,1.54,2a2.89,2.89,0,0,0,1.84-.75l.16,1A3.26,3.26,0,0,1,93.76,9.44Zm-1.4-3.76h2.43c-.09-1-.45-1.6-1.19-1.6S92.51,4.66,92.36,5.68Z"/><path d="M99.28,9.44c-1.52,0-2.51-1.13-2.51-3.11s1-3.13,2.6-3.13a2.79,2.79,0,0,1,1.57.44l-.17,1.06a2.22,2.22,0,0,0-1.41-.54c-.92,0-1.51.79-1.51,2.16s.64,2.17,1.53,2.17a2.25,2.25,0,0,0,1.46-.55l.15,1A2.76,2.76,0,0,1,99.28,9.44Z"/><path d="M104,9.43c-1,0-1.59-.37-1.59-1.56V4.25h-.84V3.33h.84V1.47l1-.16v2h1.19l.14.92h-1.33V7.74c0,.45.19.72.73.72a1.83,1.83,0,0,0,.5-.05l.15.92A3.3,3.3,0,0,1,104,9.43Z"/><path d="M107.94,9.46c-1.47,0-2.46-1.16-2.46-3.13s1-3.13,2.49-3.13,2.49,1.16,2.49,3.13S109.44,9.46,107.94,9.46Zm0-5.33c-.94,0-1.41.93-1.41,2.2s.49,2.19,1.38,2.19,1.42-.92,1.42-2.19S108.88,4.13,108,4.13Z"/><path d="M112.71,5.51V9.33h-1.08v-6h.86l.16,1.07a2.25,2.25,0,0,1,1.77-1.2l.18,1.07A2.34,2.34,0,0,0,112.71,5.51Z"/><path d="M118.07,11.65V.49L119,.35V11.51Z"/><path d="M123.48,9.17l3-7.32h-3.68l-.16-1h5v.91L124.5,9.42Z"/><path d="M129.3,9.17l3-7.32h-3.68l-.16-1h5v.91l-3.14,7.69Z"/><path d="M134.18,7.14a2.79,2.79,0,0,1,1.58-2.3,2.3,2.3,0,0,1-1.32-2.06A2.23,2.23,0,0,1,136.91.66a2.2,2.2,0,0,1,2.45,2.14A2.46,2.46,0,0,1,138,4.86a2.47,2.47,0,0,1,1.6,2.3,2.75,2.75,0,0,1-5.43,0Zm4.35,0c0-.88-.56-1.31-1.91-1.89a2.3,2.3,0,0,0-1.36,1.84,1.52,1.52,0,0,0,1.64,1.5A1.48,1.48,0,0,0,138.53,7.14Zm-1.38-2.67a2.08,2.08,0,0,0,1.15-1.63,1.3,1.3,0,0,0-1.4-1.28,1.25,1.25,0,0,0-1.4,1.19C135.5,3.54,136,4,137.15,4.47Z"/><path d="M142.78,7.14a2.77,2.77,0,0,1,1.58-2.3A2.3,2.3,0,0,1,143,2.78,2.23,2.23,0,0,1,145.51.66,2.2,2.2,0,0,1,148,2.8a2.47,2.47,0,0,1-1.36,2.06,2.46,2.46,0,0,1,1.61,2.3,2.75,2.75,0,0,1-5.43,0Zm4.35,0c0-.88-.57-1.31-1.91-1.89a2.3,2.3,0,0,0-1.36,1.84,1.51,1.51,0,0,0,1.63,1.5A1.48,1.48,0,0,0,147.13,7.14Zm-1.39-2.67a2.07,2.07,0,0,0,1.16-1.63,1.3,1.3,0,0,0-1.41-1.28,1.25,1.25,0,0,0-1.39,1.19C144.1,3.54,144.63,4,145.74,4.47Z"/><path d="M149.18,5.93A5.14,5.14,0,0,1,153.29.65l.16,1a4,4,0,0,0-3.11,3,3.31,3.31,0,0,1,1.87-.57,2.26,2.26,0,0,1,2.34,2.55,2.61,2.61,0,0,1-2.63,2.81C150.19,9.49,149.18,8,149.18,5.93Zm4.27.81c0-1-.47-1.66-1.45-1.66a2.77,2.77,0,0,0-1.76.66v.09c0,1.81.72,2.69,1.69,2.69S153.45,7.87,153.45,6.74Z"/><path d="M157.53,9.48a3.93,3.93,0,0,1-2.18-.61l.17-1a3.55,3.55,0,0,0,2,.67,1.66,1.66,0,0,0,1.76-1.78,1.44,1.44,0,0,0-1.53-1.6,2.7,2.7,0,0,0-1.3.33l-.8-.2L156,.82h4l.13,1h-3.2l-.2,2.54a3.13,3.13,0,0,1,1.2-.22,2.34,2.34,0,0,1,2.48,2.52A2.68,2.68,0,0,1,157.53,9.48Z"/><path d="M163.38,8.87l.19-1.07a3.38,3.38,0,0,0,2,.67c1,0,1.65-.53,1.65-1.47s-.81-1.6-2.16-1.6h-.26l-.16-1h.46c1.25,0,2-.55,2-1.47a1.25,1.25,0,0,0-1.41-1.25,3.25,3.25,0,0,0-2,.7l-.16-1A3.63,3.63,0,0,1,165.7.67a2.16,2.16,0,0,1,2.46,2.15,2.08,2.08,0,0,1-1.52,2A2.09,2.09,0,0,1,168.32,7a2.48,2.48,0,0,1-2.77,2.48A4.31,4.31,0,0,1,163.38,8.87Z"/><path d="M169.29,5.93A5.14,5.14,0,0,1,173.4.65l.16,1a4,4,0,0,0-3.11,3,3.29,3.29,0,0,1,1.87-.57,2.26,2.26,0,0,1,2.34,2.55A2.61,2.61,0,0,1,172,9.49C170.3,9.49,169.29,8,169.29,5.93Zm4.27.81c0-1-.47-1.66-1.45-1.66a2.77,2.77,0,0,0-1.76.66v.09c0,1.81.72,2.69,1.69,2.69S173.56,7.87,173.56,6.74Z"/><path d="M175.56,5.93A5.13,5.13,0,0,1,179.67.65l.16,1a4,4,0,0,0-3.11,3,3.28,3.28,0,0,1,1.86-.57,2.27,2.27,0,0,1,2.35,2.55,2.61,2.61,0,0,1-2.63,2.81C176.57,9.49,175.56,8,175.56,5.93Zm4.27.81c0-1-.47-1.66-1.46-1.66a2.74,2.74,0,0,0-1.75.66v.09c0,1.81.72,2.69,1.69,2.69S179.83,7.87,179.83,6.74Z"/><path d="M182.5,8.49a4,4,0,0,0,3.2-2.92,3.35,3.35,0,0,1-1.83.56c-1.45,0-2.35-1-2.35-2.63A2.62,2.62,0,0,1,184.14.66c1.74,0,2.74,1.48,2.74,3.56a5.14,5.14,0,0,1-4.22,5.29Zm3.33-4V4.32c0-1.8-.73-2.7-1.7-2.7s-1.52.65-1.52,1.82.47,1.73,1.46,1.73A2.72,2.72,0,0,0,185.83,4.5Z"/></svg>