<?xml version="1.0" encoding="utf-8"?>
<!-- Generator: Adobe Illustrator 21.1.0, SVG Export Plug-In . SVG Version: 6.00 Build 0)  -->
<svg version="1.1" id="Layer_1" xmlns="http://www.w3.org/2000/svg" xmlns:xlink="http://www.w3.org/1999/xlink" x="0px" y="0px"
	 viewBox="0 0 1000 1000" style="enable-background:new 0 0 1000 1000;" xml:space="preserve">
<style type="text/css">
	.st0{fill:#FFFFFF;}
</style>
<rect width="1000" height="1000"/>
<g>
	<path class="st0" d="M500,238.7c95.6,0,106.9,0.3,144.7,1.9c34.9,1.4,53.9,6.6,66.5,11c16.7,5.8,28.6,12.7,41.2,23.9
		c12.5,11.2,20.3,21.9,26.8,36.8c4.9,11.3,10.7,28.2,12.3,59.4c1.7,33.7,2.1,43.9,2.1,129.3s-0.4,95.6-2.1,129.3
		c-1.6,31.2-7.4,48.1-12.3,59.4c-6.5,14.9-14.3,25.6-26.8,36.8c-12.5,11.2-24.5,18.1-41.2,23.9c-12.6,4.4-31.6,9.6-66.5,11
		c-37.7,1.5-49.1,1.9-144.7,1.9s-106.9-0.3-144.7-1.9c-34.9-1.4-53.9-6.6-66.5-11c-16.7-5.8-28.6-12.7-41.2-23.9
		c-12.5-11.2-20.3-21.9-26.8-36.8c-4.9-11.3-10.7-28.2-12.3-59.4c-1.7-33.7-2.1-43.9-2.1-129.3s0.4-95.6,2.1-129.3
		c1.6-31.2,7.4-48.1,12.3-59.4c6.5-14.9,14.3-25.6,26.8-36.8c12.5-11.2,24.5-18.1,41.2-23.9c12.6-4.4,31.6-9.6,66.5-11
		C393.1,239,404.4,238.7,500,238.7 M500,181c-97.2,0-109.4,0.4-147.6,1.9c-38.1,1.6-64.1,7-86.9,14.9c-23.5,8.2-43.5,19.1-63.4,36.9
		c-19.9,17.8-32.1,35.6-41.3,56.7c-8.9,20.4-14.9,43.6-16.6,77.7c-1.7,34.1-2.2,45-2.2,131.9c0,86.9,0.4,97.8,2.2,131.9
		c1.7,34.1,7.8,57.3,16.6,77.7c9.1,21,21.4,38.9,41.3,56.7c19.9,17.8,39.9,28.7,63.4,36.9c22.8,7.9,48.8,13.3,86.9,14.9
		c38.2,1.6,50.4,1.9,147.6,1.9s109.4-0.4,147.6-1.9c38.1-1.6,64.1-7,86.9-14.9c23.5-8.2,43.5-19.1,63.4-36.9
		c19.9-17.8,32.1-35.6,41.3-56.7c8.9-20.4,14.9-43.6,16.6-77.7c1.7-34.1,2.2-45,2.2-131.9s-0.4-97.8-2.2-131.9
		c-1.7-34.1-7.8-57.3-16.6-77.7c-9.1-21-21.4-38.9-41.3-56.7C778,216.9,758,206,734.5,197.8c-22.8-7.9-48.8-13.3-86.9-14.9
		C609.4,181.4,597.2,181,500,181L500,181z"/>
	<path class="st0" d="M500,336.7c-101.5,0-183.8,73.6-183.8,164.3c0,90.8,82.3,164.3,183.8,164.3S683.8,591.8,683.8,501
		C683.8,410.2,601.5,336.7,500,336.7z M500,607.7c-65.9,0-119.3-47.8-119.3-106.7c0-58.9,53.4-106.7,119.3-106.7
		S619.3,442.1,619.3,501C619.3,559.9,565.9,607.7,500,607.7z"/>
	<ellipse class="st0" cx="691.1" cy="330.2" rx="43" ry="38.4"/>
</g>
</svg>
