<svg id="Layer_1" data-name="Layer 1" xmlns="http://www.w3.org/2000/svg" viewBox="0 0 1000 1000"><defs><style>.cls-1{fill-rule:evenodd;}</style></defs><title>GM_Social_Icons_v01</title><path class="cls-1" d="M811.43,237.48a277.36,277.36,0,0,1-87.55,33.11A138.37,138.37,0,0,0,623.27,227.5c-76.15,0-137.88,61.1-137.88,136.46a136.44,136.44,0,0,0,3.55,31.09A392.7,392.7,0,0,1,204.78,252.48a134.69,134.69,0,0,0-18.67,68.6,136.06,136.06,0,0,0,61.34,113.59A138.47,138.47,0,0,1,185,417.6c0,.57,0,1.14,0,1.72,0,66.1,47.54,121.25,110.6,133.8a139.44,139.44,0,0,1-62.25,2.33c17.53,54.21,68.46,93.66,128.79,94.76a278.41,278.41,0,0,1-171.23,58.42,286.06,286.06,0,0,1-32.88-1.9A393.17,393.17,0,0,0,369.34,768c253.6,0,392.28-207.92,392.28-388.24,0-5.93-.14-11.79-.41-17.66A278.81,278.81,0,0,0,830,291.5,278.77,278.77,0,0,1,750.82,313a137.09,137.09,0,0,0,60.62-75.51M1000,1000H0V0H1000Z"/></svg>