<?xml version="1.0" encoding="utf-8"?>
<!-- Generator: Adobe Illustrator 18.0.0, SVG Export Plug-In . SVG Version: 6.00 Build 0)  -->
<!DOCTYPE svg PUBLIC "-//W3C//DTD SVG 1.1//EN" "http://www.w3.org/Graphics/SVG/1.1/DTD/svg11.dtd">
<svg version="1.1" id="Layer_1" xmlns="http://www.w3.org/2000/svg" xmlns:xlink="http://www.w3.org/1999/xlink" x="0px" y="0px"
	 viewBox="0 0 481.4 644.1" enable-background="new 0 0 481.4 644.1" xml:space="preserve">
<g>
	<rect x="430" y="520.1" width="23.1" height="112.5"/>
	<polygon points="403.8,633.6 406.1,633.6 406.1,520.1 384.4,520.1 384.4,584.3 316,519.2 313.7,519.2 313.7,632.6 335.3,632.6 
		335.3,568.7 	"/>
	<rect x="266.7" y="520.1" width="23.1" height="112.5"/>
	<path d="M198,634.1c25.6,0,45.3-13.8,45.3-42.2v-71.8h-23.1v70.4c0,16.4-6.9,22.7-22.1,22.7c-15.4,0-22.5-6.3-22.5-22.7v-70.4
		h-23.1v71.8C152.4,620.3,172,634.1,198,634.1"/>
	<path d="M88.9,611.3c-3.5,1.2-7.3,1.7-11.4,1.7c-20.5,0-34.4-16-34.4-37c0-21,13.9-37,34.4-37c20.5,0,34.4,16,34.4,37
		c0,9.4-2.3,17.5-6.6,23.6L91,583.2l-15.5,12.7L88.9,611.3z M119.8,616.3c9.9-10.3,15.9-24.3,15.9-40.3c0-33.2-25.8-57.7-58.2-57.7
		c-32.4,0-58.2,24.5-58.2,57.7c0,33.2,25.8,57.7,58.2,57.7c9.4,0,18.2-2.2,26-5.8l5.4,6.3h24.4v-2.3L119.8,616.3z"/>
</g>
<g>
	<g>
		<g>
			<path fill="#B6539E" d="M223.7,246.7c0,0,33.6,81.9-7.2,150.3c-47,78.7-149.8,0-166.5-21.2C11.4,326.6,28.9,263,89.3,227.3
				C141.5,196.5,223.7,246.7,223.7,246.7"/>
		</g>
	</g>
	<g>
		<g>
			<path fill="#DA8929" d="M250.8,238.4c0,0,20.9-86,94.1-117.3c84.3-36.1,121.2,88,122.2,115c2.4,62.5-49.2,103.7-119,97
				C287.8,327.4,250.8,238.4,250.8,238.4"/>
		</g>
	</g>
	<g>
		<g>
			<path fill="#9B2C22" d="M224.6,225.8c0,0-67.5,57.3-145.1,39.6C-9.9,245.1,33.2,123,48.2,100.6c34.8-52,100.7-55,153.3-8.6
				C246.9,132.1,224.6,225.8,224.6,225.8"/>
		</g>
	</g>
	<g>
		<g>
			<path fill="#09538D" d="M239.7,249.6c0,0,88.3-6.7,140.7,53.3c60.4,69-46.3,142.4-71.6,151.7C250.1,476.3,195,440,179.7,371.5
				C166.6,312.3,239.7,249.6,239.7,249.6"/>
		</g>
	</g>
	<g>
		<g>
			<path fill="#26ABA2" d="M239.6,224.2c0,0-75.3-46.5-82.5-125.8c-8.3-91.3,121.2-88,147.1-80.7c60.2,17,83.4,78.8,55.5,143.1
				C335.6,216.5,239.6,224.2,239.6,224.2"/>
		</g>
	</g>
</g>
</svg>
