<?xml version="1.0" standalone="no"?>
<!DOCTYPE svg PUBLIC "-//W3C//DTD SVG 1.1//EN" "http://www.w3.org/Graphics/SVG/1.1/DTD/svg11.dtd" >
<svg>
<metadata>
Created by FontForge 20090622 at Wed Dec 16 23:29:04 2015
 By deploy user
Copyright 2006 House Industries/Brand Design Co., Inc. All Rights Reserved.
</metadata>
<defs>
<font id="BurbankSmall-LightItalic" horiz-adv-x="615" >
  <font-face 
    font-family="Burbank Small Light"
    font-weight="300"
    font-style="italic"
    font-variant="small-caps"
    font-stretch="normal"
    units-per-em="1000"
    panose-1="0 0 0 0 0 0 0 0 0 0"
    ascent="750"
    descent="-250"
    x-height="498"
    cap-height="697"
    bbox="-120 -248 1119 953"
    underline-thickness="50"
    underline-position="-50"
    slope="-11"
    unicode-range="U+0020-U+FB04"
  />
<missing-glyph horiz-adv-x="230" 
 />
    <glyph glyph-name="ff" unicode="ff" horiz-adv-x="682" 
d="M330 459q-23 0 -142 -1q-18 -88 -44.5 -237t-43.5 -254l-18 -105q-15 3 -36 5q67 395 105 591q-26 -1 -84 -1q3 13 6 33q31 -1 84 -1q19 93 71.5 145t153.5 53q0 -14 1 -30q-86 -4 -128.5 -45.5t-59.5 -122.5q6 0 142 2q-3 -11 -7 -32zM674 475q-28 0 -147 -1
q-18 -88 -47 -249.5l-49 -278.5l-20 -118q-15 3 -36 5q77 445 115 641q-26 -1 -84 -1q3 13 6 33q31 -1 84 -1q19 93 71.5 145t153.5 53q0 -14 1 -30q-86 -4 -128.5 -45.5t-59.5 -122.5q11 0 147 2q-3 -11 -7 -32z" />
    <glyph glyph-name="fi" unicode="fi" horiz-adv-x="560" 
d="M337 467q-28 0 -147 -1q-18 -88 -46.5 -247.5l-47.5 -274.5l-20 -116q-15 3 -36 5q75 437 113 633q-26 -1 -84 -1q3 13 6 33q31 -1 84 -1q19 93 71.5 145t153.5 53q0 -14 1 -30q-86 -4 -128.5 -45.5t-59.5 -122.5q11 0 147 2q-3 -11 -7 -32zM375 2l94 500q17 -3 38 -4
l-94 -500q-15 2 -38 4zM512 580q-18 0 -28 12t-10 31q0 45 39 45q37 0 37 -43q0 -21 -10.5 -33t-27.5 -12z" />
    <glyph glyph-name="fl" unicode="fl" horiz-adv-x="550" 
d="M337 467q-28 0 -147 -1q-18 -88 -46.5 -247.5l-47.5 -274.5l-20 -116q-15 3 -36 5q75 437 113 633q-26 -1 -84 -1q3 13 6 33q31 -1 84 -1q19 93 71.5 145t153.5 53q0 -14 1 -30q-86 -4 -128.5 -45.5t-59.5 -122.5q11 0 147 2q-3 -11 -7 -32zM403 -2l-38 7l137 704l38 -5z
" />
    <glyph glyph-name="ffi" unicode="ffi" horiz-adv-x="895" 
d="M710 2l93 493q17 -3 38 -4l-93 -493q-15 2 -38 4zM847 580q-18 0 -28 12t-10 31q0 45 39 45q37 0 37 -43q0 -21 -10.5 -33t-27.5 -12zM330 459q-23 0 -142 -1q-18 -88 -44.5 -237t-43.5 -254l-18 -105q-15 3 -36 5q67 395 105 591q-26 -1 -84 -1q3 13 6 33q31 -1 84 -1
q19 93 71.5 145t153.5 53q0 -14 1 -30q-86 -4 -128.5 -45.5t-59.5 -122.5q6 0 142 2q-3 -11 -7 -32zM674 475q-28 0 -147 -1q-18 -88 -47 -249.5l-49 -278.5l-20 -118q-15 3 -36 5q77 445 115 641q-26 -1 -84 -1q3 13 6 33q31 -1 84 -1q19 93 71.5 145t153.5 53q0 -14 1 -30
q-86 -4 -128.5 -45.5t-59.5 -122.5q11 0 147 2q-3 -11 -7 -32z" />
    <glyph glyph-name="ffl" unicode="ffl" horiz-adv-x="880" 
d="M738 -2l-38 7l132 675l38 -5zM330 459q-23 0 -142 -1q-18 -88 -44.5 -237t-43.5 -254l-18 -105q-15 3 -36 5q67 395 105 591q-26 -1 -84 -1q3 13 6 33q31 -1 84 -1q19 93 71.5 145t153.5 53q0 -14 1 -30q-86 -4 -128.5 -45.5t-59.5 -122.5q6 0 142 2q-3 -11 -7 -32z
M669 475q-28 0 -147 -1q-18 -88 -47 -249.5l-49 -278.5l-20 -118q-15 3 -36 5q77 445 115 641q-26 -1 -84 -1q3 13 6 33q31 -1 84 -1q19 93 71.5 145t153.5 53q0 -14 1 -30q-86 -4 -128.5 -45.5t-59.5 -122.5q11 0 147 2q-3 -11 -7 -32z" />
    <glyph glyph-name=".notdef" horiz-adv-x="230" 
 />
    <glyph glyph-name=".null" horiz-adv-x="0" 
 />
    <glyph glyph-name="nonmarkingreturn" horiz-adv-x="333" 
 />
    <glyph glyph-name="space" unicode=" " horiz-adv-x="230" 
 />
    <glyph glyph-name="exclam" unicode="!" horiz-adv-x="296" 
d="M104 172l99 543q13 -2 43 -4l-105 -543q-16 2 -37 4zM101 -14q-22 0 -36.5 15.5t-14.5 44.5q0 25 13.5 41.5t37.5 16.5t36.5 -17t12.5 -43q0 -27 -13.5 -42.5t-35.5 -15.5z" />
    <glyph glyph-name="quotedbl" unicode="&#x22;" horiz-adv-x="312" 
d="M105 462l40 241q17 -2 43 -3q-16 -59 -52 -240q-12 1 -31 2zM236 458q17 75 49 257q15 -2 42 -5l-60 -257q-13 3 -31 5z" />
    <glyph glyph-name="numbersign" unicode="#" horiz-adv-x="614" 
d="M357 117l31 158q-42 0 -190 -2q-19 -108 -25 -147q-14 3 -37 5l29 142l-125 -2q2 10 6 36q56 -1 125 -1l40 209q-36 0 -120 -2q3 13 6 36h120l25 145q13 -2 37 -3l-29 -142q116 0 190 1l29 159q14 -2 36 -3l-31 -155q37 0 129 2q-5 -13 -9 -34h-126l-40 -212l131 2
q-4 -12 -8 -35q-49 1 -129 1q-27 -159 -28 -162q-16 3 -37 4zM244 516q-21 -101 -40 -210q108 0 190 1l40 211q-42 0 -190 -2z" />
    <glyph glyph-name="dollar" unicode="$" horiz-adv-x="526" 
d="M238 -16h-10l-24 -119l-36 6l22 117q-156 28 -165 221q15 2 40 7q4 -97 49.5 -147t117.5 -50q75 0 127 40t52 107q0 90 -141 144q-151 59 -151 179q0 83 57.5 136.5t139.5 53.5h9l22 115l37 -6q-4 -19 -12 -60t-10 -54q129 -26 149 -213q-17 -3 -39 -9q-21 190 -151 190
q-72 0 -117 -42t-45 -111q0 -92 135 -147q155 -64 155 -171q0 -88 -63 -137.5t-148 -49.5z" />
    <glyph glyph-name="percent" unicode="%" horiz-adv-x="799" 
d="M207 319q-65 0 -103 41t-38 110q0 101 59 160q44 44 101 44q69 0 105 -42t36 -109q0 -100 -64 -164q-40 -40 -96 -40zM205 352q42 0 74 31q24 23 39 62t15 78q0 52 -27 86.5t-77 34.5q-44 0 -76 -32q-24 -24 -38 -63.5t-14 -78.5q0 -55 27 -86.5t77 -31.5zM148 -22
l-32 13l541 690l35 -13zM585 -11q-67 0 -105 43t-38 109q0 95 62 157q43 43 97 43q68 0 105 -41.5t37 -107.5q0 -103 -60 -163q-40 -40 -98 -40zM583 21q44 0 73 29q53 53 53 143q0 53 -27.5 85t-78.5 32q-40 0 -73 -33q-53 -53 -53 -138q0 -52 28 -85t78 -33z" />
    <glyph glyph-name="ampersand" unicode="&#x26;" horiz-adv-x="668" 
d="M246 -36q-104 0 -159.5 53t-55.5 132q0 77 47 124q37 37 128 76q-40 83 -40 160q0 104 63 167q43 43 107 43q62 0 97.5 -40.5t35.5 -98.5q0 -86 -67 -153q-44 -44 -152 -92q65 -115 206 -214q55 90 80 238l34 -4q-24 -158 -84 -254q51 -34 107 -62q-7 -10 -18 -32
q-53 27 -110 64q-83 -107 -219 -107zM220 322q-81 -37 -113 -69q-39 -39 -39 -102q0 -65 46.5 -109.5t129.5 -44.5q119 0 192 95q-145 103 -216 230zM436 576q0 46 -26 79t-74 33t-83 -35q-52 -52 -52 -149q0 -69 35 -142q102 45 143 86q57 57 57 128z" />
    <glyph glyph-name="quotesingle" unicode="'" horiz-adv-x="178" 
d="M105 461q14 64 46 245q14 -2 42 -5l-57 -244q-11 2 -31 4z" />
    <glyph glyph-name="parenleft" unicode="(" horiz-adv-x="274" 
d="M110 -130q-40 135 -40 277q0 157 55.5 315t159.5 276l29 -16q-96 -109 -150.5 -267t-54.5 -313q0 -133 37 -263z" />
    <glyph glyph-name="parenright" unicode=")" horiz-adv-x="279" 
d="M4 -129q-9 7 -29 19q200 289 200 580q0 135 -40 261q13 4 33 12q46 -141 46 -279q0 -306 -210 -593z" />
    <glyph glyph-name="asterisk" unicode="*" horiz-adv-x="397" 
d="M123 353l-26 22l115 134l-122 28l11 35q81 -27 126 -39l26 157l36 -3q-24 -98 -36 -154l135 28l4 -33l-132 -19q13 -30 30.5 -64.5l27.5 -54.5l11 -19l-32 -15q-32 79 -62 139z" />
    <glyph glyph-name="plus" unicode="+" horiz-adv-x="483" 
d="M186 123q21 92 41 194l-187 -1l6 36q27 -1 58 -1.5t69.5 -1t59.5 -0.5l35 185l36 -5q-19 -84 -37 -180l191 1l-9 -34q-63 1 -189 1l-36 -196z" />
    <glyph glyph-name="comma" unicode="," horiz-adv-x="247" 
d="M14 -119l-13 25q54 28 85 83q-26 -2 -41 14.5t-15 44.5q0 24 14 39.5t38 15.5q26 0 38 -18.5t12 -46.5q0 -100 -118 -157z" />
    <glyph glyph-name="hyphen" unicode="-" horiz-adv-x="377" 
d="M40 316l6 38l301 -3l-8 -35h-299z" />
    <glyph glyph-name="period" unicode="." horiz-adv-x="245" 
d="M79 -7q-22 0 -35.5 14t-13.5 40q0 23 13.5 40t35.5 17q26 0 38.5 -16t12.5 -37q0 -27 -14 -42.5t-37 -15.5z" />
    <glyph glyph-name="slash" unicode="/" horiz-adv-x="408" 
d="M-45 -98l468 838l35 -10l-467 -838z" />
    <glyph glyph-name="zero" unicode="0" horiz-adv-x="604" 
d="M279 -21q-103 0 -160.5 74.5t-57.5 200.5q0 99 30 191.5t92 157.5q72 74 163 74q102 0 157 -78t55 -198q0 -93 -34.5 -197t-91.5 -161q-64 -64 -153 -64zM282 13q69 0 121 52t85 150.5t33 188.5q0 105 -45.5 172.5t-128.5 67.5q-74 0 -136 -62q-55 -55 -83.5 -147.5
t-28.5 -181.5q0 -109 47 -174.5t136 -65.5z" />
    <glyph glyph-name="one" unicode="1" horiz-adv-x="351" 
d="M178 -4l-40 4l116 614l-171 -89l-13 30l107.5 55.5t74.5 41.5l24 13l25 -8z" />
    <glyph glyph-name="two" unicode="2" horiz-adv-x="545" 
d="M421 -4l-421 8l6 39q261 139 363.5 238t102.5 207q0 65 -44 110.5t-122 45.5q-77 0 -128 -55t-77 -148q-16 10 -38 12q25 98 87 161.5t154 63.5q99 0 152 -54.5t53 -134.5q0 -56 -19 -104t-68 -103t-138 -115t-223 -130q220 -5 369 -5z" />
    <glyph glyph-name="three" unicode="3" horiz-adv-x="581" 
d="M266 -23q-116 0 -175.5 62t-59.5 181q21 2 40 3q0 -213 197 -213q78 0 132.5 47.5t54.5 124.5q0 61 -52.5 100t-175.5 36q3 18 8 36q131 -6 202 38t71 124q0 55 -42 94.5t-115 39.5q-78 0 -127 -44t-77 -130l-38 9q26 92 88.5 145t154.5 53q93 0 143.5 -50.5t50.5 -116.5
q0 -69 -48.5 -119t-135.5 -64q67 -12 99.5 -55.5t32.5 -95.5q0 -95 -66.5 -150t-161.5 -55z" />
    <glyph glyph-name="four" unicode="4" horiz-adv-x="556" 
d="M350 2l32 157q-362 -4 -372 -4q2 13 7 35l464 488l40 -4l-95 -483l71 1q-4 -15 -8 -33h-69l-30 -161zM475 624l-411 -434q158 0 325 1q78 388 86 433z" />
    <glyph glyph-name="five" unicode="5" horiz-adv-x="562" 
d="M250 -23q-88 0 -147.5 47t-77.5 138l41 12q34 -163 185 -163q90 0 150 70t60 167q0 68 -36.5 113t-108.5 45q-51 0 -109 -33t-96 -84q-17 4 -33 5l80 368q292 0 384 2q-5 -19 -9 -37q-228 1 -344 -1l-64 -278q90 92 192 92q91 0 137 -54t46 -138q0 -110 -70.5 -190.5
t-179.5 -80.5z" />
    <glyph glyph-name="six" unicode="6" horiz-adv-x="573" 
d="M288 -26q-101 0 -164.5 69.5t-63.5 198.5q0 98 34.5 197.5t99.5 164.5q73 73 156 73q166 0 193 -181l-38 -8q-15 80 -52 118.5t-102 38.5q-66 0 -127 -61q-100 -100 -124 -295q35 52 93.5 87.5t111.5 35.5q101 0 152.5 -57.5t51.5 -139.5q0 -104 -64 -172.5t-157 -68.5z
M305 378q-55 0 -112 -38.5t-96 -101.5q1 -110 53.5 -170t139.5 -60q77 0 129 62t52 149q0 68 -43 113.5t-123 45.5z" />
    <glyph glyph-name="seven" unicode="7" horiz-adv-x="508" 
d="M119 -6q84 363 363 636h-392l6 34l437 2l-4 -32q-155 -162 -240 -307t-133 -337z" />
    <glyph glyph-name="eight" unicode="8" horiz-adv-x="576" 
d="M261 -30q-107 0 -166 52t-59 128q0 78 55.5 130t153.5 71q-60 19 -93 59t-33 91q0 80 65.5 129t157.5 49q99 0 154 -45t55 -111q0 -65 -47.5 -107.5t-143.5 -67.5q72 -22 109.5 -70t37.5 -101q0 -92 -71.5 -149.5t-174.5 -57.5zM260 5q90 0 148.5 47.5t58.5 127.5
q0 51 -44 95t-128 58q-217 -38 -217 -183q0 -66 51.5 -105.5t130.5 -39.5zM308 363q98 20 151 61.5t53 97.5q0 54 -46.5 89t-121.5 35q-82 0 -134 -41.5t-52 -104.5q0 -96 150 -137z" />
    <glyph glyph-name="nine" unicode="9" horiz-adv-x="572" 
d="M250 -24q-88 0 -146.5 49.5t-73.5 148.5l39 8q31 -171 181 -171q71 0 124 53q80 80 110 281q-83 -88 -193 -88q-94 0 -148 54t-54 137q0 93 63.5 162.5t158.5 69.5q106 0 161.5 -71t55.5 -191q0 -93 -34 -206.5t-90 -169.5q-66 -66 -154 -66zM291 293q109 0 197 95
q1 10 1 30q0 106 -45.5 167t-130.5 61q-79 0 -132.5 -56.5t-53.5 -139.5q0 -70 44.5 -113.5t119.5 -43.5z" />
    <glyph glyph-name="colon" unicode=":" horiz-adv-x="278" 
d="M89 -9q-22 0 -35.5 16t-13.5 41t14 41.5t36 16.5q25 0 37 -17t12 -41q0 -26 -14.5 -41.5t-35.5 -15.5zM143 280q-22 0 -35.5 16.5t-13.5 43.5q0 22 14 38.5t36 16.5q24 0 36.5 -16t12.5 -39q0 -28 -14 -44t-36 -16z" />
    <glyph glyph-name="semicolon" unicode=";" horiz-adv-x="266" 
d="M14 -119l-13 25q52 29 84 83q-23 -1 -39 14.5t-16 41.5q0 24 13 40.5t38 16.5q51 0 51 -66q0 -49 -31.5 -88.5t-86.5 -66.5zM133 280q-22 0 -35.5 16.5t-13.5 43.5q0 22 14 38.5t36 16.5q24 0 36.5 -16t12.5 -39q0 -28 -14 -44t-36 -16z" />
    <glyph glyph-name="less" unicode="&#x3c;" horiz-adv-x="486" 
d="M410 123q-8 -11 -18 -31l-357 212l7 35l431 208l13 -33l-404 -194z" />
    <glyph glyph-name="equal" unicode="=" horiz-adv-x="493" 
d="M45 220q3 13 6 36q140 -1 373 2q-5 -14 -9 -38q-123 2 -370 0zM451 401l-371 2l8 37h370z" />
    <glyph glyph-name="greater" unicode="&#x3e;" horiz-adv-x="487" 
d="M23 92l-13 34l405 201l-322 190q8 9 19 30l350 -208l-5 -34z" />
    <glyph glyph-name="question" unicode="?" horiz-adv-x="568" 
d="M237 173l30 165q19 -1 29 -1q105 0 159 54q61 61 61 144q0 63 -44 105.5t-129 42.5q-82 0 -140.5 -52.5t-77.5 -160.5q-14 4 -35 7q17 116 85.5 177t162.5 61q104 0 159 -52.5t55 -131.5q0 -91 -69 -160q-31 -31 -84 -48.5t-101 -17.5l-25 -134zM230 -14q-22 0 -36 16.5
t-14 45.5q0 24 13.5 39.5t36.5 15.5q24 0 37 -16.5t13 -42.5q0 -28 -14.5 -43t-35.5 -15z" />
    <glyph glyph-name="at" unicode="@" horiz-adv-x="964" 
d="M702 -15q-59 0 -89.5 42t-27.5 113q-32 -67 -81 -108.5t-108 -41.5q-76 0 -120.5 60.5t-44.5 155.5q0 70 25 139t70 114q62 62 137 62q66 0 105 -51.5t50 -124.5q6 29 17.5 92.5t13.5 72.5q14 -2 37 -3q-16 -96 -59 -311q-7 -34 -7 -66q0 -52 21 -80.5t62 -28.5
q63 0 105 67t42 198q0 149 -92 247t-255 98q-194 0 -301 -119t-107 -302q0 -155 98 -251t258 -96q106 0 210 41l11 -37q-125 -38 -224 -38q-186 0 -289.5 109t-103.5 274q0 205 123 328t324 123q97 0 173.5 -32.5t121.5 -86.5t68.5 -119t23.5 -136q0 -155 -53.5 -229.5
t-133.5 -74.5zM467 489q-60 0 -111 -51q-39 -39 -62 -103.5t-23 -130.5q0 -80 34.5 -131t92.5 -51q57 0 112 55q40 40 65.5 95.5t25.5 108.5q0 81 -37.5 144.5t-96.5 63.5z" />
    <glyph glyph-name="A" unicode="A" horiz-adv-x="558" 
d="M-30 27l357 680l53 -5l103 -722q-15 -2 -38 -6l-28 208q-87 3 -323 3l-86 -169q-13 5 -38 11zM349 677l-237 -457q12 0 115 -0.5t185 -0.5z" />
    <glyph glyph-name="B" unicode="B" horiz-adv-x="600" 
d="M45 -4l129 702q67 10 129 10q125 0 193 -43t68 -120q0 -85 -60 -135.5t-164 -59.5q99 -13 144 -57.5t45 -104.5q0 -70 -52 -122q-80 -80 -279 -80q-72 0 -153 10zM89 27q72 -8 122 -8q169 0 239 70q41 41 41 106q0 139 -295 139q-33 0 -51 -1zM209 671l-58 -304
q20 -1 57 -1q207 0 277 70q43 43 43 106t-56 100t-162 37q-42 0 -101 -8z" />
    <glyph glyph-name="C" unicode="C" horiz-adv-x="632" 
d="M300 -23q-114 0 -174.5 78t-60.5 206q0 98 35 204.5t100 171.5q81 81 179 81q180 0 213 -235l-38 -5q-16 103 -58.5 154t-116.5 51q-82 0 -152 -70q-58 -58 -90.5 -154.5t-32.5 -194.5q0 -119 52 -186.5t144 -67.5q75 0 134 56.5t88 175.5l38 -11q-27 -118 -95.5 -186
t-164.5 -68z" />
    <glyph glyph-name="D" unicode="D" horiz-adv-x="623" 
d="M88 37q35 -4 76 -4q181 0 279 98q49 49 78.5 127t29.5 158q0 113 -68 181t-204 68q-31 0 -76 -5zM40 4l132 686q56 9 105 9q146 0 228 -74t82 -204q0 -84 -30.5 -170t-89.5 -145q-109 -109 -316 -109q-43 0 -111 7z" />
    <glyph glyph-name="E" unicode="E" horiz-adv-x="552" 
d="M50 4l127 691q178 1 385 6q-1 -11 -6 -35q-172 -1 -347 -5l-65 -344q191 0 313 2l-5 -34q-185 1 -313 0q-6 -30 -44 -248q183 -3 351 -4l-8 -35q-226 5 -388 6z" />
    <glyph glyph-name="F" unicode="F" horiz-adv-x="530" 
d="M50 3l126 691q199 3 379 6q-2 -14 -7 -34q-176 -1 -339 -4l-64 -342q184 0 307 2q-2 -16 -6 -36q-117 2 -307 0l-52 -287z" />
    <glyph glyph-name="G" unicode="G" horiz-adv-x="641" 
d="M301 -24q-108 0 -171.5 72t-63.5 200q0 102 38.5 213t102.5 175q82 82 176 82q89 0 143 -64t60 -155q-13 -2 -39 -8q-6 85 -50 140t-115 55q-73 0 -140 -67q-64 -64 -101 -170.5t-37 -204.5q0 -112 53.5 -173t147.5 -61q92 0 152 85.5t72 219.5q-66 2 -231 -1q2 9 5 34
q26 0 267 3q-7 -174 -81 -274.5t-188 -100.5z" />
    <glyph glyph-name="H" unicode="H" horiz-adv-x="621" 
d="M423 -21l55 285q-76 2 -351 -1l-44 -243q-19 3 -38 4l122 650q15 -2 35 -4l-69 -371q135 -4 351 -2l79 424q15 -2 38 -4l-141 -743q-19 3 -37 5z" />
    <glyph glyph-name="I" unicode="I" horiz-adv-x="243" 
d="M50 2l131 695q14 -2 37 -4l-131 -696q-15 3 -37 5z" />
    <glyph glyph-name="J" unicode="J" horiz-adv-x="535" 
d="M216 -22q-171 0 -171 179q0 59 19 135q13 -3 38 -4q-19 -75 -19 -129q0 -147 136 -147q72 0 115 53t68 187l86 454q15 -2 42 -3l-92 -459q-27 -141 -78.5 -203.5t-143.5 -62.5z" />
    <glyph glyph-name="K" unicode="K" horiz-adv-x="594" 
d="M467 -23l-195 371l-156 -153l-32 -178l-39 4l127 652l35 -6l-82 -421l465 467l29 -15l-320 -325l206 -387z" />
    <glyph glyph-name="L" unicode="L" horiz-adv-x="524" 
d="M50 4l127 687q11 -3 38 -5l-121 -648l345 -7l-8 -35z" />
    <glyph glyph-name="M" unicode="M" horiz-adv-x="842" 
d="M40 26l146 651q13 0 45 2q75 -324 138 -569l382 609q22 -3 51 -6l-115 -739l-39 6l111 687l-382 -608q-17 3 -31 4l-139 562l-131 -607q-17 4 -36 8z" />
    <glyph glyph-name="N" unicode="N" horiz-adv-x="642" 
d="M45 24l123 647q16 1 50 5l239 -663q52 271 127 708q13 -3 38 -6l-136 -734q-17 -1 -54 -6l-236 655q-55 -279 -113 -612q-15 3 -38 6z" />
    <glyph glyph-name="O" unicode="O" horiz-adv-x="667" 
d="M305 -25q-112 0 -176 78t-64 212q0 101 34 203t98 166q85 85 185 85q117 0 176 -85t59 -216q0 -102 -34.5 -201t-100.5 -166q-76 -76 -177 -76zM306 9q86 0 152 66q56 56 89 155.5t33 190.5q0 115 -51 190.5t-150 75.5q-80 0 -150 -70q-59 -59 -93.5 -158t-34.5 -195
q0 -119 55.5 -187t149.5 -68z" />
    <glyph glyph-name="P" unicode="P" horiz-adv-x="572" 
d="M45 15l124 673q57 5 94 5q161 0 235 -57t74 -143q0 -110 -90.5 -170.5t-236.5 -60.5q-61 0 -116 8l-47 -259q-13 2 -37 4zM201 657q-26 -132 -44.5 -234.5t-21.5 -117.5q56 -8 114 -8q129 0 207 50.5t78 147.5q0 73 -65 118.5t-206 45.5q-20 0 -62 -2z" />
    <glyph glyph-name="Q" unicode="Q" horiz-adv-x="667" 
d="M377 719q116 0 177.5 -84t61.5 -215q0 -95 -32 -197t-100 -170q-11 -11 -33 -29l91 -170l-37 -19l-85 170q-56 -30 -120 -30q-118 0 -176.5 83.5t-58.5 212.5q0 102 33.5 201.5t98.5 164.5q82 82 180 82zM377 687q-80 0 -152 -72q-58 -58 -90.5 -156t-32.5 -195
q0 -116 52 -185.5t150 -69.5q87 0 152 65q58 58 91 155t33 194q0 119 -55 191.5t-148 72.5z" />
    <glyph glyph-name="R" unicode="R" horiz-adv-x="588" 
d="M455 -28l-134 338q-31 -4 -74 -4q-56 0 -112 7q-39 -208 -53 -292q-18 3 -38 4l119 657q79 12 143 12q129 0 197.5 -46t68.5 -127t-56.5 -134.5t-157.5 -70.5l135 -333q-13 -3 -38 -11zM141 349q65 -9 120 -9q74 0 133.5 15.5t101.5 57t42 104.5q0 66 -60.5 105
t-172.5 39q-45 0 -109 -8z" />
    <glyph glyph-name="S" unicode="S" horiz-adv-x="573" 
d="M271 -19q-113 0 -177.5 63t-69.5 178q15 3 41 6q8 -114 61 -163.5t145 -49.5q71 0 124 42.5t53 117.5q0 49 -37.5 84t-128.5 72q-159 65 -159 185q0 86 60 142t156 56q94 0 147.5 -58.5t61.5 -163.5l-39 -6q-7 96 -51.5 145.5t-120.5 49.5q-75 0 -125.5 -45t-50.5 -117
q0 -98 146 -158q92 -38 135.5 -81.5t43.5 -104.5q0 -83 -61.5 -138.5t-153.5 -55.5z" />
    <glyph glyph-name="T" unicode="T" horiz-adv-x="531" 
d="M90 665q3 15 5 33q202 0 481 5q-3 -14 -6 -35q-88 1 -221 0l-127 -687q-17 3 -39 4l129 682q-60 0 -222 -2z" />
    <glyph glyph-name="U" unicode="U" horiz-adv-x="625" 
d="M276 -14q-94 0 -147.5 55t-53.5 165q0 45 11 106l69 359q19 -4 40 -6l-71 -360q-11 -60 -11 -101q0 -91 43.5 -136.5t124.5 -45.5q161 0 211 260l84 442q18 -3 44 -4l-89 -444q-30 -150 -92.5 -220t-162.5 -70z" />
    <glyph glyph-name="V" unicode="V" horiz-adv-x="568" 
d="M193 -22l-93 693l39 5l85 -668l360 700l34 -11l-372 -724z" />
    <glyph glyph-name="W" unicode="W" horiz-adv-x="841" 
d="M540 -15l-36.5 330l-24.5 221t-10 87l-287 -630l-48 6l-14 693l38 2q7 -473 12 -645l286 628l40 -2l72 -635l283 690l35 -5l-305 -745z" />
    <glyph glyph-name="X" unicode="X" horiz-adv-x="568" 
d="M21 14l-36 17l284 325l-145 313l36 12l134 -299l289 343l35 -15l-309 -359l174 -365l-37 -12l-161 350z" />
    <glyph glyph-name="Y" unicode="Y" horiz-adv-x="599" 
d="M219 -6q26 130 43 240l-134 447q13 2 35 8l124 -411l321 432q12 -6 35 -14l-343 -460q-22 -110 -44 -246q-14 3 -37 4z" />
    <glyph glyph-name="Z" unicode="Z" horiz-adv-x="557" 
d="M444 -2l-424 5l4 29l489 633l-379 -6l5 35l423 7l-2 -30l-489 -633l382 -3z" />
    <glyph glyph-name="bracketleft" unicode="[" horiz-adv-x="331" 
d="M196 -109q-68 3 -161 3l156 823q52 0 160 2q-2 -12 -5 -33q-43 0 -123 -2l-145 -753q43 -2 128 -2q-5 -13 -10 -38z" />
    <glyph glyph-name="backslash" unicode="\" horiz-adv-x="384" 
d="M294 -106q-14 -2 -35 -6l-144 838q13 2 35 6z" />
    <glyph glyph-name="bracketright" unicode="]" horiz-adv-x="329" 
d="M-20 -115q3 16 6 38q113 0 127 2q81 393 150 768q-54 2 -121 2l7 34q52 -2 160 -2l-165 -839q-76 -1 -164 -3z" />
    <glyph glyph-name="asciicircum" unicode="^" horiz-adv-x="467" 
d="M422 329l-36 -6l-79 343l-214 -351q-13 5 -38 10l243 385l33 -3z" />
    <glyph glyph-name="underscore" unicode="_" horiz-adv-x="488" 
d="M-40 -56q4 23 5 34q294 0 453 2q-4 -12 -8 -36q-153 5 -450 0z" />
    <glyph glyph-name="grave" unicode="`" horiz-adv-x="534" 
d="M357 557q-25 43 -96 142l39 25l87 -147z" />
    <glyph glyph-name="a" unicode="a" horiz-adv-x="518" 
d="M393 -11q-7 34 -7 86q0 31 3 59q-34 -66 -85.5 -105t-107.5 -39q-76 0 -120.5 60t-44.5 153q0 69 24.5 139.5t69.5 115.5q63 63 138 63q69 0 110 -51.5t52 -124.5l31 165q14 -2 37 -3q-16 -96 -59 -311q-11 -53 -11 -112q0 -44 8 -90zM267 489q-60 0 -112 -52
q-39 -39 -61.5 -102.5t-22.5 -129.5q0 -81 34.5 -132t92.5 -51q62 0 119 57q91 91 91 204q0 79 -39 142.5t-102 63.5z" />
    <glyph glyph-name="b" unicode="b" horiz-adv-x="566" 
d="M29 -18l134 694q17 -3 39 -6l-59 -302q33 67 86 107t102 40q79 0 124.5 -61t45.5 -153q0 -69 -26.5 -144.5t-72.5 -121.5q-57 -57 -135 -57q-66 0 -111.5 45.5t-58.5 125.5l-29 -173zM270 11q59 0 102 43q41 41 65.5 110.5t24.5 133.5q0 78 -35.5 131.5t-100.5 53.5
q-53 0 -112 -59q-91 -91 -91 -223q0 -86 41 -138t106 -52z" />
    <glyph glyph-name="c" unicode="c" horiz-adv-x="524" 
d="M229 -24q-87 0 -135.5 56.5t-48.5 152.5q0 74 26 144.5t74 118.5q67 67 152 67q76 0 114.5 -44t52.5 -129l-37 -9q-14 77 -43 113t-84 36q-73 0 -126 -53q-45 -45 -67 -110t-22 -130q0 -82 39 -131.5t109 -49.5q104 0 168 149q14 -6 35 -12q-34 -81 -83 -125t-124 -44z
" />
    <glyph glyph-name="d" unicode="d" horiz-adv-x="544" 
d="M403 -20q-15 3 -41 6q12 47 29 124q-35 -62 -84 -96.5t-101 -34.5q-77 0 -124 60t-47 154q0 150 95 253q67 70 142 70q66 0 109.5 -52t51.5 -124q40 201 65 346q15 -3 41 -4zM209 13q63 0 120 57q86 86 86 207q0 81 -38.5 143.5t-100.5 62.5t-114 -52q-39 -39 -64 -104.5
t-25 -132.5q0 -81 37.5 -131t98.5 -50z" />
    <glyph glyph-name="e" unicode="e" horiz-adv-x="524" 
d="M226 -23q-85 0 -133 54t-48 147q0 75 27.5 149.5t71.5 118.5q69 69 156 69q75 0 114.5 -45t39.5 -123q0 -33 -10 -81q-98 -4 -355 -18q-7 -35 -7 -70q0 -81 40 -125t109 -44q105 0 182 141q15 -11 32 -20q-86 -153 -219 -153zM296 483q-67 0 -122 -55q-53 -53 -78 -147
q10 1 49.5 3t111.5 6.5l156 9.5q5 32 5 54q0 129 -122 129z" />
    <glyph glyph-name="f" unicode="f" horiz-adv-x="345" 
d="M337 467q-28 0 -147 -1q-18 -88 -46.5 -247.5l-47.5 -274.5l-20 -116q-15 3 -36 5q75 437 113 633q-26 -1 -84 -1q3 13 6 33q31 -1 84 -1q19 93 71.5 145t153.5 53q0 -14 1 -30q-86 -4 -128.5 -45.5t-59.5 -122.5q11 0 147 2q-3 -11 -7 -32z" />
    <glyph glyph-name="g" unicode="g" horiz-adv-x="526" 
d="M206 20q-79 0 -124.5 56t-45.5 146q0 63 22.5 126.5t66.5 107.5q65 65 146 65q65 0 108.5 -49t53.5 -122q22 105 31 160q17 -2 37 -3q-41 -204 -96 -504q-21 -113 -78.5 -160t-149.5 -47q-60 0 -109.5 32t-77.5 86l34 21q24 -48 65.5 -77t89.5 -29q157 0 190 179
q3 19 7.5 44l10 53.5t7.5 41.5q-35 -57 -88 -92t-100 -35zM271 489q-63 0 -115 -52q-80 -80 -80 -217q0 -79 35.5 -123.5t96.5 -44.5q64 0 127 63q81 81 81 173q0 76 -40.5 138.5t-104.5 62.5z" />
    <glyph glyph-name="h" unicode="h" horiz-adv-x="522" 
d="M30 24l125 651q15 -2 40 -4q-38 -185 -67 -340q38 79 90 129t113 50q60 0 93 -37t33 -108q0 -30 -6 -66l-31.5 -173t-23.5 -116l-7 -34q-15 2 -38 4q22 94 60 303q8 45 8 78q0 115 -93 115q-70 0 -136.5 -93.5t-88.5 -200.5l-31 -163q-19 3 -40 5z" />
    <glyph glyph-name="i" unicode="i" horiz-adv-x="225" 
d="M40 2l94 500q17 -3 38 -4l-94 -500q-15 2 -38 4zM177 580q-18 0 -28 12t-10 31q0 45 39 45q37 0 37 -43q0 -21 -10.5 -33t-27.5 -12z" />
    <glyph glyph-name="j" unicode="j" horiz-adv-x="226" 
d="M-118 -210q-1 13 -2 35q69 4 102 29.5t48 94.5l105 556l37 -4q-44 -259 -105 -565q-15 -73 -56.5 -107.5t-128.5 -38.5zM178 580q-17 0 -28 12.5t-11 32.5q0 17 10.5 29.5t27.5 12.5t28 -12.5t11 -30.5q0 -19 -11.5 -31.5t-26.5 -12.5z" />
    <glyph glyph-name="k" unicode="k" horiz-adv-x="473" 
d="M349 -26q-95 217 -138 303l-113 -93l-30 -166l-38 6l124 652l39 -5q-70 -350 -86 -439l334 289l27 -19l-229 -202l148 -314z" />
    <glyph glyph-name="l" unicode="l" horiz-adv-x="213" 
d="M68 -2l-38 7l135 691l38 -5z" />
    <glyph glyph-name="m" unicode="m" horiz-adv-x="820" 
d="M30 21l86 460q19 -3 42 -6q-16 -68 -32 -147q37 81 88 132t105 51q51 0 83.5 -38t32.5 -104q0 -17 -2 -29q33 70 84 111.5t104 41.5q65 0 99.5 -38.5t34.5 -109.5q0 -29 -6 -62l-60 -309q-12 3 -38 5q37 162 63 307q5 30 5 57q0 119 -99 119q-72 0 -128.5 -80t-78.5 -189
l-29 -157q-16 3 -40 5q25 106 54 271q4 23 4 48q0 53 -22 85.5t-66 32.5q-61 0 -128.5 -94.5t-90.5 -215.5l-26 -151q-16 2 -39 4z" />
    <glyph glyph-name="n" unicode="n" horiz-adv-x="524" 
d="M353 -24l59 307q9 45 9 80q0 112 -97 112q-49 0 -97.5 -50t-80.5 -117t-46 -133l-30 -156q-17 3 -40 5l90 460q15 -2 39 -4l-31 -150q44 90 97.5 134.5t104.5 44.5q64 0 96.5 -39t32.5 -107q0 -29 -6 -62l-62 -329z" />
    <glyph glyph-name="o" unicode="o" horiz-adv-x="534" 
d="M229 -23q-86 0 -135 58.5t-49 154.5q0 69 25.5 142.5t71.5 119.5q63 63 143 63q87 0 135 -61t48 -155q0 -66 -25.5 -141.5t-71.5 -121.5q-59 -59 -142 -59zM231 9q64 0 111 47q39 39 64 110t25 135q0 79 -38.5 130.5t-108.5 51.5q-64 0 -113 -49q-41 -41 -65 -110
t-24 -134q0 -83 39.5 -132t109.5 -49z" />
    <glyph glyph-name="p" unicode="p" horiz-adv-x="560" 
d="M-15 -214l137 709l40 -4l-26 -114q33 62 85 101t107 39q80 0 123 -65t43 -159q0 -71 -26 -143t-71 -117q-56 -56 -134 -56q-64 0 -109 43t-62 124l-66 -362zM263 10q61 0 107 44q41 39 63 105.5t22 132.5q0 81 -35 137t-96 56q-60 0 -123 -63q-88 -88 -88 -210
q0 -84 43 -143t107 -59z" />
    <glyph glyph-name="q" unicode="q" horiz-adv-x="542" 
d="M329 -210q47 208 65 314q-29 -56 -80 -91.5t-103 -35.5q-78 0 -124 60.5t-46 154.5q0 71 27.5 141.5t73.5 116.5q69 69 141 69q66 0 108 -49t53 -118l29 164l39 -5l-141 -725zM213 11q64 0 120 56q89 89 89 226q0 81 -36 136.5t-102 55.5q-57 0 -112 -55
q-45 -45 -69.5 -110.5t-24.5 -127.5q0 -80 38 -130.5t97 -50.5z" />
    <glyph glyph-name="r" unicode="r" horiz-adv-x="342" 
d="M30 4l92 478q16 -3 36 -5q-20 -88 -37 -174q34 78 91 138.5t124 74.5l11 -32q-85 -23 -153 -108t-90 -191q-11 -51 -19.5 -97.5t-11.5 -67.5l-3 -21z" />
    <glyph glyph-name="s" unicode="s" horiz-adv-x="464" 
d="M195 -21q-78 0 -129.5 44t-55.5 124l39 6q5 -67 43.5 -104.5t107.5 -37.5q60 0 99.5 30.5t39.5 82.5q0 33 -28 58.5t-97 49.5q-135 46 -135 140q0 60 45 101.5t119 41.5q73 0 119 -45t58 -117l-34 -10q-12 64 -47.5 102t-95.5 38q-58 0 -91 -30t-33 -79q0 -35 26.5 -62.5
t91.5 -50.5q76 -26 108 -58t32 -77q0 -68 -52.5 -107.5t-129.5 -39.5z" />
    <glyph glyph-name="t" unicode="t" horiz-adv-x="401" 
d="M329 97q-83 -100 -165 -100q-45 0 -69 31t-24 86q0 26 4 50q13 78 58 301h-93l5 33q68 -2 94 -2l29 140l38 8l-31 -149h186l-8 -32q-176 2 -184 2q-43 -218 -56 -297q-4 -27 -4 -53q0 -83 58 -83q35 0 64.5 19t70.5 68z" />
    <glyph glyph-name="u" unicode="u" horiz-adv-x="513" 
d="M197 -4q-67 0 -104.5 43t-37.5 123q0 33 8 79l45 241q15 -3 38 -6l-48 -242q-8 -42 -8 -72q0 -64 29 -97.5t81 -33.5q69 0 124 69.5t83 199.5l45 229q13 -3 36 -6q-46 -221 -105 -537q-17 3 -37 5q17 67 35 159q-73 -154 -184 -154z" />
    <glyph glyph-name="v" unicode="v" horiz-adv-x="457" 
d="M183 2l-36 4l-97 479l39 7q40 -216 86 -438l254 463l38 -8z" />
    <glyph glyph-name="w" unicode="w" horiz-adv-x="703" 
d="M428 -10q-35 328 -54 476l-226 -463l-43 3l-40 482l37 3l34 -435l215 445l56 -4q31 -331 50 -465l233 495l33 -10l-249 -531z" />
    <glyph glyph-name="x" unicode="x" horiz-adv-x="470" 
d="M-15 13l216 235l-117 235l36 16l108 -223l232 249l35 -21q-160 -161 -250 -261l135 -258l-38 -17l-123 248l-193 -219z" />
    <glyph glyph-name="y" unicode="y" horiz-adv-x="472" 
d="M74 -236l-34 16l119 216l-94 487l41 8q50 -296 81 -450l258 484l37 -10z" />
    <glyph glyph-name="z" unicode="z" horiz-adv-x="463" 
d="M357 -3l-342 8l5 35l362 422l-282 -3l5 36l328 3l-2 -33l-366 -426l301 -5z" />
    <glyph glyph-name="braceleft" unicode="{" horiz-adv-x="349" 
d="M223 -109q-126 36 -126 139q0 34 19 103t19 96q0 74 -100 71l10 41q69 0 97.5 20.5t36.5 73.5q11 73 19 141q9 69 50.5 106t126.5 41l4 -31q-77 -6 -109 -34.5t-38 -84.5q-10 -87 -17 -135q-9 -58 -32.5 -86.5t-74.5 -34.5q62 -18 62 -84l-38 -200q0 -40 24 -67.5
t81 -44.5z" />
    <glyph glyph-name="bar" unicode="|" horiz-adv-x="302" 
d="M60 -112l161 847q14 -1 36 -1l-160 -845q-18 0 -37 -1z" />
    <glyph glyph-name="braceright" unicode="}" horiz-adv-x="352" 
d="M-29 -116q-2 15 -6 34q78 6 114 36.5t44 87.5l10 75l11 83q8 55 33 85.5t77 39.5q-68 18 -68 80q0 29 20 97t20 91q0 40 -25.5 68.5t-77.5 36.5q4 13 10 29q64 -10 96 -46t32 -86q0 -26 -20 -90.5t-20 -95.5q0 -34 23.5 -49.5t77.5 -16.5q-6 -29 -6 -41q-122 7 -138 -109
q-12 -84 -20 -157q-9 -72 -61 -111t-126 -41z" />
    <glyph glyph-name="asciitilde" unicode="~" horiz-adv-x="478" 
d="M124 560q-14 4 -34 9q23 75 53 109.5t77 34.5q28 0 52 -19.5t39 -42.5t36.5 -42.5t44.5 -19.5q27 0 45.5 23t39.5 90q12 -4 31 -8q-23 -79 -50 -108t-66 -29q-32 0 -57.5 19.5t-39.5 42.5t-33.5 42.5t-41.5 19.5q-33 0 -54 -27t-42 -94z" />
    <glyph glyph-name="exclamdown" unicode="&#xa1;" horiz-adv-x="314" 
d="M190 386l-99 -543q-13 2 -43 4l105 543q16 -2 37 -4zM193 572q22 0 36.5 -15.5t14.5 -44.5q0 -25 -13.5 -41.5t-37.5 -16.5t-36.5 17t-12.5 43q0 27 13.5 42.5t35.5 15.5z" />
    <glyph glyph-name="cent" unicode="&#xa2;" horiz-adv-x="564" 
d="M257 32h-9l-19 -103l-38 4q18 92 21 103q-73 16 -112.5 79.5t-39.5 159.5q0 86 28 162t81 129q71 71 160 74l21 114l38 -5l-23 -111q135 -17 154 -193l-37 -8q-9 84 -43.5 127t-103.5 43q-77 0 -143 -66q-46 -46 -70.5 -118t-24.5 -145q0 -96 44 -154t120 -58
q63 0 110.5 36.5t82.5 128.5q13 -4 32 -11q-30 -97 -91.5 -142.5t-137.5 -45.5z" />
    <glyph glyph-name="sterling" unicode="&#xa3;" horiz-adv-x="553" 
d="M140 290h-76l5 33l60 -1q-24 72 -24 120q0 102 67 169q63 63 151 63q96 0 148.5 -65.5t61.5 -185.5q-17 -2 -39 -5q-20 220 -169 220q-73 0 -122 -49q-59 -59 -59 -153q0 -44 24 -114l212 1l-6 -35q-188 2 -195 2q11 -38 11 -65q0 -56 -33.5 -106t-83.5 -85q5 0 48 -0.5
t129.5 -1t197.5 -0.5q-4 -15 -8 -37q-50 1 -419 5q0 16 -1 40q133 79 133 182q0 23 -13 68z" />
    <glyph glyph-name="yen" unicode="&#xa5;" horiz-adv-x="592" 
d="M76 265q1 8 5 33q46 -1 132 0l-94 347l37 9q60 -243 112 -432l327 469l37 -13l-269 -377q56 0 136 4q-3 -13 -7 -33q-55 -1 -152 -4l-58 -83l-5 -24l196 5q-2 -14 -5 -32q-66 0 -197 -2q-18 -100 -26 -149q-10 2 -36 5q10 49 26 144l-190 -4q2 9 6 32q61 -1 189 1l4 21
q-2 3 -23 85q-46 0 -145 -2z" />
    <glyph glyph-name="section" unicode="&#xa7;" horiz-adv-x="565" 
d="M218 -193q-102 0 -160 58t-63 161l36 3q5 -93 55 -141t134 -48q78 0 130.5 37.5t52.5 105.5q0 41 -43 71t-162 66q-140 42 -140 144q0 110 138 151q-32 20 -51.5 53.5t-19.5 74.5q0 74 60.5 123.5t139.5 49.5q96 0 149 -59.5t61 -149.5l-36 -6q-10 82 -52 131.5
t-118 49.5q-69 0 -118.5 -39.5t-49.5 -99.5q0 -97 166 -145q97 -27 134.5 -62t37.5 -81q0 -97 -131 -160q73 -40 73 -113q0 -77 -65.5 -126t-157.5 -49zM217 151q28 -9 122 -43q68 37 96.5 70.5t28.5 75.5q0 37 -33 62.5t-124 53.5l-84 29q-65 -22 -97.5 -53.5t-32.5 -80.5
q0 -37 28.5 -65t95.5 -49z" />
    <glyph glyph-name="dieresis" unicode="&#xa8;" horiz-adv-x="534" 
d="M216 588q-21 0 -34 13t-13 33q0 19 14 31t33 12q20 0 34 -12.5t14 -31.5q0 -22 -13.5 -33.5t-34.5 -11.5zM397 589q-19 0 -32 12.5t-13 34.5q0 18 13 30t34 12t32 -12.5t11 -31.5q0 -21 -13 -33t-32 -12z" />
    <glyph glyph-name="copyright" unicode="&#xa9;" horiz-adv-x="756" 
d="M381 118q-78 0 -126 64.5t-48 156.5t45 151.5t127 59.5q65 0 102.5 -37.5t45.5 -99.5l-36 -3q-6 49 -34.5 78t-79.5 29q-64 0 -98.5 -50.5t-34.5 -127.5q0 -80 39.5 -134.5t97.5 -54.5q55 0 86 31.5t39 104.5l35 -4q-19 -164 -160 -164zM375 -24q-140 0 -225 94.5
t-85 259.5q0 152 89.5 251t227.5 99q96 0 168 -52.5t106.5 -131.5t34.5 -169q0 -172 -84 -261.5t-232 -89.5zM380 5q127 0 203 82t76 238q0 136 -76.5 231t-204.5 95t-204.5 -95t-76.5 -232q0 -139 77.5 -229t205.5 -90z" />
    <glyph glyph-name="ordfeminine" unicode="&#xaa;" horiz-adv-x="436" 
d="M216 278q-62 0 -99.5 48.5t-37.5 125.5q0 56 22 114.5t58 94.5q50 50 106 50q51 0 85 -40t42 -101l23 125l31 -4l-55 -271q-6 -25 -6 -55q0 -39 8 -71q-13 -1 -31 -3q-7 40 -7 70q0 13 2 33q-24 -55 -63.5 -85.5t-77.5 -30.5zM217 310q42 0 83 41q33 33 54 82.5t21 90.5
q0 57 -29 105.5t-76 48.5q-48 0 -86 -38q-33 -34 -51 -89.5t-18 -103.5q0 -63 28.5 -100t73.5 -37z" />
    <glyph glyph-name="guillemotleft" unicode="&#xab;" horiz-adv-x="390" 
d="M146 107q-38 100 -96 234l198 224q7 -5 31 -13l-190 -217l91 -213zM280 97l-99 227l184 211q7 -6 30 -16l-175 -202l94 -206z" />
    <glyph glyph-name="registered" unicode="&#xae;" horiz-adv-x="499" 
d="M284 269q-98 0 -151 61t-53 161q0 92 56 155t142 63q97 0 149 -65.5t52 -156.5q0 -99 -54 -158.5t-141 -59.5zM286 294q71 0 117.5 50.5t46.5 136.5q0 93 -43.5 147.5t-132.5 54.5q-77 0 -121 -56t-44 -139q0 -88 46.5 -141t130.5 -53zM339 368l-47 98q-30 -3 -58 0
q0 -72 1 -96q-13 1 -31 0q3 75 3 240q35 6 62 6q105 0 105 -77q0 -50 -54 -67l51 -98q-12 -1 -32 -6zM235 492q20 -3 37 -3q37 0 56 13.5t19 35.5q0 50 -76 51q-9 0 -37 -2z" />
    <glyph glyph-name="macron" unicode="&#xaf;" horiz-adv-x="534" 
d="M196 616q4 15 7 40q60 -1 248 2q-5 -14 -10 -40q-86 1 -245 -2z" />
    <glyph glyph-name="degree" unicode="&#xb0;" horiz-adv-x="355" 
d="M229 444q-53 0 -91 37t-38 101q0 53 34.5 91.5t91.5 38.5q60 0 94.5 -37.5t34.5 -92.5q0 -60 -34 -99t-92 -39zM229 475q39 0 64.5 28t25.5 78q0 39 -24.5 70t-66.5 31q-44 0 -68.5 -30t-24.5 -71q0 -47 27 -76.5t67 -29.5z" />
    <glyph glyph-name="twosuperior" unicode="&#xb2;" horiz-adv-x="346" 
d="M304 298l-264 4l5 30q142 76 207 137t65 130q0 37 -23 61t-59 24q-48 0 -76.5 -28.5t-46.5 -90.5q-12 4 -30 9q13 61 52.5 100.5t96.5 39.5q59 0 89 -34.5t30 -81.5q0 -69 -66 -136.5t-184 -127.5l212 -3z" />
    <glyph glyph-name="threesuperior" unicode="&#xb3;" horiz-adv-x="373" 
d="M201 286q-69 0 -109.5 39t-41.5 103q13 1 35 5q1 -56 31.5 -87t82.5 -31q46 0 80 27t34 70q0 78 -139 73q3 13 7 34q71 -4 115 19.5t44 74.5q0 32 -24.5 54t-70.5 22q-37 0 -68 -26.5t-48 -70.5l-32 7q19 54 58.5 86t89.5 32q59 0 93 -29t34 -75q0 -48 -31 -77t-85 -34
q44 -7 67 -33.5t23 -61.5q0 -53 -44 -87t-101 -34z" />
    <glyph glyph-name="acute" unicode="&#xb4;" horiz-adv-x="534" 
d="M312 557l-25 24l80 81.5l43 45.5l9 12l35 -31z" />
    <glyph glyph-name="paragraph" unicode="&#xb6;" horiz-adv-x="584" 
d="M75 351q0 160 103 255t296 95q45 0 85 -4q-73 -360 -166 -890q-12 3 -39 6l163 852q-13 1 -25 1q-44 0 -76 -4l-154 -834q-29 4 -38 4l50 254q-94 22 -146.5 93.5t-52.5 171.5z" />
    <glyph glyph-name="periodcentered" unicode="&#xb7;" horiz-adv-x="278" 
d="M143 280q-22 0 -35.5 16t-13.5 41t14 41.5t36 16.5q25 0 37 -17t12 -41q0 -26 -14.5 -41.5t-35.5 -15.5z" />
    <glyph glyph-name="cedilla" unicode="&#xb8;" horiz-adv-x="534" 
d="M216 -7l31 1l-20 -74q40 -1 62 -18t22 -41q0 -34 -32.5 -53t-77.5 -19q-56 0 -95 26q7 11 17 31q37 -25 79 -25q30 0 51 10.5t21 27.5q0 32 -65 32q-7 0 -29 -2q15 40 36 104z" />
    <glyph glyph-name="onesuperior" unicode="&#xb9;" horiz-adv-x="254" 
d="M136 301l70 362l-104 -47l-12 27l130 62l24 -5l-75 -403z" />
    <glyph glyph-name="ordmasculine" unicode="&#xba;" horiz-adv-x="428" 
d="M232 278q-73 0 -112 47t-39 126q0 61 20.5 118t57.5 94q48 48 106 48q73 0 110 -47.5t37 -122.5q0 -61 -21 -122.5t-58 -98.5q-42 -42 -101 -42zM229 310q44 0 79 35q30 30 49.5 86t19.5 109q0 61 -29 99.5t-81 38.5q-43 0 -83 -40q-32 -32 -49.5 -83t-17.5 -100
q0 -65 30 -105t82 -40z" />
    <glyph glyph-name="guillemotright" unicode="&#xbb;" horiz-adv-x="389" 
d="M28 112q-12 9 -28 18l188 212q-33 93 -83 216l31 14l90 -239zM165 107q-10 8 -27 18l178 202l-86 210q16 8 32 17l92 -235z" />
    <glyph glyph-name="onequarter" unicode="&#xbc;" horiz-adv-x="803" 
d="M136 301l70 362l-104 -47l-12 27l130 62l24 -5l-75 -403zM121 -22l-32 13l565 720l35 -13zM630 -10q2 11 9 44.5l11 51.5l-231 -3q2 10 5 23l287 296l32 -3l-56 -284l44 1q-4 -18 -6 -30h-44l-19 -99zM656 115l47 236l-233 -238q30 0 186 2z" />
    <glyph glyph-name="onehalf" unicode="&#xbd;" horiz-adv-x="815" 
d="M136 301l70 362l-104 -47l-12 27l130 62l24 -5l-75 -403zM121 -22l-32 13l565 720l35 -13zM713 -14l-264 4l5 30q142 76 207 137t65 130q0 37 -23 61t-59 24q-48 0 -76.5 -28.5t-46.5 -90.5q-12 4 -30 9q13 61 52.5 100.5t96.5 39.5q59 0 89 -34.5t30 -81.5
q0 -69 -66 -136.5t-184 -127.5l212 -3z" />
    <glyph glyph-name="threequarters" unicode="&#xbe;" horiz-adv-x="887" 
d="M201 286q-69 0 -109.5 39t-41.5 103q13 1 35 5q1 -56 31.5 -87t82.5 -31q46 0 80 27t34 70q0 78 -139 73q3 13 7 34q71 -4 115 19.5t44 74.5q0 32 -24.5 54t-70.5 22q-37 0 -68 -26.5t-48 -70.5l-32 7q19 54 58.5 86t89.5 32q59 0 93 -29t34 -75q0 -48 -31 -77t-85 -34
q44 -7 67 -33.5t23 -61.5q0 -53 -44 -87t-101 -34zM205 -22l-32 13l565 720l35 -13zM714 -10q2 11 9 44.5l11 51.5l-231 -3q2 10 5 23l287 296l32 -3l-56 -284l44 1q-4 -18 -6 -30h-44l-19 -99zM740 115l47 236l-233 -238q30 0 186 2z" />
    <glyph glyph-name="questiondown" unicode="&#xbf;" horiz-adv-x="562" 
d="M323 565q22 0 36 -16.5t14 -45.5q0 -24 -13.5 -39.5t-36.5 -15.5q-24 0 -37 16.5t-13 42.5q0 28 14.5 43t35.5 15zM316 378l-30 -165q-19 1 -29 1q-105 0 -159 -54q-61 -61 -61 -144q0 -63 44 -105.5t129 -42.5q82 0 140.5 52.5t77.5 160.5q14 -4 35 -7
q-17 -116 -85.5 -177t-162.5 -61q-104 0 -159 52.5t-55 131.5q0 91 69 160q31 31 84 48.5t101 17.5l25 134z" />
    <glyph glyph-name="Agrave" unicode="&#xc0;" horiz-adv-x="558" 
d="M-30 27l357 680l53 -5l103 -722q-15 -2 -38 -6l-28 208q-87 3 -323 3l-86 -169q-13 5 -38 11zM349 677l-237 -457q12 0 115 -0.5t185 -0.5zM364 752q-25 43 -96 142l39 25l87 -147z" />
    <glyph glyph-name="Aacute" unicode="&#xc1;" horiz-adv-x="558" 
d="M-30 27l357 680l53 -5l103 -722q-15 -2 -38 -6l-28 208q-87 3 -323 3l-86 -169q-13 5 -38 11zM349 677l-237 -457q12 0 115 -0.5t185 -0.5zM353 752l-25 24l80 81.5t42 46.5l10 11l35 -31z" />
    <glyph glyph-name="Acircumflex" unicode="&#xc2;" horiz-adv-x="558" 
d="M-30 27l357 680l53 -5l103 -722q-15 -2 -38 -6l-28 208q-87 3 -323 3l-86 -169q-13 5 -38 11zM349 677l-237 -457q12 0 115 -0.5t185 -0.5zM252 748q-10 13 -23 28l152 148q2 -1 35 -1l98 -147l-29 -22q-41 66 -91 134z" />
    <glyph glyph-name="Atilde" unicode="&#xc3;" horiz-adv-x="558" 
d="M-30 27l357 680l53 -5l103 -722q-15 -2 -38 -6l-28 208q-87 3 -323 3l-86 -169q-13 5 -38 11zM349 677l-237 -457q12 0 115 -0.5t185 -0.5zM243 770q-19 4 -39 5q9 62 36 94.5t67 32.5q24 0 44.5 -15t33 -33.5t29 -33.5t32.5 -15q45 0 59 98q7 -2 34 -3
q-14 -129 -93 -129q-24 0 -44.5 15t-32.5 33.5t-28.5 33.5t-32.5 15q-28 0 -42.5 -24t-22.5 -74z" />
    <glyph glyph-name="Adieresis" unicode="&#xc4;" horiz-adv-x="558" 
d="M-30 27l357 680l53 -5l103 -722q-15 -2 -38 -6l-28 208q-87 3 -323 3l-86 -169q-13 5 -38 11zM349 677l-237 -457q12 0 115 -0.5t185 -0.5zM281 783q-21 0 -34 13t-13 33q0 19 14 31t33 12q20 0 34 -12.5t14 -31.5q0 -22 -13.5 -33.5t-34.5 -11.5zM462 784
q-19 0 -32 12.5t-13 34.5q0 18 13 30t34 12t32 -12.5t11 -31.5q0 -21 -13 -33t-32 -12z" />
    <glyph glyph-name="Aring" unicode="&#xc5;" horiz-adv-x="558" 
d="M-30 27l357 680l53 -5l103 -722q-15 -2 -38 -6l-28 208q-87 3 -323 3l-86 -169q-13 5 -38 11zM349 677l-237 -457q12 0 115 -0.5t185 -0.5zM374 755q-46 0 -74 27.5t-28 71.5q0 43 28 71t75 28q53 0 78.5 -31t25.5 -68q0 -45 -30 -72t-75 -27zM376 785q30 0 48.5 18.5
t18.5 50.5q0 28 -17 48.5t-50 20.5q-68 0 -68 -68q0 -31 17.5 -50.5t50.5 -19.5z" />
    <glyph glyph-name="AE" unicode="&#xc6;" horiz-adv-x="827" 
d="M728 290q-11 0 -33 0.5t-98 1.5t-159 -1l40 -266q83 -1 241 5q-3 -14 -6 -34q-72 1 -270 -6l-24 192q-157 4 -324 3l-87 -169l-38 11l357 677l510 -3q-4 -14 -8 -36q-85 4 -445 5l50 -347q206 0 299 1q-3 -12 -5 -34zM349 678l-236 -458q144 -3 301 -1q-22 173 -65 459z
" />
    <glyph glyph-name="Ccedilla" unicode="&#xc7;" horiz-adv-x="632" 
d="M300 -23l-16 -60q40 -1 62 -18t22 -41q0 -34 -32.5 -53t-77.5 -19q-56 0 -95 26q7 11 17 31q38 -25 79 -25q29 0 50.5 10.5t21.5 27.5q0 32 -65 32q-7 0 -29 -2l32 93q-99 10 -151.5 86.5t-52.5 195.5q0 98 35 204.5t100 171.5q81 81 179 81q180 0 213 -235l-38 -5
q-16 103 -58.5 154t-116.5 51q-82 0 -152 -70q-58 -58 -90.5 -154.5t-32.5 -194.5q0 -119 52 -186.5t144 -67.5q75 0 134 56.5t88 175.5l38 -11q-27 -118 -95.5 -186t-164.5 -68z" />
    <glyph glyph-name="Egrave" unicode="&#xc8;" horiz-adv-x="552" 
d="M50 4l127 691q178 1 385 6q-1 -11 -6 -35q-172 -1 -347 -5l-65 -344q191 0 313 2l-5 -34q-185 1 -313 0q-6 -30 -44 -248q183 -3 351 -4l-8 -35q-226 5 -388 6zM381 752q-25 43 -96 142l39 25l87 -147z" />
    <glyph glyph-name="Eacute" unicode="&#xc9;" horiz-adv-x="552" 
d="M50 4l127 691q178 1 385 6q-1 -11 -6 -35q-172 -1 -347 -5l-65 -344q191 0 313 2l-5 -34q-185 1 -313 0q-6 -30 -44 -248q183 -3 351 -4l-8 -35q-226 5 -388 6zM370 752l-25 24l80 81.5t43 46.5l9 11l35 -31z" />
    <glyph glyph-name="Ecircumflex" unicode="&#xca;" horiz-adv-x="552" 
d="M50 4l127 691q178 1 385 6q-1 -11 -6 -35q-172 -1 -347 -5l-65 -344q191 0 313 2l-5 -34q-185 1 -313 0q-6 -30 -44 -248q183 -3 351 -4l-8 -35q-226 5 -388 6zM270 748q-10 13 -23 28l152 148q2 -1 35 -1l98 -147l-29 -22q-41 66 -91 134z" />
    <glyph glyph-name="Edieresis" unicode="&#xcb;" horiz-adv-x="552" 
d="M50 4l127 691q178 1 385 6q-1 -11 -6 -35q-172 -1 -347 -5l-65 -344q191 0 313 2l-5 -34q-185 1 -313 0q-6 -30 -44 -248q183 -3 351 -4l-8 -35q-226 5 -388 6zM298 783q-21 0 -34 13t-13 33q0 19 14 31t33 12q20 0 34 -12.5t14 -31.5q0 -22 -13.5 -33.5t-34.5 -11.5z
M479 784q-19 0 -32 12.5t-13 34.5q0 18 13 30t34 12t32 -12.5t11 -31.5q0 -21 -13 -33t-32 -12z" />
    <glyph glyph-name="Igrave" unicode="&#xcc;" horiz-adv-x="243" 
d="M50 2l131 695q14 -2 37 -4l-131 -696q-15 3 -37 5zM222 752q-25 43 -96 142l39 25l87 -147z" />
    <glyph glyph-name="Iacute" unicode="&#xcd;" horiz-adv-x="243" 
d="M50 2l131 695q14 -2 37 -4l-131 -696q-15 3 -37 5zM210 752l-25 24l80 81.5t43 46.5l9 11l35 -31z" />
    <glyph glyph-name="Icircumflex" unicode="&#xce;" horiz-adv-x="243" 
d="M50 2l131 695q14 -2 37 -4l-131 -696q-15 3 -37 5zM110 748q-10 13 -23 28l152 148q2 -1 35 -1l98 -147l-29 -22q-41 66 -91 134z" />
    <glyph glyph-name="Idieresis" unicode="&#xcf;" horiz-adv-x="243" 
d="M50 2l131 695q14 -2 37 -4l-131 -696q-15 3 -37 5zM138 783q-21 0 -34 13t-13 33q0 19 14 31t33 12q20 0 34 -12.5t14 -31.5q0 -22 -13.5 -33.5t-34.5 -11.5zM319 784q-19 0 -32 12.5t-13 34.5q0 18 13 30t34 12t32 -12.5t11 -31.5q0 -21 -13 -33t-32 -12z" />
    <glyph glyph-name="Eth" unicode="&#xd0;" horiz-adv-x="629" 
d="M46 4l63 323q-53 0 -84 1q3 10 8 33q22 -1 82 -2l63 331q56 9 105 9q146 0 228 -74t82 -204q0 -84 -30.5 -170t-89.5 -145q-109 -109 -316 -109q-43 0 -111 7zM94 37q35 -4 76 -4q181 0 279 98q49 49 78.5 127t29.5 158q0 113 -68 181t-204 68q-31 0 -76 -5
q-21 -104 -57 -302h183q-2 -13 -6 -35l-183 3z" />
    <glyph glyph-name="Ntilde" unicode="&#xd1;" horiz-adv-x="642" 
d="M45 24l123 647q16 1 50 5l239 -663q52 271 127 708q13 -3 38 -6l-136 -734q-17 -1 -54 -6l-236 655q-55 -279 -113 -612q-15 3 -38 6zM290 770q-19 4 -39 5q9 62 36 94.5t67 32.5q24 0 44.5 -15t33 -33.5t29 -33.5t32.5 -15q45 0 59 98q7 -2 34 -3q-14 -129 -93 -129
q-24 0 -44.5 15t-32.5 33.5t-28.5 33.5t-32.5 15q-28 0 -42.5 -24t-22.5 -74z" />
    <glyph glyph-name="Ograve" unicode="&#xd2;" horiz-adv-x="667" 
d="M305 -25q-112 0 -176 78t-64 212q0 101 34 203t98 166q85 85 185 85q117 0 176 -85t59 -216q0 -102 -34.5 -201t-100.5 -166q-76 -76 -177 -76zM306 9q86 0 152 66q56 56 89 155.5t33 190.5q0 115 -51 190.5t-150 75.5q-80 0 -150 -70q-59 -59 -93.5 -158t-34.5 -195
q0 -119 55.5 -187t149.5 -68zM412 752q-25 43 -96 142l39 25l87 -147z" />
    <glyph glyph-name="Oacute" unicode="&#xd3;" horiz-adv-x="667" 
d="M305 -25q-112 0 -176 78t-64 212q0 101 34 203t98 166q85 85 185 85q117 0 176 -85t59 -216q0 -102 -34.5 -201t-100.5 -166q-76 -76 -177 -76zM306 9q86 0 152 66q56 56 89 155.5t33 190.5q0 115 -51 190.5t-150 75.5q-80 0 -150 -70q-59 -59 -93.5 -158t-34.5 -195
q0 -119 55.5 -187t149.5 -68zM400 752l-25 24l80 81.5t43 46.5l9 11l35 -31z" />
    <glyph glyph-name="Ocircumflex" unicode="&#xd4;" horiz-adv-x="667" 
d="M305 -25q-112 0 -176 78t-64 212q0 101 34 203t98 166q85 85 185 85q117 0 176 -85t59 -216q0 -102 -34.5 -201t-100.5 -166q-76 -76 -177 -76zM306 9q86 0 152 66q56 56 89 155.5t33 190.5q0 115 -51 190.5t-150 75.5q-80 0 -150 -70q-59 -59 -93.5 -158t-34.5 -195
q0 -119 55.5 -187t149.5 -68zM289 748q-10 13 -23 28l152 148q2 -1 35 -1l98 -147l-29 -22q-41 66 -91 134z" />
    <glyph glyph-name="Otilde" unicode="&#xd5;" horiz-adv-x="667" 
d="M305 -25q-112 0 -176 78t-64 212q0 101 34 203t98 166q85 85 185 85q117 0 176 -85t59 -216q0 -102 -34.5 -201t-100.5 -166q-76 -76 -177 -76zM306 9q86 0 152 66q56 56 89 155.5t33 190.5q0 115 -51 190.5t-150 75.5q-80 0 -150 -70q-59 -59 -93.5 -158t-34.5 -195
q0 -119 55.5 -187t149.5 -68zM291 770q-19 4 -39 5q9 62 36 94.5t67 32.5q24 0 44.5 -15t33 -33.5t29 -33.5t32.5 -15q45 0 59 98q7 -2 34 -3q-14 -129 -93 -129q-24 0 -44.5 15t-32.5 33.5t-28.5 33.5t-32.5 15q-28 0 -42.5 -24t-22.5 -74z" />
    <glyph glyph-name="Odieresis" unicode="&#xd6;" horiz-adv-x="667" 
d="M305 -25q-112 0 -176 78t-64 212q0 101 34 203t98 166q85 85 185 85q117 0 176 -85t59 -216q0 -102 -34.5 -201t-100.5 -166q-76 -76 -177 -76zM306 9q86 0 152 66q56 56 89 155.5t33 190.5q0 115 -51 190.5t-150 75.5q-80 0 -150 -70q-59 -59 -93.5 -158t-34.5 -195
q0 -119 55.5 -187t149.5 -68zM328 783q-21 0 -34 13t-13 33q0 19 14 31t33 12q20 0 34 -12.5t14 -31.5q0 -22 -13.5 -33.5t-34.5 -11.5zM509 784q-19 0 -32 12.5t-13 34.5q0 18 13 30t34 12t32 -12.5t11 -31.5q0 -21 -13 -33t-32 -12z" />
    <glyph glyph-name="multiply" unicode="&#xd7;" horiz-adv-x="471" 
d="M236 309l-160 -176l-26 22l164 178l-154 168l25 24l150 -169l161 179q11 -13 25 -25l-164 -178l158 -171l-25 -22z" />
    <glyph glyph-name="Oslash" unicode="&#xd8;" horiz-adv-x="667" 
d="M305 -25q-94 0 -155 56l-75 -111l-29 18l82 117q-63 77 -63 210q0 101 34 203t98 166q85 85 185 85q96 0 157 -63l71 106q10 -7 30 -19l-79 -113q56 -81 56 -212q0 -102 -34.5 -201t-100.5 -166q-76 -76 -177 -76zM149 86l369 539q-52 62 -139 62q-80 0 -150 -70
q-59 -59 -93.5 -158t-34.5 -195q0 -111 48 -178zM306 9q86 0 152 66q56 56 89 155.5t33 190.5q0 106 -42 176l-368 -536q54 -52 136 -52z" />
    <glyph glyph-name="Ugrave" unicode="&#xd9;" horiz-adv-x="625" 
d="M276 -14q-94 0 -147.5 55t-53.5 165q0 45 11 106l69 359q19 -4 40 -6l-71 -360q-11 -60 -11 -101q0 -91 43.5 -136.5t124.5 -45.5q161 0 211 260l84 442q18 -3 44 -4l-89 -444q-30 -150 -92.5 -220t-162.5 -70zM393 752q-25 43 -96 142l39 25l87 -147z" />
    <glyph glyph-name="Uacute" unicode="&#xda;" horiz-adv-x="625" 
d="M276 -14q-94 0 -147.5 55t-53.5 165q0 45 11 106l69 359q19 -4 40 -6l-71 -360q-11 -60 -11 -101q0 -91 43.5 -136.5t124.5 -45.5q161 0 211 260l84 442q18 -3 44 -4l-89 -444q-30 -150 -92.5 -220t-162.5 -70zM382 752l-25 24l80 81.5t43 46.5l9 11l35 -31z" />
    <glyph glyph-name="Ucircumflex" unicode="&#xdb;" horiz-adv-x="625" 
d="M276 -14q-94 0 -147.5 55t-53.5 165q0 45 11 106l69 359q19 -4 40 -6l-71 -360q-11 -60 -11 -101q0 -91 43.5 -136.5t124.5 -45.5q161 0 211 260l84 442q18 -3 44 -4l-89 -444q-30 -150 -92.5 -220t-162.5 -70zM281 748q-10 13 -23 28l152 148q2 -1 35 -1l98 -147
l-29 -22q-41 66 -91 134z" />
    <glyph glyph-name="Udieresis" unicode="&#xdc;" horiz-adv-x="625" 
d="M276 -14q-94 0 -147.5 55t-53.5 165q0 45 11 106l69 359q19 -4 40 -6l-71 -360q-11 -60 -11 -101q0 -91 43.5 -136.5t124.5 -45.5q161 0 211 260l84 442q18 -3 44 -4l-89 -444q-30 -150 -92.5 -220t-162.5 -70zM310 783q-21 0 -34 13t-13 33q0 19 14 31t33 12
q20 0 34 -12.5t14 -31.5q0 -22 -13.5 -33.5t-34.5 -11.5zM491 784q-19 0 -32 12.5t-13 34.5q0 18 13 30t34 12t32 -12.5t11 -31.5q0 -21 -13 -33t-32 -12z" />
    <glyph glyph-name="Yacute" unicode="&#xdd;" horiz-adv-x="599" 
d="M219 -6q26 130 43 240l-134 447q13 2 35 8l124 -411l321 432q12 -6 35 -14l-343 -460q-22 -110 -44 -246q-14 3 -37 4zM381 752l-25 24l80 81.5t42 46.5l10 11l35 -31z" />
    <glyph glyph-name="Thorn" unicode="&#xde;" horiz-adv-x="581" 
d="M45 9l130 681q14 -1 37 -1l-26 -129q39 4 82 4q141 0 211.5 -52t70.5 -135q0 -78 -47.5 -131.5t-121 -77t-165.5 -23.5q-55 0 -108 7l-24 -142q-17 0 -39 -1zM179 526q-37 -183 -64 -339q59 -8 106 -8q127 0 210 52t83 147q0 65 -58.5 109t-186.5 44q-49 0 -90 -5z" />
    <glyph glyph-name="germandbls" unicode="&#xdf;" horiz-adv-x="558" 
d="M5 -167q86 489 115 636q24 120 86 180t145 60q90 0 138.5 -48.5t48.5 -115.5q0 -76 -60 -130t-145 -59q72 -16 107.5 -59.5t35.5 -100.5q0 -82 -60 -142q-66 -66 -197 -66q-42 0 -76 5q4 12 9 36q42 -5 69 -5q113 0 169 56q19 19 33.5 52t14.5 65q0 61 -51 102.5
t-156 38.5q4 15 8 36q117 -3 188.5 43t71.5 127q0 54 -38 92.5t-107 38.5q-75 0 -127.5 -55.5t-72.5 -160.5l-112 -631z" />
    <glyph glyph-name="agrave" unicode="&#xe0;" horiz-adv-x="518" 
d="M393 -11q-7 34 -7 86q0 31 3 59q-34 -66 -85.5 -105t-107.5 -39q-76 0 -120.5 60t-44.5 153q0 69 24.5 139.5t69.5 115.5q63 63 138 63q69 0 110 -51.5t52 -124.5l31 165q14 -2 37 -3q-16 -96 -59 -311q-11 -53 -11 -112q0 -44 8 -90zM267 489q-60 0 -112 -52
q-39 -39 -61.5 -102.5t-22.5 -129.5q0 -81 34.5 -132t92.5 -51q62 0 119 57q91 91 91 204q0 79 -39 142.5t-102 63.5zM307 557q-25 43 -96 142l39 25l87 -147z" />
    <glyph glyph-name="aacute" unicode="&#xe1;" horiz-adv-x="518" 
d="M393 -11q-7 34 -7 86q0 31 3 59q-34 -66 -85.5 -105t-107.5 -39q-76 0 -120.5 60t-44.5 153q0 69 24.5 139.5t69.5 115.5q63 63 138 63q69 0 110 -51.5t52 -124.5l31 165q14 -2 37 -3q-16 -96 -59 -311q-11 -53 -11 -112q0 -44 8 -90zM267 489q-60 0 -112 -52
q-39 -39 -61.5 -102.5t-22.5 -129.5q0 -81 34.5 -132t92.5 -51q62 0 119 57q91 91 91 204q0 79 -39 142.5t-102 63.5zM295 557l-25 24l80 81.5t42 45.5l10 12l35 -31z" />
    <glyph glyph-name="acircumflex" unicode="&#xe2;" horiz-adv-x="518" 
d="M393 -11q-7 34 -7 86q0 31 3 59q-34 -66 -85.5 -105t-107.5 -39q-76 0 -120.5 60t-44.5 153q0 69 24.5 139.5t69.5 115.5q63 63 138 63q69 0 110 -51.5t52 -124.5l31 165q14 -2 37 -3q-16 -96 -59 -311q-11 -53 -11 -112q0 -44 8 -90zM267 489q-60 0 -112 -52
q-39 -39 -61.5 -102.5t-22.5 -129.5q0 -81 34.5 -132t92.5 -51q62 0 119 57q91 91 91 204q0 79 -39 142.5t-102 63.5zM195 553q-10 13 -23 28l152 148q2 -1 35 -1l98 -147l-29 -22q-41 66 -91 134z" />
    <glyph glyph-name="atilde" unicode="&#xe3;" horiz-adv-x="518" 
d="M393 -11q-7 34 -7 86q0 31 3 59q-34 -66 -85.5 -105t-107.5 -39q-76 0 -120.5 60t-44.5 153q0 69 24.5 139.5t69.5 115.5q63 63 138 63q69 0 110 -51.5t52 -124.5l31 165q14 -2 37 -3q-16 -96 -59 -311q-11 -53 -11 -112q0 -44 8 -90zM267 489q-60 0 -112 -52
q-39 -39 -61.5 -102.5t-22.5 -129.5q0 -81 34.5 -132t92.5 -51q62 0 119 57q91 91 91 204q0 79 -39 142.5t-102 63.5zM186 575q-19 4 -39 5q9 62 36 94.5t67 32.5q24 0 44.5 -15t33 -33.5t29 -33.5t32.5 -15q45 0 59 98q7 -2 34 -3q-14 -129 -93 -129q-24 0 -44.5 15
t-32.5 33.5t-28.5 33.5t-32.5 15q-28 0 -42.5 -24t-22.5 -74z" />
    <glyph glyph-name="adieresis" unicode="&#xe4;" horiz-adv-x="518" 
d="M393 -11q-7 34 -7 86q0 31 3 59q-34 -66 -85.5 -105t-107.5 -39q-76 0 -120.5 60t-44.5 153q0 69 24.5 139.5t69.5 115.5q63 63 138 63q69 0 110 -51.5t52 -124.5l31 165q14 -2 37 -3q-16 -96 -59 -311q-11 -53 -11 -112q0 -44 8 -90zM267 489q-60 0 -112 -52
q-39 -39 -61.5 -102.5t-22.5 -129.5q0 -81 34.5 -132t92.5 -51q62 0 119 57q91 91 91 204q0 79 -39 142.5t-102 63.5zM223 588q-21 0 -34 13t-13 33q0 19 14 31t33 12q20 0 34 -12.5t14 -31.5q0 -22 -13.5 -33.5t-34.5 -11.5zM404 589q-19 0 -32 12.5t-13 34.5q0 18 13 30
t34 12t32 -12.5t11 -31.5q0 -21 -13 -33t-32 -12z" />
    <glyph glyph-name="aring" unicode="&#xe5;" horiz-adv-x="518" 
d="M393 -11q-7 34 -7 86q0 31 3 59q-34 -66 -85.5 -105t-107.5 -39q-76 0 -120.5 60t-44.5 153q0 69 24.5 139.5t69.5 115.5q63 63 138 63q69 0 110 -51.5t52 -124.5l31 165q14 -2 37 -3q-16 -96 -59 -311q-11 -53 -11 -112q0 -44 8 -90zM267 489q-60 0 -112 -52
q-39 -39 -61.5 -102.5t-22.5 -129.5q0 -81 34.5 -132t92.5 -51q62 0 119 57q91 91 91 204q0 79 -39 142.5t-102 63.5zM317 560q-46 0 -74 27.5t-28 71.5q0 43 28 71t75 28q53 0 78.5 -31t25.5 -68q0 -45 -30 -72t-75 -27zM319 590q30 0 48.5 18.5t18.5 50.5q0 28 -17 48.5
t-50 20.5q-68 0 -68 -68q0 -31 17.5 -50.5t50.5 -19.5z" />
    <glyph glyph-name="ae" unicode="&#xe6;" horiz-adv-x="865" 
d="M568 -23q-74 0 -118.5 40.5t-57.5 115.5q-26 -64 -79 -105.5t-125 -41.5q-76 0 -117 38t-41 93q0 88 85.5 128t284.5 42q9 50 9 68q0 59 -34 94.5t-96 35.5q-52 0 -93.5 -35t-64.5 -93q-13 7 -34 15q24 63 74 104.5t116 41.5q69 0 112.5 -37t48.5 -100q33 61 88 97.5
t111 36.5q157 0 157 -168q0 -36 -8 -81q-141 -3 -353 -13q-9 -35 -9 -76q0 -78 39 -123t105 -45q111 0 187 141q13 -10 32 -20q-41 -77 -99 -115t-120 -38zM193 21q86 0 136.5 68.5t64.5 163.5q-181 -1 -253 -34t-72 -100q0 -43 34 -70.5t90 -27.5zM638 483
q-67 0 -119 -51.5t-78 -145.5q111 2 314 13q5 32 5 54q0 130 -122 130z" />
    <glyph glyph-name="ccedilla" unicode="&#xe7;" horiz-adv-x="524" 
d="M436 145q-34 -80 -82 -124t-122 -45l-17 -63q40 -1 62 -18t22 -41q0 -34 -32.5 -53t-77.5 -19q-56 0 -95 26q7 11 17 31q37 -25 79 -25q30 0 51 10.5t21 27.5q0 32 -65 32q-7 0 -29 -2q14 37 33 96q-74 9 -115 64t-41 143q0 74 26 144.5t74 118.5q67 67 152 67
q76 0 114.5 -44t52.5 -129l-37 -9q-14 77 -43 113t-84 36q-73 0 -126 -53q-45 -45 -67 -110t-22 -130q0 -82 39 -131.5t109 -49.5q104 0 168 149q14 -6 35 -12z" />
    <glyph glyph-name="egrave" unicode="&#xe8;" horiz-adv-x="524" 
d="M226 -23q-85 0 -133 54t-48 147q0 75 27.5 149.5t71.5 118.5q69 69 156 69q75 0 114.5 -45t39.5 -123q0 -33 -10 -81q-98 -4 -355 -18q-7 -35 -7 -70q0 -81 40 -125t109 -44q105 0 182 141q15 -11 32 -20q-86 -153 -219 -153zM296 483q-67 0 -122 -55q-53 -53 -78 -147
q10 1 49.5 3t111.5 6.5l156 9.5q5 32 5 54q0 129 -122 129zM312 557q-25 43 -96 142l39 25l87 -147z" />
    <glyph glyph-name="eacute" unicode="&#xe9;" horiz-adv-x="524" 
d="M226 -23q-85 0 -133 54t-48 147q0 75 27.5 149.5t71.5 118.5q69 69 156 69q75 0 114.5 -45t39.5 -123q0 -33 -10 -81q-98 -4 -355 -18q-7 -35 -7 -70q0 -81 40 -125t109 -44q105 0 182 141q15 -11 32 -20q-86 -153 -219 -153zM296 483q-67 0 -122 -55q-53 -53 -78 -147
q10 1 49.5 3t111.5 6.5l156 9.5q5 32 5 54q0 129 -122 129zM300 557l-25 24l80 81.5l43 45.5l9 12l35 -31z" />
    <glyph glyph-name="ecircumflex" unicode="&#xea;" horiz-adv-x="524" 
d="M226 -23q-85 0 -133 54t-48 147q0 75 27.5 149.5t71.5 118.5q69 69 156 69q75 0 114.5 -45t39.5 -123q0 -33 -10 -81q-98 -4 -355 -18q-7 -35 -7 -70q0 -81 40 -125t109 -44q105 0 182 141q15 -11 32 -20q-86 -153 -219 -153zM296 483q-67 0 -122 -55q-53 -53 -78 -147
q10 1 49.5 3t111.5 6.5l156 9.5q5 32 5 54q0 129 -122 129zM200 553q-10 13 -23 28l152 148q2 -1 35 -1l98 -147l-29 -22q-41 66 -91 134z" />
    <glyph glyph-name="edieresis" unicode="&#xeb;" horiz-adv-x="524" 
d="M226 -23q-85 0 -133 54t-48 147q0 75 27.5 149.5t71.5 118.5q69 69 156 69q75 0 114.5 -45t39.5 -123q0 -33 -10 -81q-98 -4 -355 -18q-7 -35 -7 -70q0 -81 40 -125t109 -44q105 0 182 141q15 -11 32 -20q-86 -153 -219 -153zM296 483q-67 0 -122 -55q-53 -53 -78 -147
q10 1 49.5 3t111.5 6.5l156 9.5q5 32 5 54q0 129 -122 129zM228 588q-21 0 -34 13t-13 33q0 19 14 31t33 12q20 0 34 -12.5t14 -31.5q0 -22 -13.5 -33.5t-34.5 -11.5zM409 589q-19 0 -32 12.5t-13 34.5q0 18 13 30t34 12t32 -12.5t11 -31.5q0 -21 -13 -33t-32 -12z" />
    <glyph glyph-name="igrave" unicode="&#xec;" horiz-adv-x="225" 
d="M40 2l94 500q17 -3 38 -4l-94 -500q-15 2 -38 4zM175 557q-25 43 -96 142l39 25l87 -147z" />
    <glyph glyph-name="iacute" unicode="&#xed;" horiz-adv-x="225" 
d="M40 2l94 500q17 -3 38 -4l-94 -500q-15 2 -38 4zM163 557l-25 24l80 81.5t42 45.5l10 12l35 -31z" />
    <glyph glyph-name="icircumflex" unicode="&#xee;" horiz-adv-x="225" 
d="M40 2l94 500q17 -3 38 -4l-94 -500q-15 2 -38 4zM63 553q-10 13 -23 28l152 148q2 -1 35 -1l98 -147l-29 -22q-41 66 -91 134z" />
    <glyph glyph-name="idieresis" unicode="&#xef;" horiz-adv-x="225" 
d="M40 2l94 500q17 -3 38 -4l-94 -500q-15 2 -38 4zM91 588q-21 0 -34 13t-13 33q0 19 14 31t33 12q20 0 34 -12.5t14 -31.5q0 -22 -13.5 -33.5t-34.5 -11.5zM272 589q-19 0 -32 12.5t-13 34.5q0 18 13 30t34 12t32 -12.5t11 -31.5q0 -21 -13 -33t-32 -12z" />
    <glyph glyph-name="eth" unicode="&#xf0;" horiz-adv-x="540" 
d="M228 -21q-86 0 -134 58t-48 155q0 71 23.5 141.5t70.5 118.5q65 65 144 65q69 0 111.5 -61.5t49.5 -136.5q3 26 3 50q0 121 -56 215l-53 -35q-7 12 -16 25l53 35q-27 37 -64 65q7 8 20 27q42 -31 72 -73l95 67q6 -11 18 -28l-97 -65q61 -98 61 -234q0 -94 -32.5 -188
t-83.5 -145q-56 -56 -137 -56zM233 11q62 0 110 48q36 36 59.5 95.5t23.5 112.5q0 78 -38.5 148t-103.5 70q-63 0 -114 -51q-41 -41 -64.5 -110.5t-23.5 -132.5q0 -83 40 -131.5t111 -48.5z" />
    <glyph glyph-name="ntilde" unicode="&#xf1;" horiz-adv-x="524" 
d="M353 -24l59 307q9 45 9 80q0 112 -97 112q-49 0 -97.5 -50t-80.5 -117t-46 -133l-30 -156q-17 3 -40 5l90 460q15 -2 39 -4l-31 -150q44 90 97.5 134.5t104.5 44.5q64 0 96.5 -39t32.5 -107q0 -29 -6 -62l-62 -329zM205 575q-19 4 -39 5q9 62 36 94.5t67 32.5
q24 0 44.5 -15t33 -33.5t29 -33.5t32.5 -15q45 0 59 98q7 -2 34 -3q-14 -129 -93 -129q-24 0 -44.5 15t-32.5 33.5t-28.5 33.5t-32.5 15q-28 0 -42.5 -24t-22.5 -74z" />
    <glyph glyph-name="ograve" unicode="&#xf2;" horiz-adv-x="534" 
d="M229 -23q-86 0 -135 58.5t-49 154.5q0 69 25.5 142.5t71.5 119.5q63 63 143 63q87 0 135 -61t48 -155q0 -66 -25.5 -141.5t-71.5 -121.5q-59 -59 -142 -59zM231 9q64 0 111 47q39 39 64 110t25 135q0 79 -38.5 130.5t-108.5 51.5q-64 0 -113 -49q-41 -41 -65 -110
t-24 -134q0 -83 39.5 -132t109.5 -49zM312 557q-25 43 -96 142l39 25l87 -147z" />
    <glyph glyph-name="oacute" unicode="&#xf3;" horiz-adv-x="534" 
d="M229 -23q-86 0 -135 58.5t-49 154.5q0 69 25.5 142.5t71.5 119.5q63 63 143 63q87 0 135 -61t48 -155q0 -66 -25.5 -141.5t-71.5 -121.5q-59 -59 -142 -59zM231 9q64 0 111 47q39 39 64 110t25 135q0 79 -38.5 130.5t-108.5 51.5q-64 0 -113 -49q-41 -41 -65 -110
t-24 -134q0 -83 39.5 -132t109.5 -49zM300 557l-25 24l80 81.5l43 45.5l9 12l35 -31z" />
    <glyph glyph-name="ocircumflex" unicode="&#xf4;" horiz-adv-x="534" 
d="M229 -23q-86 0 -135 58.5t-49 154.5q0 69 25.5 142.5t71.5 119.5q63 63 143 63q87 0 135 -61t48 -155q0 -66 -25.5 -141.5t-71.5 -121.5q-59 -59 -142 -59zM231 9q64 0 111 47q39 39 64 110t25 135q0 79 -38.5 130.5t-108.5 51.5q-64 0 -113 -49q-41 -41 -65 -110
t-24 -134q0 -83 39.5 -132t109.5 -49zM200 553q-10 13 -23 28l152 148q2 -1 35 -1l98 -147l-29 -22q-41 66 -91 134z" />
    <glyph glyph-name="otilde" unicode="&#xf5;" horiz-adv-x="534" 
d="M229 -23q-86 0 -135 58.5t-49 154.5q0 69 25.5 142.5t71.5 119.5q63 63 143 63q87 0 135 -61t48 -155q0 -66 -25.5 -141.5t-71.5 -121.5q-59 -59 -142 -59zM231 9q64 0 111 47q39 39 64 110t25 135q0 79 -38.5 130.5t-108.5 51.5q-64 0 -113 -49q-41 -41 -65 -110
t-24 -134q0 -83 39.5 -132t109.5 -49zM191 575q-19 4 -39 5q9 62 36 94.5t67 32.5q24 0 44.5 -15t33 -33.5t29 -33.5t32.5 -15q45 0 59 98q7 -2 34 -3q-14 -129 -93 -129q-24 0 -44.5 15t-32.5 33.5t-28.5 33.5t-32.5 15q-28 0 -42.5 -24t-22.5 -74z" />
    <glyph glyph-name="odieresis" unicode="&#xf6;" horiz-adv-x="534" 
d="M229 -23q-86 0 -135 58.5t-49 154.5q0 69 25.5 142.5t71.5 119.5q63 63 143 63q87 0 135 -61t48 -155q0 -66 -25.5 -141.5t-71.5 -121.5q-59 -59 -142 -59zM231 9q64 0 111 47q39 39 64 110t25 135q0 79 -38.5 130.5t-108.5 51.5q-64 0 -113 -49q-41 -41 -65 -110
t-24 -134q0 -83 39.5 -132t109.5 -49zM228 588q-21 0 -34 13t-13 33q0 19 14 31t33 12q20 0 34 -12.5t14 -31.5q0 -22 -13.5 -33.5t-34.5 -11.5zM409 589q-19 0 -32 12.5t-13 34.5q0 18 13 30t34 12t32 -12.5t11 -31.5q0 -21 -13 -33t-32 -12z" />
    <glyph glyph-name="divide" unicode="&#xf7;" horiz-adv-x="470" 
d="M40 310l9 37h396l-6 -38q-287 7 -399 1zM208 214q19 0 32.5 -16t13.5 -40q0 -22 -14.5 -36.5t-32.5 -14.5q-20 0 -33 15t-13 36q0 27 13.5 41.5t33.5 14.5zM270 548q18 0 32 -15t14 -39q0 -22 -14 -37.5t-33 -15.5q-21 0 -33.5 14.5t-12.5 38.5q0 25 13.5 39.5t33.5 14.5
z" />
    <glyph glyph-name="oslash" unicode="&#xf8;" horiz-adv-x="534" 
d="M229 -23q-64 0 -109 34l-60 -88l-27 18l63 92q-51 57 -51 157q0 69 25.5 142.5t71.5 119.5q63 63 143 63q68 0 114 -40l57 84q8 -6 29 -18l-63 -90q46 -60 46 -152q0 -66 -25.5 -141.5t-71.5 -121.5q-59 -59 -142 -59zM117 64l262 382q-39 37 -95 37q-64 0 -113 -49
q-41 -41 -65 -110t-24 -134q0 -79 35 -126zM231 9q64 0 111 47q39 39 64 110t25 135q0 72 -31 119l-261 -380q37 -31 92 -31z" />
    <glyph glyph-name="ugrave" unicode="&#xf9;" horiz-adv-x="513" 
d="M197 -4q-67 0 -104.5 43t-37.5 123q0 33 8 79l45 241q15 -3 38 -6l-48 -242q-8 -42 -8 -72q0 -64 29 -97.5t81 -33.5q69 0 124 69.5t83 199.5l45 229q13 -3 36 -6q-46 -221 -105 -537q-17 3 -37 5q17 67 35 159q-73 -154 -184 -154zM307 557q-25 43 -96 142l39 25
l87 -147z" />
    <glyph glyph-name="uacute" unicode="&#xfa;" horiz-adv-x="513" 
d="M197 -4q-67 0 -104.5 43t-37.5 123q0 33 8 79l45 241q15 -3 38 -6l-48 -242q-8 -42 -8 -72q0 -64 29 -97.5t81 -33.5q69 0 124 69.5t83 199.5l45 229q13 -3 36 -6q-46 -221 -105 -537q-17 3 -37 5q17 67 35 159q-73 -154 -184 -154zM296 557l-25 24l80 81.5l43 45.5l9 12
l35 -31z" />
    <glyph glyph-name="ucircumflex" unicode="&#xfb;" horiz-adv-x="513" 
d="M197 -4q-67 0 -104.5 43t-37.5 123q0 33 8 79l45 241q15 -3 38 -6l-48 -242q-8 -42 -8 -72q0 -64 29 -97.5t81 -33.5q69 0 124 69.5t83 199.5l45 229q13 -3 36 -6q-46 -221 -105 -537q-17 3 -37 5q17 67 35 159q-73 -154 -184 -154zM196 553q-10 13 -23 28l152 148
q2 -1 35 -1l98 -147l-29 -22q-41 66 -91 134z" />
    <glyph glyph-name="udieresis" unicode="&#xfc;" horiz-adv-x="513" 
d="M197 -4q-67 0 -104.5 43t-37.5 123q0 33 8 79l45 241q15 -3 38 -6l-48 -242q-8 -42 -8 -72q0 -64 29 -97.5t81 -33.5q69 0 124 69.5t83 199.5l45 229q13 -3 36 -6q-46 -221 -105 -537q-17 3 -37 5q17 67 35 159q-73 -154 -184 -154zM224 588q-21 0 -34 13t-13 33
q0 19 14 31t33 12q20 0 34 -12.5t14 -31.5q0 -22 -13.5 -33.5t-34.5 -11.5zM405 589q-19 0 -32 12.5t-13 34.5q0 18 13 30t34 12t32 -12.5t11 -31.5q0 -21 -13 -33t-32 -12z" />
    <glyph glyph-name="yacute" unicode="&#xfd;" horiz-adv-x="472" 
d="M74 -236l-34 16l119 216l-94 487l41 8q50 -296 81 -450l258 484l37 -10zM284 557l-25 24l80 81.5l43 45.5l9 12l35 -31z" />
    <glyph glyph-name="thorn" unicode="&#xfe;" horiz-adv-x="560" 
d="M-15 -214l170 889l40 -4q-28 -126 -61 -304q32 67 84.5 108.5t109.5 41.5q80 0 123 -65t43 -159q0 -70 -25 -141.5t-70 -116.5q-58 -58 -136 -58q-64 0 -109 43t-62 124l-66 -362zM263 10q62 0 106 43q42 40 64 106.5t22 132.5q0 81 -35 137t-96 56q-56 0 -120 -64
q-91 -91 -91 -209q0 -84 43 -143t107 -59z" />
    <glyph glyph-name="ydieresis" unicode="&#xff;" horiz-adv-x="472" 
d="M74 -236l-34 16l119 216l-94 487l41 8q50 -296 81 -450l258 484l37 -10zM212 588q-21 0 -34 13t-13 33q0 19 14 31t33 12q20 0 34 -12.5t14 -31.5q0 -22 -13.5 -33.5t-34.5 -11.5zM393 589q-19 0 -32 12.5t-13 34.5q0 18 13 30t34 12t32 -12.5t11 -31.5q0 -21 -13 -33
t-32 -12z" />
    <glyph glyph-name="Amacron" unicode="&#x100;" horiz-adv-x="558" 
d="M-30 27l357 680l53 -5l103 -722q-15 -2 -38 -6l-28 208q-87 3 -323 3l-86 -169q-13 5 -38 11zM349 677l-237 -457q12 0 115 -0.5t185 -0.5zM244 811q4 15 7 40q60 -1 248 2q-5 -14 -10 -40q-86 1 -245 -2z" />
    <glyph glyph-name="amacron" unicode="&#x101;" horiz-adv-x="518" 
d="M393 -11q-7 34 -7 86q0 31 3 59q-34 -66 -85.5 -105t-107.5 -39q-76 0 -120.5 60t-44.5 153q0 69 24.5 139.5t69.5 115.5q63 63 138 63q69 0 110 -51.5t52 -124.5l31 165q14 -2 37 -3q-16 -96 -59 -311q-11 -53 -11 -112q0 -44 8 -90zM267 489q-60 0 -112 -52
q-39 -39 -61.5 -102.5t-22.5 -129.5q0 -81 34.5 -132t92.5 -51q62 0 119 57q91 91 91 204q0 79 -39 142.5t-102 63.5zM186 616q4 15 7 40q60 -1 248 2q-5 -14 -10 -40q-86 1 -245 -2z" />
    <glyph glyph-name="Abreve" unicode="&#x102;" horiz-adv-x="558" 
d="M-30 27l357 680l53 -5l103 -722q-15 -2 -38 -6l-28 208q-87 3 -323 3l-86 -169q-13 5 -38 11zM349 677l-237 -457q12 0 115 -0.5t185 -0.5zM363 772q-54 0 -89 35.5t-36 89.5q19 2 37 6q4 -49 25.5 -73t65.5 -24q43 0 69 25.5t39 82.5q12 -4 35 -8q-26 -134 -146 -134z
" />
    <glyph glyph-name="abreve" unicode="&#x103;" horiz-adv-x="518" 
d="M393 -11q-7 34 -7 86q0 31 3 59q-34 -66 -85.5 -105t-107.5 -39q-76 0 -120.5 60t-44.5 153q0 69 24.5 139.5t69.5 115.5q63 63 138 63q69 0 110 -51.5t52 -124.5l31 165q14 -2 37 -3q-16 -96 -59 -311q-11 -53 -11 -112q0 -44 8 -90zM267 489q-60 0 -112 -52
q-39 -39 -61.5 -102.5t-22.5 -129.5q0 -81 34.5 -132t92.5 -51q62 0 119 57q91 91 91 204q0 79 -39 142.5t-102 63.5zM305 577q-54 0 -89 35.5t-36 89.5q19 2 37 6q4 -49 25.5 -73t65.5 -24q43 0 69 25.5t39 82.5q12 -4 35 -8q-26 -134 -146 -134z" />
    <glyph glyph-name="Aogonek" unicode="&#x104;" horiz-adv-x="558" 
d="M-30 27l357 680l53 -5l102 -718q-96 -54 -96 -114q0 -19 14.5 -31t42.5 -12q12 0 27 3q1 -14 4 -34q-19 -4 -39 -4q-44 0 -66.5 20.5t-22.5 52.5q0 69 97 120q-9 79 -26 197q-87 3 -323 3l-86 -169q-13 5 -38 11zM349 677l-237 -457q12 0 115 -0.5t185 -0.5z" />
    <glyph glyph-name="aogonek" unicode="&#x105;" horiz-adv-x="518" 
d="M421 -188q-19 -4 -39 -4q-43 0 -66.5 20.5t-23.5 52.5q0 69 98 120q-4 29 -4 74q0 31 3 59q-34 -66 -85.5 -105t-107.5 -39q-76 0 -120.5 60t-44.5 153q0 69 24.5 139.5t69.5 115.5q63 63 138 63q69 0 110 -51.5t52 -124.5l31 165q14 -2 37 -3q-16 -96 -59 -311
q-11 -53 -11 -112q0 -45 7 -84q-97 -55 -97 -114q0 -42 57 -42l27 2q1 -14 4 -34zM267 489q-60 0 -112 -52q-39 -39 -61.5 -102.5t-22.5 -129.5q0 -81 34.5 -132t92.5 -51q62 0 119 57q91 91 91 204q0 79 -39 142.5t-102 63.5z" />
    <glyph glyph-name="Cacute" unicode="&#x106;" horiz-adv-x="632" 
d="M300 -23q-114 0 -174.5 78t-60.5 206q0 98 35 204.5t100 171.5q81 81 179 81q180 0 213 -235l-38 -5q-16 103 -58.5 154t-116.5 51q-82 0 -152 -70q-58 -58 -90.5 -154.5t-32.5 -194.5q0 -119 52 -186.5t144 -67.5q75 0 134 56.5t88 175.5l38 -11q-27 -118 -95.5 -186
t-164.5 -68zM380 752l-25 24l80 81.5t43 46.5l9 11l35 -31z" />
    <glyph glyph-name="cacute" unicode="&#x107;" horiz-adv-x="524" 
d="M229 -24q-87 0 -135.5 56.5t-48.5 152.5q0 74 26 144.5t74 118.5q67 67 152 67q76 0 114.5 -44t52.5 -129l-37 -9q-14 77 -43 113t-84 36q-73 0 -126 -53q-45 -45 -67 -110t-22 -130q0 -82 39 -131.5t109 -49.5q104 0 168 149q14 -6 35 -12q-34 -81 -83 -125t-124 -44z
M306 557l-25 24l80 81.5l43 45.5l9 12l35 -31z" />
    <glyph glyph-name="Ccircumflex" unicode="&#x108;" horiz-adv-x="632" 
d="M300 -23q-114 0 -174.5 78t-60.5 206q0 98 35 204.5t100 171.5q81 81 179 81q180 0 213 -235l-38 -5q-16 103 -58.5 154t-116.5 51q-82 0 -152 -70q-58 -58 -90.5 -154.5t-32.5 -194.5q0 -119 52 -186.5t144 -67.5q75 0 134 56.5t88 175.5l38 -11q-27 -118 -95.5 -186
t-164.5 -68zM280 748q-10 13 -23 28l152 148q2 -1 35 -1l98 -147l-29 -22q-41 66 -91 134z" />
    <glyph glyph-name="ccircumflex" unicode="&#x109;" horiz-adv-x="524" 
d="M229 -24q-87 0 -135.5 56.5t-48.5 152.5q0 74 26 144.5t74 118.5q67 67 152 67q76 0 114.5 -44t52.5 -129l-37 -9q-14 77 -43 113t-84 36q-73 0 -126 -53q-45 -45 -67 -110t-22 -130q0 -82 39 -131.5t109 -49.5q104 0 168 149q14 -6 35 -12q-34 -81 -83 -125t-124 -44z
M206 553q-10 13 -23 28l152 148q2 -1 35 -1l98 -147l-29 -22q-41 66 -91 134z" />
    <glyph glyph-name="Ccaron" unicode="&#x10c;" horiz-adv-x="632" 
d="M300 -23q-114 0 -174.5 78t-60.5 206q0 98 35 204.5t100 171.5q81 81 179 81q180 0 213 -235l-38 -5q-16 103 -58.5 154t-116.5 51q-82 0 -152 -70q-58 -58 -90.5 -154.5t-32.5 -194.5q0 -119 52 -186.5t144 -67.5q75 0 134 56.5t88 175.5l38 -11q-27 -118 -95.5 -186
t-164.5 -68zM286 918l83 -134l73 66.5l56 53.5l20 19l25 -24l-159 -150l-35 -1l-94 148z" />
    <glyph glyph-name="ccaron" unicode="&#x10d;" horiz-adv-x="524" 
d="M229 -24q-87 0 -135.5 56.5t-48.5 152.5q0 74 26 144.5t74 118.5q67 67 152 67q76 0 114.5 -44t52.5 -129l-37 -9q-14 77 -43 113t-84 36q-73 0 -126 -53q-45 -45 -67 -110t-22 -130q0 -82 39 -131.5t109 -49.5q104 0 168 149q14 -6 35 -12q-34 -81 -83 -125t-124 -44z
M212 723l83 -134l73.5 66.5t56.5 53.5l19 19l25 -24l-159 -150l-35 -1l-94 148z" />
    <glyph glyph-name="Dcaron" unicode="&#x10e;" horiz-adv-x="623" 
d="M40 4l132 686q56 9 105 9q146 0 228 -74t82 -204q0 -84 -30.5 -170t-89.5 -145q-109 -109 -316 -109q-43 0 -111 7zM88 37q35 -4 76 -4q181 0 279 98q49 49 78.5 127t29.5 158q0 113 -68 181t-204 68q-31 0 -76 -5zM281 918l83 -134l73 66.5l57 53.5l19 19l25 -24
l-159 -150l-35 -1l-94 148z" />
    <glyph glyph-name="dcaron" unicode="&#x10f;" horiz-adv-x="544" 
d="M403 -20q-15 3 -41 6q12 47 29 124q-35 -62 -84 -96.5t-101 -34.5q-77 0 -124 60t-47 154q0 150 95 253q67 70 142 70q66 0 109.5 -52t51.5 -124q40 201 65 346q15 -3 41 -4zM209 13q63 0 120 57q86 86 86 207q0 81 -38.5 143.5t-100.5 62.5t-114 -52q-39 -39 -64 -104.5
t-25 -132.5q0 -81 37.5 -131t98.5 -50zM690 630q0 -37 -29 -73t-72 -59l-15 24q44 23 72 68q-39 4 -39 50q0 20 11 33t30 13q42 0 42 -56z" />
    <glyph glyph-name="Dcroat" unicode="&#x110;" horiz-adv-x="629" 
d="M46 4l63 323q-53 0 -84 1q3 10 8 33q22 -1 82 -2l63 331q56 9 105 9q146 0 228 -74t82 -204q0 -84 -30.5 -170t-89.5 -145q-109 -109 -316 -109q-43 0 -111 7zM94 37q35 -4 76 -4q181 0 279 98q49 49 78.5 127t29.5 158q0 113 -68 181t-204 68q-31 0 -76 -5
q-21 -104 -57 -302h183q-2 -13 -6 -35l-183 3z" />
    <glyph glyph-name="dcroat" unicode="&#x111;" horiz-adv-x="544" 
d="M403 -20q-15 3 -41 6q12 47 29 124q-35 -62 -84 -96.5t-101 -34.5q-77 0 -124 60t-47 154q0 150 95 253q67 70 142 70q66 0 109.5 -52t51.5 -124q2 12 17.5 88t25.5 133h-89l7 34q29 -1 88 -1l16 92q15 -3 41 -4l-18 -88l101 1l-7 -37l-101 3zM209 13q63 0 120 57
q86 86 86 207q0 81 -38.5 143.5t-100.5 62.5t-114 -52q-39 -39 -64 -104.5t-25 -132.5q0 -81 37.5 -131t98.5 -50z" />
    <glyph glyph-name="Emacron" unicode="&#x112;" horiz-adv-x="552" 
d="M50 4l127 691q178 1 385 6q-1 -11 -6 -35q-172 -1 -347 -5l-65 -344q191 0 313 2l-5 -34q-185 1 -313 0q-6 -30 -44 -248q183 -3 351 -4l-8 -35q-226 5 -388 6zM261 811q4 15 7 40q60 -1 248 2q-5 -14 -10 -40q-86 1 -245 -2z" />
    <glyph glyph-name="emacron" unicode="&#x113;" horiz-adv-x="524" 
d="M226 -23q-85 0 -133 54t-48 147q0 75 27.5 149.5t71.5 118.5q69 69 156 69q75 0 114.5 -45t39.5 -123q0 -33 -10 -81q-98 -4 -355 -18q-7 -35 -7 -70q0 -81 40 -125t109 -44q105 0 182 141q15 -11 32 -20q-86 -153 -219 -153zM296 483q-67 0 -122 -55q-53 -53 -78 -147
q10 1 49.5 3t111.5 6.5l156 9.5q5 32 5 54q0 129 -122 129zM191 616q4 15 7 40q60 -1 248 2q-5 -14 -10 -40q-86 1 -245 -2z" />
    <glyph glyph-name="Edotaccent" unicode="&#x116;" horiz-adv-x="552" 
d="M50 4l127 691q178 1 385 6q-1 -11 -6 -35q-172 -1 -347 -5l-65 -344q191 0 313 2l-5 -34q-185 1 -313 0q-6 -30 -44 -248q183 -3 351 -4l-8 -35q-226 5 -388 6zM389 772q-30 0 -46.5 19t-16.5 48q0 27 16 44t47 17q30 0 46.5 -18.5t16.5 -44.5q0 -31 -16.5 -48t-46.5 -17
z" />
    <glyph glyph-name="edotaccent" unicode="&#x117;" horiz-adv-x="524" 
d="M226 -23q-85 0 -133 54t-48 147q0 75 27.5 149.5t71.5 118.5q69 69 156 69q75 0 114.5 -45t39.5 -123q0 -33 -10 -81q-98 -4 -355 -18q-7 -35 -7 -70q0 -81 40 -125t109 -44q105 0 182 141q15 -11 32 -20q-86 -153 -219 -153zM296 483q-67 0 -122 -55q-53 -53 -78 -147
q10 1 49.5 3t111.5 6.5l156 9.5q5 32 5 54q0 129 -122 129zM319 577q-30 0 -46.5 19t-16.5 48q0 27 16 44t47 17q30 0 46.5 -18.5t16.5 -44.5q0 -31 -16.5 -48t-46.5 -17z" />
    <glyph glyph-name="Eogonek" unicode="&#x118;" horiz-adv-x="552" 
d="M429 -187q-19 -4 -39 -4q-44 0 -66.5 20.5t-22.5 52.5q0 66 91 117q-8 0 -140 2l-202 3l127 691q178 1 385 6q-1 -11 -6 -35q-172 -1 -347 -5l-65 -344q191 0 313 2l-5 -34q-185 1 -313 0q-6 -30 -44 -248q183 -3 351 -4q-2 -10 -7 -31q-98 -57 -98 -115q0 -19 14.5 -31
t42.5 -12q12 0 27 3q1 -14 4 -34z" />
    <glyph glyph-name="eogonek" unicode="&#x119;" horiz-adv-x="524" 
d="M240 -202q-19 -4 -39 -4q-43 0 -66.5 20.5t-23.5 52.5q0 62 84 112q-71 10 -110.5 62.5t-39.5 136.5q0 75 27.5 149.5t71.5 118.5q69 69 156 69q75 0 114.5 -45t39.5 -123q0 -33 -10 -81q-98 -4 -355 -18q-7 -35 -7 -70q0 -81 40 -125t109 -44q105 0 182 141
q15 -11 32 -20q-84 -149 -212 -153q-81 -51 -81 -105q0 -42 57 -42l27 2q1 -14 4 -34zM296 483q-67 0 -122 -55q-53 -53 -78 -147q10 1 49.5 3t111.5 6.5l156 9.5q5 32 5 54q0 129 -122 129z" />
    <glyph glyph-name="Ecaron" unicode="&#x11a;" horiz-adv-x="552" 
d="M50 4l127 691q178 1 385 6q-1 -11 -6 -35q-172 -1 -347 -5l-65 -344q191 0 313 2l-5 -34q-185 1 -313 0q-6 -30 -44 -248q183 -3 351 -4l-8 -35q-226 5 -388 6zM276 918l83 -134l73 66.5l56 53.5l20 19l25 -24l-159 -150l-35 -1l-94 148z" />
    <glyph glyph-name="ecaron" unicode="&#x11b;" horiz-adv-x="524" 
d="M226 -23q-85 0 -133 54t-48 147q0 75 27.5 149.5t71.5 118.5q69 69 156 69q75 0 114.5 -45t39.5 -123q0 -33 -10 -81q-98 -4 -355 -18q-7 -35 -7 -70q0 -81 40 -125t109 -44q105 0 182 141q15 -11 32 -20q-86 -153 -219 -153zM296 483q-67 0 -122 -55q-53 -53 -78 -147
q10 1 49.5 3t111.5 6.5l156 9.5q5 32 5 54q0 129 -122 129zM206 723l83 -134l73 66.5l56 53.5l20 19l25 -24l-159 -150l-35 -1l-94 148z" />
    <glyph glyph-name="Gcircumflex" unicode="&#x11c;" horiz-adv-x="641" 
d="M301 -24q-108 0 -171.5 72t-63.5 200q0 102 38.5 213t102.5 175q82 82 176 82q89 0 143 -64t60 -155q-13 -2 -39 -8q-6 85 -50 140t-115 55q-73 0 -140 -67q-64 -64 -101 -170.5t-37 -204.5q0 -112 53.5 -173t147.5 -61q92 0 152 85.5t72 219.5q-66 2 -231 -1q2 9 5 34
q26 0 267 3q-7 -174 -81 -274.5t-188 -100.5zM279 748q-10 13 -23 28l152 148q2 -1 35 -1l98 -147l-29 -22q-41 66 -91 134z" />
    <glyph glyph-name="gcircumflex" unicode="&#x11d;" horiz-adv-x="526" 
d="M206 20q-79 0 -124.5 56t-45.5 146q0 63 22.5 126.5t66.5 107.5q65 65 146 65q65 0 108.5 -49t53.5 -122q22 105 31 160q17 -2 37 -3q-41 -204 -96 -504q-21 -113 -78.5 -160t-149.5 -47q-60 0 -109.5 32t-77.5 86l34 21q24 -48 65.5 -77t89.5 -29q157 0 190 179
q3 19 7.5 44l10 53.5t7.5 41.5q-35 -57 -88 -92t-100 -35zM271 489q-63 0 -115 -52q-80 -80 -80 -217q0 -79 35.5 -123.5t96.5 -44.5q64 0 127 63q81 81 81 173q0 76 -40.5 138.5t-104.5 62.5zM202 553q-10 13 -23 28l152 148q2 -1 35 -1l98 -147l-29 -22q-41 66 -91 134z
" />
    <glyph glyph-name="Gbreve" unicode="&#x11e;" horiz-adv-x="641" 
d="M301 -24q-108 0 -171.5 72t-63.5 200q0 102 38.5 213t102.5 175q82 82 176 82q89 0 143 -64t60 -155q-13 -2 -39 -8q-6 85 -50 140t-115 55q-73 0 -140 -67q-64 -64 -101 -170.5t-37 -204.5q0 -112 53.5 -173t147.5 -61q92 0 152 85.5t72 219.5q-66 2 -231 -1q2 9 5 34
q26 0 267 3q-7 -174 -81 -274.5t-188 -100.5zM389 772q-54 0 -89 35.5t-36 89.5q19 2 37 6q4 -49 25.5 -73t65.5 -24q43 0 69 25.5t39 82.5q12 -4 35 -8q-26 -134 -146 -134z" />
    <glyph glyph-name="gbreve" unicode="&#x11f;" horiz-adv-x="526" 
d="M206 20q-79 0 -124.5 56t-45.5 146q0 63 22.5 126.5t66.5 107.5q65 65 146 65q65 0 108.5 -49t53.5 -122q22 105 31 160q17 -2 37 -3q-41 -204 -96 -504q-21 -113 -78.5 -160t-149.5 -47q-60 0 -109.5 32t-77.5 86l34 21q24 -48 65.5 -77t89.5 -29q157 0 190 179
q3 19 7.5 44l10 53.5t7.5 41.5q-35 -57 -88 -92t-100 -35zM271 489q-63 0 -115 -52q-80 -80 -80 -217q0 -79 35.5 -123.5t96.5 -44.5q64 0 127 63q81 81 81 173q0 76 -40.5 138.5t-104.5 62.5zM312 577q-54 0 -89 35.5t-36 89.5q19 2 37 6q4 -49 25.5 -73t65.5 -24
q43 0 69 25.5t39 82.5q12 -4 35 -8q-26 -134 -146 -134z" />
    <glyph glyph-name="Gcommaaccent" unicode="&#x122;" horiz-adv-x="641" 
d="M301 -24q-108 0 -171.5 72t-63.5 200q0 102 38.5 213t102.5 175q82 82 176 82q89 0 143 -64t60 -155q-13 -2 -39 -8q-6 85 -50 140t-115 55q-73 0 -140 -67q-64 -64 -101 -170.5t-37 -204.5q0 -112 53.5 -173t147.5 -61q92 0 152 85.5t72 219.5q-66 2 -231 -1q2 9 5 34
q26 0 267 3q-7 -174 -81 -274.5t-188 -100.5zM298 -116q0 -37 -29 -73t-72 -59l-15 24q44 23 72 68q-39 4 -39 50q0 20 11 33t30 13q42 0 42 -56z" />
    <glyph glyph-name="gcommaaccent" unicode="&#x123;" horiz-adv-x="526" 
d="M206 20q-79 0 -124.5 56t-45.5 146q0 63 22.5 126.5t66.5 107.5q65 65 146 65q65 0 108.5 -49t53.5 -122q22 105 31 160q17 -2 37 -3q-41 -204 -96 -504q-21 -113 -78.5 -160t-149.5 -47q-60 0 -109.5 32t-77.5 86l34 21q24 -48 65.5 -77t89.5 -29q157 0 190 179
q3 19 7.5 44l10 53.5t7.5 41.5q-35 -57 -88 -92t-100 -35zM271 489q-63 0 -115 -52q-80 -80 -80 -217q0 -79 35.5 -123.5t96.5 -44.5q64 0 127 63q81 81 81 173q0 76 -40.5 138.5t-104.5 62.5zM281 637q0 37 29 73t72 59l15 -24q-44 -23 -72 -68q39 -4 39 -50q0 -20 -11 -33
t-30 -13q-42 0 -42 56z" />
    <glyph glyph-name="Hcircumflex" unicode="&#x124;" horiz-adv-x="621" 
d="M423 -21l55 285q-76 2 -351 -1l-44 -243q-19 3 -38 4l122 650q15 -2 35 -4l-69 -371q135 -4 351 -2l79 424q15 -2 38 -4l-141 -743q-19 3 -37 5zM274 748q-10 13 -23 28l152 148q2 -1 35 -1l98 -147l-29 -22q-41 66 -91 134z" />
    <glyph glyph-name="hcircumflex" unicode="&#x125;" horiz-adv-x="522" 
d="M30 24l125 651q15 -2 40 -4q-38 -185 -67 -340q38 79 90 129t113 50q60 0 93 -37t33 -108q0 -30 -6 -66l-31.5 -173t-23.5 -116l-7 -34q-15 2 -38 4q22 94 60 303q8 45 8 78q0 115 -93 115q-70 0 -136.5 -93.5t-88.5 -200.5l-31 -163q-19 3 -40 5zM64 694q-10 13 -23 28
l152 148q2 -1 35 -1l98 -147l-29 -22q-41 66 -91 134z" />
    <glyph glyph-name="Imacron" unicode="&#x12a;" horiz-adv-x="243" 
d="M50 2l131 695q14 -2 37 -4l-131 -696q-15 3 -37 5zM101 811q4 15 7 40q60 -1 248 2q-5 -14 -10 -40q-86 1 -245 -2z" />
    <glyph glyph-name="imacron" unicode="&#x12b;" horiz-adv-x="225" 
d="M40 2l94 500q17 -3 38 -4l-94 -500q-15 2 -38 4zM54 616q4 15 7 40q60 -1 248 2q-5 -14 -10 -40q-86 1 -245 -2z" />
    <glyph glyph-name="Iogonek" unicode="&#x12e;" horiz-adv-x="243" 
d="M81 -184q-19 -4 -39 -4q-44 0 -66.5 20.5t-22.5 52.5t25 64.5t72 55.5q35 167 131 692q14 -2 37 -4l-130 -690q-95 -55 -95 -113q0 -19 14.5 -31t42.5 -12q12 0 27 3q1 -14 4 -34z" />
    <glyph glyph-name="iogonek" unicode="&#x12f;" horiz-adv-x="225" 
d="M77 -180q-19 -4 -39 -4q-44 0 -66.5 20.5t-22.5 52.5q0 67 92 118l93 495q17 -3 38 -4l-93 -494q-90 -56 -90 -110q0 -42 57 -42q17 0 27 2q1 -14 4 -34zM177 580q-18 0 -28 12t-10 31q0 45 39 45q37 0 37 -43q0 -21 -10.5 -33t-27.5 -12z" />
    <glyph glyph-name="Idotaccent" unicode="&#x130;" horiz-adv-x="243" 
d="M50 2l131 695q14 -2 37 -4l-131 -696q-15 3 -37 5zM229 772q-30 0 -46.5 19t-16.5 48q0 27 16 44t47 17q30 0 46.5 -18.5t16.5 -44.5q0 -31 -16.5 -48t-46.5 -17z" />
    <glyph glyph-name="dotlessi" unicode="&#x131;" horiz-adv-x="225" 
d="M40 2l94 500q17 -3 38 -4l-94 -500q-15 2 -38 4z" />
    <glyph glyph-name="Jcircumflex" unicode="&#x134;" horiz-adv-x="535" 
d="M216 -22q-171 0 -171 179q0 59 19 135q13 -3 38 -4q-19 -75 -19 -129q0 -147 136 -147q72 0 115 53t68 187l86 454q15 -2 42 -3l-92 -459q-27 -141 -78.5 -203.5t-143.5 -62.5zM407 748q-10 13 -23 28l152 148q2 -1 35 -1l98 -147l-29 -22q-41 66 -91 134z" />
    <glyph glyph-name="jcircumflex" unicode="&#x135;" horiz-adv-x="226" 
d="M-118 -210q-1 13 -2 35q69 4 102 29.5t48 94.5l105 556l37 -4q-44 -259 -105 -565q-15 -73 -56.5 -107.5t-128.5 -38.5zM43 553q-10 13 -23 28l152 148q2 -1 35 -1l98 -147l-29 -22q-41 66 -91 134z" />
    <glyph glyph-name="Kcommaaccent" unicode="&#x136;" horiz-adv-x="594" 
d="M467 -23l-195 371l-156 -153l-32 -178l-39 4l127 652l35 -6l-82 -421l465 467l29 -15l-320 -325l206 -387zM286 -116q0 -37 -29 -73t-72 -59l-15 24q44 23 72 68q-39 4 -39 50q0 20 11 33t30 13q42 0 42 -56z" />
    <glyph glyph-name="kcommaaccent" unicode="&#x137;" horiz-adv-x="473" 
d="M349 -26q-95 217 -138 303l-113 -93l-30 -166l-38 6l124 652l39 -5q-70 -350 -86 -439l334 289l27 -19l-229 -202l148 -314zM207 -116q0 -37 -29 -73t-72 -59l-15 24q44 23 72 68q-39 4 -39 50q0 20 11 33t30 13q42 0 42 -56z" />
    <glyph glyph-name="Lacute" unicode="&#x139;" horiz-adv-x="524" 
d="M50 4l127 687q11 -3 38 -5l-121 -648l345 -7l-8 -35zM228 752l-25 24l80 81.5t43 46.5l9 11l35 -31z" />
    <glyph glyph-name="lacute" unicode="&#x13a;" horiz-adv-x="213" 
d="M68 -2l-38 7l135 691l38 -5zM201 754l-25 24l80 81.5t42 46.5l10 11l35 -31z" />
    <glyph glyph-name="Lcommaaccent" unicode="&#x13b;" horiz-adv-x="524" 
d="M50 4l127 687q11 -3 38 -5l-121 -648l345 -7l-8 -35zM254 -116q0 -37 -29 -73t-72 -59l-15 24q44 23 72 68q-39 4 -39 50q0 20 11 33t30 13q42 0 42 -56z" />
    <glyph glyph-name="lcommaaccent" unicode="&#x13c;" horiz-adv-x="213" 
d="M68 -2l-38 7l135 691l38 -5zM70 -116q0 -37 -29 -73t-72 -59l-15 24q44 23 72 68q-39 4 -39 50q0 20 11 33t30 13q42 0 42 -56z" />
    <glyph glyph-name="Lcaron" unicode="&#x13d;" horiz-adv-x="524" 
d="M50 4l127 687q11 -3 38 -5l-121 -648l345 -7l-8 -35zM419 692q0 -37 -29 -73t-72 -59l-15 24q44 23 72 68q-39 4 -39 50q0 20 11 33t30 13q42 0 42 -56z" />
    <glyph glyph-name="lcaron" unicode="&#x13e;" horiz-adv-x="213" 
d="M68 -2l-38 7l135 691l38 -5zM354 640q0 -37 -29 -73t-72 -59l-15 24q44 23 72 68q-39 4 -39 50q0 20 11 33t30 13q42 0 42 -56z" />
    <glyph glyph-name="Lslash" unicode="&#x141;" horiz-adv-x="528" 
d="M54 4l60 320l-89 -32q4 14 8 37l87 30l61 332q11 -3 38 -5l-60 -313q56 19 179 65q-3 -15 -6 -36l-179 -64l-55 -300l345 -7l-8 -35z" />
    <glyph glyph-name="lslash" unicode="&#x142;" horiz-adv-x="288" 
d="M107 -2l-38 7l71 357l-105 -48l8 39l104 46l57 297l38 -5l-55 -274l106 48q-4 -16 -9 -40l-104 -46z" />
    <glyph glyph-name="Nacute" unicode="&#x143;" horiz-adv-x="642" 
d="M45 24l123 647q16 1 50 5l239 -663q52 271 127 708q13 -3 38 -6l-136 -734q-17 -1 -54 -6l-236 655q-55 -279 -113 -612q-15 3 -38 6zM399 752l-25 24l80 81.5t42 46.5l10 11l35 -31z" />
    <glyph glyph-name="nacute" unicode="&#x144;" horiz-adv-x="524" 
d="M353 -24l59 307q9 45 9 80q0 112 -97 112q-49 0 -97.5 -50t-80.5 -117t-46 -133l-30 -156q-17 3 -40 5l90 460q15 -2 39 -4l-31 -150q44 90 97.5 134.5t104.5 44.5q64 0 96.5 -39t32.5 -107q0 -29 -6 -62l-62 -329zM314 557l-25 24l80 81.5l43 45.5l9 12l35 -31z" />
    <glyph glyph-name="Ncommaaccent" unicode="&#x145;" horiz-adv-x="642" 
d="M45 24l123 647q16 1 50 5l239 -663q52 271 127 708q13 -3 38 -6l-136 -734q-17 -1 -54 -6l-236 655q-55 -279 -113 -612q-15 3 -38 6zM276 -116q0 -37 -29 -73t-72 -59l-15 24q44 23 72 68q-39 4 -39 50q0 20 11 33t30 13q42 0 42 -56z" />
    <glyph glyph-name="ncommaaccent" unicode="&#x146;" horiz-adv-x="524" 
d="M353 -24l59 307q9 45 9 80q0 112 -97 112q-49 0 -97.5 -50t-80.5 -117t-46 -133l-30 -156q-17 3 -40 5l90 460q15 -2 39 -4l-31 -150q44 90 97.5 134.5t104.5 44.5q64 0 96.5 -39t32.5 -107q0 -29 -6 -62l-62 -329zM229 -116q0 -37 -29 -73t-72 -59l-15 24q44 23 72 68
q-39 4 -39 50q0 20 11 33t30 13q42 0 42 -56z" />
    <glyph glyph-name="Ncaron" unicode="&#x147;" horiz-adv-x="642" 
d="M45 24l123 647q16 1 50 5l239 -663q52 271 127 708q13 -3 38 -6l-136 -734q-17 -1 -54 -6l-236 655q-55 -279 -113 -612q-15 3 -38 6zM305 918l83 -134l73.5 66.5t56.5 53.5l19 19l25 -24l-159 -150l-35 -1l-94 148z" />
    <glyph glyph-name="ncaron" unicode="&#x148;" horiz-adv-x="524" 
d="M353 -24l59 307q9 45 9 80q0 112 -97 112q-49 0 -97.5 -50t-80.5 -117t-46 -133l-30 -156q-17 3 -40 5l90 460q15 -2 39 -4l-31 -150q44 90 97.5 134.5t104.5 44.5q64 0 96.5 -39t32.5 -107q0 -29 -6 -62l-62 -329zM220 723l83 -134l73 66.5l56 53.5l20 19l25 -24
l-159 -150l-35 -1l-94 148z" />
    <glyph glyph-name="Omacron" unicode="&#x14c;" horiz-adv-x="667" 
d="M305 -25q-112 0 -176 78t-64 212q0 101 34 203t98 166q85 85 185 85q117 0 176 -85t59 -216q0 -102 -34.5 -201t-100.5 -166q-76 -76 -177 -76zM306 9q86 0 152 66q56 56 89 155.5t33 190.5q0 115 -51 190.5t-150 75.5q-80 0 -150 -70q-59 -59 -93.5 -158t-34.5 -195
q0 -119 55.5 -187t149.5 -68zM291 811q4 15 7 40q60 -1 248 2q-5 -14 -10 -40q-86 1 -245 -2z" />
    <glyph glyph-name="omacron" unicode="&#x14d;" horiz-adv-x="534" 
d="M229 -23q-86 0 -135 58.5t-49 154.5q0 69 25.5 142.5t71.5 119.5q63 63 143 63q87 0 135 -61t48 -155q0 -66 -25.5 -141.5t-71.5 -121.5q-59 -59 -142 -59zM231 9q64 0 111 47q39 39 64 110t25 135q0 79 -38.5 130.5t-108.5 51.5q-64 0 -113 -49q-41 -41 -65 -110
t-24 -134q0 -83 39.5 -132t109.5 -49zM191 616q4 15 7 40q60 -1 248 2q-5 -14 -10 -40q-86 1 -245 -2z" />
    <glyph glyph-name="Ohungarumlaut" unicode="&#x150;" horiz-adv-x="667" 
d="M305 -25q-112 0 -176 78t-64 212q0 101 34 203t98 166q85 85 185 85q117 0 176 -85t59 -216q0 -102 -34.5 -201t-100.5 -166q-76 -76 -177 -76zM306 9q86 0 152 66q56 56 89 155.5t33 190.5q0 115 -51 190.5t-150 75.5q-80 0 -150 -70q-59 -59 -93.5 -158t-34.5 -195
q0 -119 55.5 -187t149.5 -68zM453 754l-26 21l120 150l37 -25zM330 758l-27 19l119 150l34 -27z" />
    <glyph glyph-name="ohungarumlaut" unicode="&#x151;" horiz-adv-x="534" 
d="M229 -23q-86 0 -135 58.5t-49 154.5q0 69 25.5 142.5t71.5 119.5q63 63 143 63q87 0 135 -61t48 -155q0 -66 -25.5 -141.5t-71.5 -121.5q-59 -59 -142 -59zM231 9q64 0 111 47q39 39 64 110t25 135q0 79 -38.5 130.5t-108.5 51.5q-64 0 -113 -49q-41 -41 -65 -110
t-24 -134q0 -83 39.5 -132t109.5 -49zM353 559l-26 21l120 150l37 -25zM230 563l-27 19l119 150l34 -27z" />
    <glyph glyph-name="OE" unicode="&#x152;" horiz-adv-x="1014" 
d="M915 292q-17 0 -45.5 0.5t-115.5 1.5t-152 -1q-29 -160 -44 -254q17 -1 47 -2t122 -2t183 -1q-6 -20 -9 -37q-19 3 -387 9q7 30 21 114q-41 -75 -101 -115t-129 -40q-109 0 -174.5 77.5t-65.5 213.5q0 105 35 205t99 164q84 84 183 84q95 0 150 -58.5t72 -152.5
q3 18 15 85t19 111q113 -1 386 4q-3 -16 -5 -34q-152 1 -348 -4l-63 -334q6 0 59.5 -0.5t120 -0.5t132.5 1zM306 -1q84 0 149 62q56 52 90 153.5t34 195.5q0 115 -50 191t-150 76q-79 0 -150 -71q-61 -61 -94 -156.5t-33 -194.5q0 -120 54.5 -188t149.5 -68z" />
    <glyph glyph-name="oe" unicode="&#x153;" horiz-adv-x="897" 
d="M600 -28q-74 0 -120 43t-55 115q-70 -143 -196 -143q-86 0 -134.5 58.5t-48.5 155.5q0 70 24.5 142.5t69.5 117.5q64 64 145 64q78 0 122.5 -48t55.5 -120q34 72 88.5 112.5t122.5 40.5q77 0 115 -45t38 -122q0 -39 -9 -82q-67 -2 -354 -18q-7 -36 -7 -71q0 -80 40 -124
t108 -44q54 0 97 34t85 107q12 -9 32 -20q-45 -76 -97 -114.5t-122 -38.5zM231 19q64 0 111 47q40 40 64 111.5t24 131.5q0 78 -36.5 131t-109.5 53q-63 0 -116 -53q-42 -42 -64 -110t-22 -131q0 -85 41 -132.5t108 -47.5zM670 478q-72 0 -123 -56t-75 -146q6 0 122.5 7
t192.5 12q5 32 5 54q0 129 -122 129z" />
    <glyph glyph-name="Racute" unicode="&#x154;" horiz-adv-x="588" 
d="M455 -28l-134 338q-31 -4 -74 -4q-56 0 -112 7q-39 -208 -53 -292q-18 3 -38 4l119 657q79 12 143 12q129 0 197.5 -46t68.5 -127t-56.5 -134.5t-157.5 -70.5l135 -333q-13 -3 -38 -11zM141 349q65 -9 120 -9q74 0 133.5 15.5t101.5 57t42 104.5q0 66 -60.5 105
t-172.5 39q-45 0 -109 -8zM363 752l-25 24l80 81.5t42 46.5l10 11l35 -31z" />
    <glyph glyph-name="racute" unicode="&#x155;" horiz-adv-x="342" 
d="M30 4l92 478q16 -3 36 -5q-20 -88 -37 -174q34 78 91 138.5t124 74.5l11 -32q-85 -23 -153 -108t-90 -191q-11 -51 -19.5 -97.5t-11.5 -67.5l-3 -21zM247 557l-25 24l80 81.5t42 45.5l10 12l35 -31z" />
    <glyph glyph-name="Rcommaaccent" unicode="&#x156;" horiz-adv-x="588" 
d="M455 -28l-134 338q-31 -4 -74 -4q-56 0 -112 7q-39 -208 -53 -292q-18 3 -38 4l119 657q79 12 143 12q129 0 197.5 -46t68.5 -127t-56.5 -134.5t-157.5 -70.5l135 -333q-13 -3 -38 -11zM141 349q65 -9 120 -9q74 0 133.5 15.5t101.5 57t42 104.5q0 66 -60.5 105
t-172.5 39q-45 0 -109 -8zM267 -116q0 -37 -29 -73t-72 -59l-15 24q44 23 72 68q-39 4 -39 50q0 20 11 33t30 13q42 0 42 -56z" />
    <glyph glyph-name="rcommaaccent" unicode="&#x157;" horiz-adv-x="342" 
d="M30 4l92 478q16 -3 36 -5q-20 -88 -37 -174q34 78 91 138.5t124 74.5l11 -32q-85 -23 -153 -108t-90 -191q-11 -51 -19.5 -97.5t-11.5 -67.5l-3 -21zM73 -116q0 -37 -29 -73t-72 -59l-15 24q44 23 72 68q-39 4 -39 50q0 20 11 33t30 13q42 0 42 -56z" />
    <glyph glyph-name="Rcaron" unicode="&#x158;" horiz-adv-x="588" 
d="M455 -28l-134 338q-31 -4 -74 -4q-56 0 -112 7q-39 -208 -53 -292q-18 3 -38 4l119 657q79 12 143 12q129 0 197.5 -46t68.5 -127t-56.5 -134.5t-157.5 -70.5l135 -333q-13 -3 -38 -11zM141 349q65 -9 120 -9q74 0 133.5 15.5t101.5 57t42 104.5q0 66 -60.5 105
t-172.5 39q-45 0 -109 -8zM269 918l83 -134l73 66.5l57 53.5l19 19l25 -24l-159 -150l-35 -1l-94 148z" />
    <glyph glyph-name="rcaron" unicode="&#x159;" horiz-adv-x="342" 
d="M30 4l92 478q16 -3 36 -5q-20 -88 -37 -174q34 78 91 138.5t124 74.5l11 -32q-85 -23 -153 -108t-90 -191q-11 -51 -19.5 -97.5t-11.5 -67.5l-3 -21zM153 723l83 -134l73 66.5l57 53.5l19 19l25 -24l-159 -150l-35 -1l-94 148z" />
    <glyph glyph-name="Sacute" unicode="&#x15a;" horiz-adv-x="573" 
d="M271 -19q-113 0 -177.5 63t-69.5 178q15 3 41 6q8 -114 61 -163.5t145 -49.5q71 0 124 42.5t53 117.5q0 49 -37.5 84t-128.5 72q-159 65 -159 185q0 86 60 142t156 56q94 0 147.5 -58.5t61.5 -163.5l-39 -6q-7 96 -51.5 145.5t-120.5 49.5q-75 0 -125.5 -45t-50.5 -117
q0 -98 146 -158q92 -38 135.5 -81.5t43.5 -104.5q0 -83 -61.5 -138.5t-153.5 -55.5zM350 752l-25 24l80 81.5t43 46.5l9 11l35 -31z" />
    <glyph glyph-name="sacute" unicode="&#x15b;" horiz-adv-x="464" 
d="M195 -21q-78 0 -129.5 44t-55.5 124l39 6q5 -67 43.5 -104.5t107.5 -37.5q60 0 99.5 30.5t39.5 82.5q0 33 -28 58.5t-97 49.5q-135 46 -135 140q0 60 45 101.5t119 41.5q73 0 119 -45t58 -117l-34 -10q-12 64 -47.5 102t-95.5 38q-58 0 -91 -30t-33 -79q0 -35 26.5 -62.5
t91.5 -50.5q76 -26 108 -58t32 -77q0 -68 -52.5 -107.5t-129.5 -39.5zM273 557l-25 24l80 81.5t42 45.5l10 12l35 -31z" />
    <glyph glyph-name="Scircumflex" unicode="&#x15c;" horiz-adv-x="573" 
d="M271 -19q-113 0 -177.5 63t-69.5 178q15 3 41 6q8 -114 61 -163.5t145 -49.5q71 0 124 42.5t53 117.5q0 49 -37.5 84t-128.5 72q-159 65 -159 185q0 86 60 142t156 56q94 0 147.5 -58.5t61.5 -163.5l-39 -6q-7 96 -51.5 145.5t-120.5 49.5q-75 0 -125.5 -45t-50.5 -117
q0 -98 146 -158q92 -38 135.5 -81.5t43.5 -104.5q0 -83 -61.5 -138.5t-153.5 -55.5zM250 748q-10 13 -23 28l152 148q2 -1 35 -1l98 -147l-29 -22q-41 66 -91 134z" />
    <glyph glyph-name="scircumflex" unicode="&#x15d;" horiz-adv-x="464" 
d="M195 -21q-78 0 -129.5 44t-55.5 124l39 6q5 -67 43.5 -104.5t107.5 -37.5q60 0 99.5 30.5t39.5 82.5q0 33 -28 58.5t-97 49.5q-135 46 -135 140q0 60 45 101.5t119 41.5q73 0 119 -45t58 -117l-34 -10q-12 64 -47.5 102t-95.5 38q-58 0 -91 -30t-33 -79q0 -35 26.5 -62.5
t91.5 -50.5q76 -26 108 -58t32 -77q0 -68 -52.5 -107.5t-129.5 -39.5zM173 553q-10 13 -23 28l152 148q2 -1 35 -1l98 -147l-29 -22q-41 66 -91 134z" />
    <glyph glyph-name="Scedilla" unicode="&#x15e;" horiz-adv-x="573" 
d="M271 -19h-6l-17 -63q40 -1 62 -18t22 -41q0 -34 -32.5 -53t-77.5 -19q-56 0 -95 26q7 11 17 31q38 -25 79 -25q29 0 50.5 10.5t21.5 27.5q0 32 -65 32q-7 0 -29 -2q14 37 33 96q-96 11 -151 72.5t-59 166.5q15 3 41 6q8 -114 61 -163.5t145 -49.5q71 0 124 42.5t53 117.5
q0 49 -37.5 84t-128.5 72q-159 65 -159 185q0 86 60 142t156 56q94 0 147.5 -58.5t61.5 -163.5l-39 -6q-7 96 -51.5 145.5t-120.5 49.5q-75 0 -125.5 -45t-50.5 -117q0 -98 146 -158q92 -38 135.5 -81.5t43.5 -104.5q0 -83 -61.5 -138.5t-153.5 -55.5z" />
    <glyph glyph-name="scedilla" unicode="&#x15f;" horiz-adv-x="464" 
d="M195 -21h-4l-16 -59q40 -1 62 -18t22 -41q0 -34 -32.5 -53t-77.5 -19q-56 0 -95 26q7 11 17 31q37 -25 79 -25q30 0 51 10.5t21 27.5q0 32 -65 32q-7 0 -29 -2l32 92q-65 9 -105.5 52t-44.5 114l39 6q5 -67 43.5 -104.5t107.5 -37.5q60 0 99.5 30.5t39.5 82.5
q0 33 -28 58.5t-97 49.5q-135 46 -135 140q0 60 45 101.5t119 41.5q73 0 119 -45t58 -117l-34 -10q-12 64 -47.5 102t-95.5 38q-58 0 -91 -30t-33 -79q0 -35 26.5 -62.5t91.5 -50.5q76 -26 108 -58t32 -77q0 -68 -52.5 -107.5t-129.5 -39.5z" />
    <glyph glyph-name="Scaron" unicode="&#x160;" horiz-adv-x="573" 
d="M271 -19q-113 0 -177.5 63t-69.5 178q15 3 41 6q8 -114 61 -163.5t145 -49.5q71 0 124 42.5t53 117.5q0 49 -37.5 84t-128.5 72q-159 65 -159 185q0 86 60 142t156 56q94 0 147.5 -58.5t61.5 -163.5l-39 -6q-7 96 -51.5 145.5t-120.5 49.5q-75 0 -125.5 -45t-50.5 -117
q0 -98 146 -158q92 -38 135.5 -81.5t43.5 -104.5q0 -83 -61.5 -138.5t-153.5 -55.5zM256 918l83 -134l73 66.5l56 53.5l20 19l25 -24l-159 -150l-35 -1l-94 148z" />
    <glyph glyph-name="scaron" unicode="&#x161;" horiz-adv-x="464" 
d="M195 -21q-78 0 -129.5 44t-55.5 124l39 6q5 -67 43.5 -104.5t107.5 -37.5q60 0 99.5 30.5t39.5 82.5q0 33 -28 58.5t-97 49.5q-135 46 -135 140q0 60 45 101.5t119 41.5q73 0 119 -45t58 -117l-34 -10q-12 64 -47.5 102t-95.5 38q-58 0 -91 -30t-33 -79q0 -35 26.5 -62.5
t91.5 -50.5q76 -26 108 -58t32 -77q0 -68 -52.5 -107.5t-129.5 -39.5zM179 723l83 -134l73 66.5l57 53.5l19 19l25 -24l-159 -150l-35 -1l-94 148z" />
    <glyph glyph-name="Tcommaaccent" unicode="&#x162;" horiz-adv-x="531" 
d="M90 665q3 15 5 33q202 0 481 5q-3 -14 -6 -35q-88 1 -221 0l-127 -687q-17 3 -39 4l129 682q-60 0 -222 -2zM230 -116q0 -37 -29 -73t-72 -59l-15 24q44 23 72 68q-39 4 -39 50q0 20 11 33t30 13q42 0 42 -56z" />
    <glyph glyph-name="tcommaaccent" unicode="&#x163;" horiz-adv-x="401" 
d="M329 97q-83 -100 -165 -100q-45 0 -69 31t-24 86q0 26 4 50q13 78 58 301h-93l5 33q68 -2 94 -2l29 140l38 8l-31 -149h186l-8 -32q-176 2 -184 2q-43 -218 -56 -297q-4 -27 -4 -53q0 -83 58 -83q35 0 64.5 19t70.5 68zM181 -116q0 -37 -29 -73t-72 -59l-15 24
q44 23 72 68q-39 4 -39 50q0 20 11 33t30 13q42 0 42 -56z" />
    <glyph glyph-name="Tcaron" unicode="&#x164;" horiz-adv-x="531" 
d="M90 665q3 15 5 33q202 0 481 5q-3 -14 -6 -35q-88 1 -221 0l-127 -687q-17 3 -39 4l129 682q-60 0 -222 -2zM258 918l83 -134l73.5 66.5t56.5 53.5l19 19l25 -24l-159 -150l-35 -1l-94 148z" />
    <glyph glyph-name="tcaron" unicode="&#x165;" horiz-adv-x="401" 
d="M329 97q-83 -100 -165 -100q-45 0 -69 31t-24 86q0 26 4 50q13 78 58 301h-93l5 33q68 -2 94 -2l29 140l38 8l-31 -149h186l-8 -32q-176 2 -184 2q-43 -218 -56 -297q-4 -27 -4 -53q0 -83 58 -83q35 0 64.5 19t70.5 68zM391 721q0 -37 -29 -73t-72 -59l-15 24
q44 23 72 68q-39 4 -39 50q0 20 11 33t30 13q42 0 42 -56z" />
    <glyph glyph-name="Umacron" unicode="&#x16a;" horiz-adv-x="625" 
d="M276 -14q-94 0 -147.5 55t-53.5 165q0 45 11 106l69 359q19 -4 40 -6l-71 -360q-11 -60 -11 -101q0 -91 43.5 -136.5t124.5 -45.5q161 0 211 260l84 442q18 -3 44 -4l-89 -444q-30 -150 -92.5 -220t-162.5 -70zM273 811q4 15 7 40q60 -1 248 2q-5 -14 -10 -40
q-86 1 -245 -2z" />
    <glyph glyph-name="umacron" unicode="&#x16b;" horiz-adv-x="513" 
d="M197 -4q-67 0 -104.5 43t-37.5 123q0 33 8 79l45 241q15 -3 38 -6l-48 -242q-8 -42 -8 -72q0 -64 29 -97.5t81 -33.5q69 0 124 69.5t83 199.5l45 229q13 -3 36 -6q-46 -221 -105 -537q-17 3 -37 5q17 67 35 159q-73 -154 -184 -154zM187 616q4 15 7 40q60 -1 248 2
q-5 -14 -10 -40q-86 1 -245 -2z" />
    <glyph glyph-name="Ubreve" unicode="&#x16c;" horiz-adv-x="625" 
d="M276 -14q-94 0 -147.5 55t-53.5 165q0 45 11 106l69 359q19 -4 40 -6l-71 -360q-11 -60 -11 -101q0 -91 43.5 -136.5t124.5 -45.5q161 0 211 260l84 442q18 -3 44 -4l-89 -444q-30 -150 -92.5 -220t-162.5 -70zM392 772q-54 0 -89 35.5t-36 89.5q19 2 37 6
q4 -49 25.5 -73t65.5 -24q43 0 69 25.5t39 82.5q12 -4 35 -8q-26 -134 -146 -134z" />
    <glyph glyph-name="ubreve" unicode="&#x16d;" horiz-adv-x="513" 
d="M197 -4q-67 0 -104.5 43t-37.5 123q0 33 8 79l45 241q15 -3 38 -6l-48 -242q-8 -42 -8 -72q0 -64 29 -97.5t81 -33.5q69 0 124 69.5t83 199.5l45 229q13 -3 36 -6q-46 -221 -105 -537q-17 3 -37 5q17 67 35 159q-73 -154 -184 -154zM306 577q-54 0 -89 35.5t-36 89.5
q19 2 37 6q4 -49 25.5 -73t65.5 -24q43 0 69 25.5t39 82.5q12 -4 35 -8q-26 -134 -146 -134z" />
    <glyph glyph-name="Uring" unicode="&#x16e;" horiz-adv-x="625" 
d="M276 -14q-94 0 -147.5 55t-53.5 165q0 45 11 106l69 359q19 -4 40 -6l-71 -360q-11 -60 -11 -101q0 -91 43.5 -136.5t124.5 -45.5q161 0 211 260l84 442q18 -3 44 -4l-89 -444q-30 -150 -92.5 -220t-162.5 -70zM403 755q-46 0 -74 27.5t-28 71.5q0 43 28 71t75 28
q53 0 78.5 -31t25.5 -68q0 -45 -30 -72t-75 -27zM405 785q30 0 48.5 18.5t18.5 50.5q0 28 -17 48.5t-50 20.5q-68 0 -68 -68q0 -31 17.5 -50.5t50.5 -19.5z" />
    <glyph glyph-name="uring" unicode="&#x16f;" horiz-adv-x="513" 
d="M197 -4q-67 0 -104.5 43t-37.5 123q0 33 8 79l45 241q15 -3 38 -6l-48 -242q-8 -42 -8 -72q0 -64 29 -97.5t81 -33.5q69 0 124 69.5t83 199.5l45 229q13 -3 36 -6q-46 -221 -105 -537q-17 3 -37 5q17 67 35 159q-73 -154 -184 -154zM317 560q-46 0 -74 27.5t-28 71.5
q0 43 28 71t75 28q53 0 78.5 -31t25.5 -68q0 -45 -30 -72t-75 -27zM319 590q30 0 48.5 18.5t18.5 50.5q0 28 -17 48.5t-50 20.5q-68 0 -68 -68q0 -31 17.5 -50.5t50.5 -19.5z" />
    <glyph glyph-name="Uhungarumlaut" unicode="&#x170;" horiz-adv-x="625" 
d="M276 -14q-94 0 -147.5 55t-53.5 165q0 45 11 106l69 359q19 -4 40 -6l-71 -360q-11 -60 -11 -101q0 -91 43.5 -136.5t124.5 -45.5q161 0 211 260l84 442q18 -3 44 -4l-89 -444q-30 -150 -92.5 -220t-162.5 -70zM434 754l-26 21l120 150l37 -25zM311 758l-27 19l119 150
l34 -27z" />
    <glyph glyph-name="uhungarumlaut" unicode="&#x171;" horiz-adv-x="513" 
d="M197 -4q-67 0 -104.5 43t-37.5 123q0 33 8 79l45 241q15 -3 38 -6l-48 -242q-8 -42 -8 -72q0 -64 29 -97.5t81 -33.5q69 0 124 69.5t83 199.5l45 229q13 -3 36 -6q-46 -221 -105 -537q-17 3 -37 5q17 67 35 159q-73 -154 -184 -154zM348 559l-26 21l120 150l37 -25z
M225 563l-27 19l119 150l34 -27z" />
    <glyph glyph-name="Uogonek" unicode="&#x172;" horiz-adv-x="625" 
d="M277 -193q-19 -4 -39 -4q-43 0 -66.5 20.5t-23.5 52.5q0 63 86 113q-76 12 -117.5 66t-41.5 151q0 45 11 106l69 359q19 -4 40 -6l-71 -360q-11 -60 -11 -101q0 -91 43.5 -136.5t124.5 -45.5q161 0 211 260l84 442q18 -3 44 -4l-89 -444q-30 -150 -92.5 -220t-162.5 -70
h-6q-81 -51 -81 -105q0 -42 57 -42l27 2q1 -14 4 -34z" />
    <glyph glyph-name="uogonek" unicode="&#x173;" horiz-adv-x="513" 
d="M376 -190q-19 -4 -38 -4q-43 0 -66.5 20.5t-23.5 51.5q0 72 100 123q12 46 33 149q-73 -154 -184 -154q-67 0 -104.5 43t-37.5 123q0 33 8 79l45 241q15 -3 38 -6l-48 -242q-8 -42 -8 -72q0 -64 29 -97.5t81 -33.5q69 0 124 69.5t83 199.5l45 229q13 -3 36 -6
q-44 -209 -103 -525q-97 -55 -97 -114q0 -42 57 -42q17 0 27 2q1 -14 4 -34z" />
    <glyph glyph-name="Ydieresis" unicode="&#x178;" horiz-adv-x="599" 
d="M219 -6q26 130 43 240l-134 447q13 2 35 8l124 -411l321 432q12 -6 35 -14l-343 -460q-22 -110 -44 -246q-14 3 -37 4zM309 783q-21 0 -34 13t-13 33q0 19 14 31t33 12q20 0 34 -12.5t14 -31.5q0 -22 -13.5 -33.5t-34.5 -11.5zM490 784q-19 0 -32 12.5t-13 34.5
q0 18 13 30t34 12t32 -12.5t11 -31.5q0 -21 -13 -33t-32 -12z" />
    <glyph glyph-name="Zacute" unicode="&#x179;" horiz-adv-x="557" 
d="M444 -2l-424 5l4 29l489 633l-379 -6l5 35l423 7l-2 -30l-489 -633l382 -3zM356 752l-25 24l80 81.5t43 46.5l9 11l35 -31z" />
    <glyph glyph-name="zacute" unicode="&#x17a;" horiz-adv-x="463" 
d="M357 -3l-342 8l5 35l362 422l-282 -3l5 36l328 3l-2 -33l-366 -426l301 -5zM271 557l-25 24l80 81.5t42 45.5l10 12l35 -31z" />
    <glyph glyph-name="Zdotaccent" unicode="&#x17b;" horiz-adv-x="557" 
d="M444 -2l-424 5l4 29l489 633l-379 -6l5 35l423 7l-2 -30l-489 -633l382 -3zM375 772q-30 0 -46.5 19t-16.5 48q0 27 16 44t47 17q30 0 46.5 -18.5t16.5 -44.5q0 -31 -16.5 -48t-46.5 -17z" />
    <glyph glyph-name="zdotaccent" unicode="&#x17c;" horiz-adv-x="463" 
d="M357 -3l-342 8l5 35l362 422l-282 -3l5 36l328 3l-2 -33l-366 -426l301 -5zM290 577q-30 0 -46.5 19t-16.5 48q0 27 16 44t47 17q30 0 46.5 -18.5t16.5 -44.5q0 -31 -16.5 -48t-46.5 -17z" />
    <glyph glyph-name="Zcaron" unicode="&#x17d;" horiz-adv-x="557" 
d="M444 -2l-424 5l4 29l489 633l-379 -6l5 35l423 7l-2 -30l-489 -633l382 -3zM262 918l83 -134l73.5 66.5t56.5 53.5l19 19l25 -24l-159 -150l-35 -1l-94 148z" />
    <glyph glyph-name="zcaron" unicode="&#x17e;" horiz-adv-x="463" 
d="M357 -3l-342 8l5 35l362 422l-282 -3l5 36l328 3l-2 -33l-366 -426l301 -5zM177 723l83 -134l73 66.5l57 53.5l19 19l25 -24l-159 -150l-35 -1l-94 148z" />
    <glyph glyph-name="florin" unicode="&#x192;" horiz-adv-x="470" 
d="M363 378l-134 3q-53 -278 -73 -366q-35 -156 -153 -156q-34 0 -68 10q5 12 11 35q33 -9 58 -9q45 0 72 28.5t41 89.5q19 81 75 368l-95 1l2 33q76 -2 99 -2l21 104q32 155 146 155q36 0 80 -15l-10 -33q-43 16 -71 16q-42 0 -67.5 -30.5t-39.5 -92.5q-8 -33 -22 -105h127
z" />
    <glyph glyph-name="Scommaaccent" unicode="&#x218;" horiz-adv-x="573" 
d="M271 -19q-113 0 -177.5 63t-69.5 178q15 3 41 6q8 -114 61 -163.5t145 -49.5q71 0 124 42.5t53 117.5q0 49 -37.5 84t-128.5 72q-159 65 -159 185q0 86 60 142t156 56q94 0 147.5 -58.5t61.5 -163.5l-39 -6q-7 96 -51.5 145.5t-120.5 49.5q-75 0 -125.5 -45t-50.5 -117
q0 -98 146 -158q92 -38 135.5 -81.5t43.5 -104.5q0 -83 -61.5 -138.5t-153.5 -55.5zM261 -116q0 -37 -29 -73t-72 -59l-15 24q44 23 72 68q-39 4 -39 50q0 20 11 33t30 13q42 0 42 -56z" />
    <glyph glyph-name="scommaaccent" unicode="&#x219;" horiz-adv-x="464" 
d="M195 -21q-78 0 -129.5 44t-55.5 124l39 6q5 -67 43.5 -104.5t107.5 -37.5q60 0 99.5 30.5t39.5 82.5q0 33 -28 58.5t-97 49.5q-135 46 -135 140q0 60 45 101.5t119 41.5q73 0 119 -45t58 -117l-34 -10q-12 64 -47.5 102t-95.5 38q-58 0 -91 -30t-33 -79q0 -35 26.5 -62.5
t91.5 -50.5q76 -26 108 -58t32 -77q0 -68 -52.5 -107.5t-129.5 -39.5zM213 -116q0 -37 -29 -73t-72 -59l-15 24q44 23 72 68q-39 4 -39 50q0 20 11 33t30 13q42 0 42 -56z" />
    <glyph glyph-name="uni0237" unicode="&#x237;" horiz-adv-x="226" 
d="M-118 -210q-1 13 -2 35q69 4 102 29.5t48 94.5l105 556l37 -4q-44 -259 -105 -565q-15 -73 -56.5 -107.5t-128.5 -38.5z" />
    <glyph glyph-name="circumflex" unicode="&#x2c6;" horiz-adv-x="534" 
d="M197 553q-10 13 -23 28l152 148q2 -1 35 -1l98 -147l-29 -22q-41 66 -91 134z" />
    <glyph glyph-name="caron" unicode="&#x2c7;" horiz-adv-x="534" 
d="M251 723l83 -134l73 66.5l57 53.5l19 19l25 -24l-159 -150l-35 -1l-94 148z" />
    <glyph glyph-name="breve" unicode="&#x2d8;" horiz-adv-x="534" 
d="M306 577q-54 0 -89 35.5t-36 89.5q19 2 37 6q4 -49 25.5 -73t65.5 -24q43 0 69 25.5t39 82.5q12 -4 35 -8q-26 -134 -146 -134z" />
    <glyph glyph-name="dotaccent" unicode="&#x2d9;" horiz-adv-x="534" 
d="M319 577q-30 0 -46.5 19t-16.5 48q0 27 16 44t47 17q30 0 46.5 -18.5t16.5 -44.5q0 -31 -16.5 -48t-46.5 -17z" />
    <glyph glyph-name="ring" unicode="&#x2da;" horiz-adv-x="534" 
d="M324 560q-46 0 -74 27.5t-28 71.5q0 43 28 71t75 28q53 0 78.5 -31t25.5 -68q0 -45 -30 -72t-75 -27zM326 590q30 0 48.5 18.5t18.5 50.5q0 28 -17 48.5t-50 20.5q-68 0 -68 -68q0 -31 17.5 -50.5t50.5 -19.5z" />
    <glyph glyph-name="ogonek" unicode="&#x2db;" horiz-adv-x="534" 
d="M268 -195q-19 -4 -39 -4q-43 0 -66.5 20.5t-23.5 52.5q0 69 102 122h41q-102 -55 -102 -117q0 -42 57 -42l27 2q1 -14 4 -34z" />
    <glyph glyph-name="tilde" unicode="&#x2dc;" horiz-adv-x="534" 
d="M188 575q-19 4 -39 5q9 62 36 94.5t67 32.5q24 0 44.5 -15t33 -33.5t29 -33.5t32.5 -15q45 0 59 98q7 -2 34 -3q-14 -129 -93 -129q-24 0 -44.5 15t-32.5 33.5t-28.5 33.5t-32.5 15q-28 0 -42.5 -24t-22.5 -74z" />
    <glyph glyph-name="hungarumlaut" unicode="&#x2dd;" horiz-adv-x="534" 
d="M370 559l-26 21l120 150l37 -25zM247 563l-27 19l119 150l34 -27z" />
    <glyph glyph-name="endash" unicode="&#x2013;" horiz-adv-x="471" 
d="M435 316l-395 2l8 36h393z" />
    <glyph glyph-name="emdash" unicode="&#x2014;" horiz-adv-x="560" 
d="M40 316q3 10 6 35q255 -2 484 3q-4 -15 -8 -38q-277 2 -482 0z" />
    <glyph glyph-name="quoteleft" unicode="&#x2018;" horiz-adv-x="221" 
d="M150 496q-22 0 -37.5 18.5t-15.5 56.5q0 40 34 81.5t92 60.5l10 -26q-60 -25 -88 -80q52 -4 52 -57q0 -24 -13 -39t-34 -15z" />
    <glyph glyph-name="quoteright" unicode="&#x2019;" horiz-adv-x="221" 
d="M108 492l-13 26q54 25 85 75q-24 3 -38 18.5t-14 37.5q0 26 14 41.5t39 15.5q23 0 36.5 -20t13.5 -51q0 -42 -35.5 -82.5t-87.5 -60.5z" />
    <glyph glyph-name="quotesinglbase" unicode="&#x201a;" horiz-adv-x="221" 
d="M131 34q0 -42 -35.5 -82t-86.5 -60l-14 25q53 25 85 76q-24 2 -38 17.5t-14 37.5q0 26 14 41.5t39 15.5q23 0 36.5 -20t13.5 -51z" />
    <glyph glyph-name="quotedblleft" unicode="&#x201c;" horiz-adv-x="358" 
d="M298 472q-23 0 -38.5 19t-15.5 55q0 41 30.5 80t87.5 66l13 -25q-57 -34 -83 -82q27 -1 40 -16.5t13 -39.5q0 -26 -12 -41.5t-35 -15.5zM155 490q-22 0 -37.5 18.5t-15.5 56.5q0 40 34 81.5t92 60.5l10 -26q-60 -25 -88 -80q52 -4 52 -57q0 -24 -13 -39t-34 -15z" />
    <glyph glyph-name="quotedblright" unicode="&#x201d;" horiz-adv-x="362" 
d="M109 478l-12 26q49 23 83 74q-25 3 -38 20t-13 39q0 25 14 41t38 16q26 0 38.5 -19.5t12.5 -48.5q0 -91 -123 -148zM251 496l-13 26q54 25 85 75q-24 3 -38 18.5t-14 37.5q0 26 14 41.5t39 15.5q23 0 36.5 -20t13.5 -51q0 -42 -35.5 -82.5t-87.5 -60.5z" />
    <glyph glyph-name="quotedblbase" unicode="&#x201e;" horiz-adv-x="362" 
d="M7 -113l-12 26q49 24 83 75q-25 3 -38 19.5t-13 38.5q0 25 14 41t38 16q26 0 38.5 -19.5t12.5 -48.5q0 -91 -123 -148zM272 48q0 -42 -35 -81.5t-86 -60.5l-15 25q51 24 85 75q-24 3 -38 18.5t-14 37.5q0 26 14 41.5t39 15.5q23 0 36.5 -20t13.5 -51z" />
    <glyph glyph-name="dagger" unicode="&#x2020;" horiz-adv-x="367" 
d="M85 543q4 9 8 33q27 -2 121 -3l25 132q13 -1 34 -2l-27 -130h126q-3 -12 -6 -33q-50 1 -126 2q-47 -247 -61 -326q-13 3 -36 5l65 321q-38 1 -123 1z" />
    <glyph glyph-name="daggerdbl" unicode="&#x2021;" horiz-adv-x="365" 
d="M152 218q11 50 26 128h-113q3 12 5 34q43 -2 114 -3l34 170q-34 1 -115 1q4 10 9 34q21 -2 112 -3l23 126q13 -3 36 -6l-25 -120h112q-3 -10 -6 -34q-42 1 -113 2l-33 -170h114q-4 -10 -9 -34q-22 1 -112 2l-24 -130q-14 2 -35 3z" />
    <glyph glyph-name="bullet" unicode="&#x2022;" horiz-adv-x="328" 
d="M171 229q-46 0 -73.5 30.5t-27.5 77.5q0 50 29 78t72 28q42 0 69.5 -30t27.5 -75q0 -47 -26 -78t-71 -31z" />
    <glyph glyph-name="ellipsis" unicode="&#x2026;" horiz-adv-x="664" 
d="M81 -6q-21 0 -36 15t-15 43q0 21 14 37t36 16q24 0 38 -15.5t14 -37.5q0 -26 -14 -42t-37 -16zM291 -25q-19 0 -34.5 14.5t-15.5 39.5q0 26 14.5 41.5t36.5 15.5q24 0 36.5 -15t12.5 -38q0 -26 -13.5 -42t-36.5 -16zM502 -7q-20 0 -34.5 14.5t-14.5 40.5q0 25 12.5 40.5
t35.5 15.5q22 0 35 -15t13 -39q0 -27 -13 -42t-34 -15z" />
    <glyph glyph-name="perthousand" unicode="&#x2030;" horiz-adv-x="1174" 
d="M207 319q-65 0 -103 41t-38 110q0 101 59 160q44 44 101 44q69 0 105 -42t36 -109q0 -100 -64 -164q-40 -40 -96 -40zM205 352q42 0 74 31q24 23 39 62t15 78q0 52 -27 86.5t-77 34.5q-44 0 -76 -32q-24 -24 -38 -63.5t-14 -78.5q0 -55 27 -86.5t77 -31.5zM148 -22
l-32 13l541 690l35 -13zM585 -11q-67 0 -105 43t-38 109q0 95 62 157q43 43 97 43q68 0 105 -41.5t37 -107.5q0 -103 -60 -163q-40 -40 -98 -40zM583 21q44 0 73 29q53 53 53 143q0 53 -27.5 85t-78.5 32q-40 0 -73 -33q-53 -53 -53 -138q0 -52 28 -85t78 -33zM959 -4
q-65 0 -103 41t-38 110q0 101 59 160q44 44 101 44q69 0 105 -42t36 -109q0 -100 -64 -164q-40 -40 -96 -40zM957 29q42 0 74 31q24 23 39 62t15 78q0 52 -27 86.5t-77 34.5q-44 0 -76 -32q-24 -24 -38 -63.5t-14 -78.5q0 -55 27 -86.5t77 -31.5z" />
    <glyph glyph-name="guilsinglleft" unicode="&#x2039;" horiz-adv-x="271" 
d="M153 104l-103 236l196 225q7 -6 30 -16l-187 -216l98 -215z" />
    <glyph glyph-name="guilsinglright" unicode="&#x203a;" horiz-adv-x="261" 
d="M226 313l-197 -220q-12 8 -29 17l188 212q-33 93 -83 216l31 14z" />
    <glyph glyph-name="fraction" unicode="&#x2044;" horiz-adv-x="540" 
d="M22 -22l-32 13l565 720l35 -13z" />
    <glyph glyph-name="Euro" unicode="&#x20ac;" horiz-adv-x="667" 
d="M44 367q2 9 5 32q15 0 88 1q37 132 111.5 202.5t163.5 70.5q92 0 144.5 -60t65.5 -171l-36 -6q-24 202 -172 202q-80 0 -143 -62t-96 -175l253 6q-3 -11 -8 -33q-44 0 -253 -4q-11 -46 -15 -95l265 6l-5 -32q-42 0 -262 -4v-9q0 -107 50 -167.5t138 -60.5q162 0 226 220
l33 -9q-32 -118 -99 -181.5t-158 -62.5q-106 0 -165.5 71.5t-59.5 198.5q-58 -2 -90 -2l6 32q18 -1 85 0q1 31 13 94z" />
    <glyph glyph-name="servicemark" unicode="&#x2120;" horiz-adv-x="691" 
d="M342 388l61 283l39 3q31 -129 62 -245l153 265q14 -2 44 -4q-23 -133 -49 -326q-11 2 -34 3q23 122 46 280l-146 -250l-37 1q-21 94 -58 231q-28 -125 -46 -243q-13 1 -35 2zM186 361q-54 0 -86.5 32.5t-34.5 87.5q9 1 28 4q3 -46 27.5 -71.5t65.5 -25.5q32 0 55 17.5
t23 48.5q0 43 -79 65q-79 23 -79 90q0 41 27.5 66.5t72.5 25.5q100 0 114 -110q-10 -1 -27 -4q-10 89 -85 89q-31 0 -51 -18t-20 -48q0 -46 66 -67q91 -28 91 -85q0 -43 -31 -70t-77 -27z" />
    <glyph glyph-name="trademark" unicode="&#x2122;" horiz-adv-x="656" 
d="M307 389l61 281q15 1 38 4l63 -245l153 265q14 -2 44 -4q-23 -132 -49 -325q-11 2 -34 3q23 122 46 279l-146 -250l-37 1l-58 233q-30 -129 -47 -246q-10 2 -34 4zM90 661q2 5 8 31q78 -2 231 3q-4 -11 -8 -34q-40 1 -93 1q-36 -182 -55 -295q-8 2 -34 4q27 123 57 291z
" />
    <glyph glyph-name="minus" unicode="&#x2212;" horiz-adv-x="463" 
d="M428 345l-8 -36h-375l6 38z" />
    <glyph glyph-name="Pcircle" unicode="&#x24c5;" horiz-adv-x="756" 
d="M381 680q140 0 225 -102.5t85 -256.5q0 -92 -35.5 -169t-109 -126.5t-172.5 -49.5q-148 0 -228.5 100t-80.5 252q0 150 86 251t230 101zM376 650q-122 0 -200.5 -92.5t-78.5 -226.5q0 -146 77 -236.5t204 -90.5q121 0 201 91.5t80 235.5q0 141 -78.5 230t-204.5 89z
M261 128q0 129 -5 422q52 5 84 5q105 0 159 -35.5t54 -94.5q0 -66 -53.5 -103.5t-155.5 -37.5q-32 0 -50 2q0 -26 3 -157q-20 0 -36 -1zM292 518q0 -58 0.5 -104.5t0.5 -64v-30.5q30 -3 56 -3q84 0 126 27.5t42 78.5q0 43 -40 71t-126 28q-26 0 -59 -3z" />
    <glyph glyph-name="Pcircle" unicode="&#x24df;" horiz-adv-x="756" 
d="M381 680q140 0 225 -102.5t85 -256.5q0 -92 -35.5 -169t-109 -126.5t-172.5 -49.5q-148 0 -228.5 100t-80.5 252q0 150 86 251t230 101zM376 650q-122 0 -200.5 -92.5t-78.5 -226.5q0 -146 77 -236.5t204 -90.5q121 0 201 91.5t80 235.5q0 141 -78.5 230t-204.5 89z
M261 128q0 129 -5 422q52 5 84 5q105 0 159 -35.5t54 -94.5q0 -66 -53.5 -103.5t-155.5 -37.5q-32 0 -50 2q0 -26 3 -157q-20 0 -36 -1zM292 518q0 -58 0.5 -104.5t0.5 -64v-30.5q30 -3 56 -3q84 0 126 27.5t42 78.5q0 43 -40 71t-126 28q-26 0 -59 -3z" />
    <glyph glyph-name="commaaccent" horiz-adv-x="534" 
d="M250 -106q0 -37 -29 -73t-72 -59l-15 24q44 23 72 68q-39 4 -39 50q0 20 11 33t30 13q42 0 42 -56z" />
    <glyph glyph-name="space.tab" horiz-adv-x="308" 
 />
    <glyph glyph-name="dollar.tab" 
d="M278 -16h-10l-24 -119l-36 6l22 117q-156 28 -165 221q15 2 40 7q4 -97 49.5 -147t117.5 -50q75 0 127 40t52 107q0 90 -141 144q-151 59 -151 179q0 83 57.5 136.5t139.5 53.5h9l22 115l37 -6q-4 -19 -12 -60t-10 -54q129 -26 149 -213q-17 -3 -39 -9q-21 190 -151 190
q-72 0 -117 -42t-45 -111q0 -92 135 -147q155 -64 155 -171q0 -88 -63 -137.5t-148 -49.5z" />
    <glyph glyph-name="cent.tab" 
d="M284 32h-9l-19 -103l-38 4q18 92 21 103q-73 16 -112.5 79.5t-39.5 159.5q0 86 28 162t81 129q71 71 160 74l21 114l38 -5l-23 -111q135 -17 154 -193l-37 -8q-9 84 -43.5 127t-103.5 43q-77 0 -143 -66q-46 -46 -70.5 -118t-24.5 -145q0 -96 44 -154t120 -58
q63 0 110.5 36.5t82.5 128.5q13 -4 32 -11q-30 -97 -91.5 -142.5t-137.5 -45.5z" />
    <glyph glyph-name="Euro.tab" 
d="M33 367q2 9 5 32q12 0 78 1q36 132 106.5 202.5t153.5 70.5q85 0 134 -61t61 -170l-36 -6q-11 92 -49 147t-108 55q-76 0 -134 -62t-90 -175l243 6q-3 -11 -8 -33q-32 1 -243 -4q-11 -46 -15 -95l255 6l-5 -32q-27 1 -252 -4v-13q0 -105 46 -164.5t127 -59.5
q69 0 126.5 53t90.5 166l33 -9q-33 -123 -100.5 -184t-147.5 -59q-105 2 -157.5 74.5t-53.5 195.5q-50 -2 -79 -2l6 32q15 -1 74 0q4 46 14 94z" />
    <glyph glyph-name="sterling.tab" 
d="M171 290h-76l5 33l60 -1q-24 72 -24 120q0 102 67 169q63 63 151 63q96 0 148.5 -65.5t61.5 -185.5q-17 -2 -39 -5q-20 220 -169 220q-73 0 -122 -49q-59 -59 -59 -153q0 -44 24 -114l212 1l-6 -35q-188 2 -195 2q11 -38 11 -65q0 -56 -33.5 -106t-83.5 -85q5 0 48 -0.5
t129.5 -1t197.5 -0.5q-4 -15 -8 -37q-50 1 -419 5q0 16 -1 40q133 79 133 182q0 23 -13 68z" />
    <glyph glyph-name="yen.tab" 
d="M88 265q1 8 5 33q46 -1 132 0l-94 347l37 9q60 -243 112 -432l327 469l37 -13l-269 -377q56 0 136 4q-3 -13 -7 -33q-55 -1 -152 -4l-58 -83l-5 -24l196 5q-2 -14 -5 -32q-66 0 -197 -2q-18 -100 -26 -149q-10 2 -36 5q10 49 26 144l-190 -4q2 9 6 32q61 -1 189 1l4 21
q-2 3 -23 85q-46 0 -145 -2z" />
    <glyph glyph-name="florin.tab" 
d="M455 378l-134 3q-53 -278 -73 -366q-35 -156 -153 -156q-34 0 -68 10q5 12 11 35q33 -9 58 -9q45 0 72 28.5t41 89.5q19 81 75 368l-95 1l2 33q76 -2 99 -2l21 104q32 155 146 155q37 0 80 -15l-10 -33q-43 16 -71 16q-42 0 -67.5 -30.5t-39.5 -92.5q-8 -33 -22 -105h127
z" />
    <glyph glyph-name="zero.tab" 
d="M276 -21q-103 0 -160.5 74.5t-57.5 200.5q0 99 30 191.5t92 157.5q72 74 163 74q102 0 157 -78t55 -198q0 -93 -34.5 -197t-91.5 -161q-64 -64 -153 -64zM279 13q69 0 121 52t85 150.5t33 188.5q0 105 -45.5 172.5t-128.5 67.5q-74 0 -136 -62q-55 -55 -83.5 -147.5
t-28.5 -181.5q0 -109 47 -174.5t136 -65.5z" />
    <glyph glyph-name="one.tab" 
d="M91 -3l6 38q93 -3 165 -3l110 582l-179 -93l-13 30l109.5 56.5l78.5 42.5l26 15l25 -8q-81 -416 -117 -625h155l-7 -35h-359z" />
    <glyph glyph-name="two.tab" 
d="M446 -4l-421 8l6 39q261 139 363.5 238t102.5 207q0 65 -44 110.5t-122 45.5q-77 0 -128 -55t-77 -148q-16 10 -38 12q25 98 87 161.5t154 63.5q99 0 152 -54.5t53 -134.5q0 -56 -19 -104t-68 -103t-138 -115t-223 -130q220 -5 369 -5z" />
    <glyph glyph-name="three.tab" 
d="M277 -23q-116 0 -175.5 62t-59.5 181q21 2 40 3q0 -213 197 -213q78 0 132.5 47.5t54.5 124.5q0 61 -52.5 100t-175.5 36q3 18 8 36q131 -6 202 38t71 124q0 55 -42 94.5t-115 39.5q-78 0 -127 -44t-77 -130l-38 9q26 92 88.5 145t154.5 53q93 0 143.5 -50.5t50.5 -116.5
q0 -69 -48.5 -119t-135.5 -64q67 -12 99.5 -55.5t32.5 -95.5q0 -95 -66.5 -150t-161.5 -55z" />
    <glyph glyph-name="four.tab" 
d="M370 2l32 157q-362 -4 -372 -4q2 13 7 35l464 488l40 -4l-95 -483l71 1q-4 -15 -8 -33h-69l-30 -161zM495 624l-411 -434q158 0 325 1q78 388 86 433z" />
    <glyph glyph-name="five.tab" 
d="M270 -23q-88 0 -147.5 47t-77.5 138l41 12q34 -163 185 -163q90 0 150 70t60 167q0 68 -36.5 113t-108.5 45q-51 0 -109 -33t-96 -84q-17 4 -33 5l80 368q292 0 384 2q-5 -19 -9 -37q-228 1 -344 -1l-64 -278q90 92 192 92q91 0 137 -54t46 -138q0 -110 -70.5 -190.5
t-179.5 -80.5z" />
    <glyph glyph-name="six.tab" 
d="M307 -26q-101 0 -164.5 69.5t-63.5 198.5q0 98 34.5 197.5t99.5 164.5q73 73 156 73q166 0 193 -181l-38 -8q-15 80 -52 118.5t-102 38.5q-66 0 -127 -61q-100 -100 -124 -295q35 52 93.5 87.5t111.5 35.5q101 0 152.5 -57.5t51.5 -139.5q0 -104 -64 -172.5t-157 -68.5z
M324 378q-55 0 -112 -38.5t-96 -101.5q1 -110 53.5 -170t139.5 -60q77 0 129 62t52 149q0 68 -43 113.5t-123 45.5z" />
    <glyph glyph-name="seven.tab" 
d="M171 -6q84 363 363 636h-412l6 34l457 2l-4 -32q-155 -162 -240 -307t-133 -337z" />
    <glyph glyph-name="eight.tab" 
d="M268 -30q-107 0 -166 52t-59 128q0 78 55.5 130t153.5 71q-60 19 -93 59t-33 91q0 80 65.5 129t157.5 49q99 0 154 -45t55 -111q0 -65 -47.5 -107.5t-143.5 -67.5q72 -22 109.5 -70t37.5 -101q0 -92 -71.5 -149.5t-174.5 -57.5zM267 5q90 0 148.5 47.5t58.5 127.5
q0 51 -44 95t-128 58q-217 -38 -217 -183q0 -66 51.5 -105.5t130.5 -39.5zM315 363q98 20 151 61.5t53 97.5q0 54 -46.5 89t-121.5 35q-82 0 -134 -41.5t-52 -104.5q0 -96 150 -137z" />
    <glyph glyph-name="nine.tab" 
d="M267 -24q-88 0 -146.5 49.5t-73.5 148.5l39 8q31 -171 181 -171q71 0 124 53q80 80 110 281q-83 -88 -193 -88q-94 0 -148 54t-54 137q0 93 63.5 162.5t158.5 69.5q106 0 161.5 -71t55.5 -191q0 -93 -34 -206.5t-90 -169.5q-66 -66 -154 -66zM308 293q109 0 197 95
q1 10 1 30q0 106 -45.5 167t-130.5 61q-79 0 -132.5 -56.5t-53.5 -139.5q0 -70 44.5 -113.5t119.5 -43.5z" />
    <glyph glyph-name="plus.tab" 
d="M242 123q21 92 41 194l-187 -1l6 36q27 -1 58 -1.5t69.5 -1t59.5 -0.5l35 185l36 -5q-19 -84 -37 -180l191 1l-9 -34q-63 1 -189 1l-36 -196z" />
    <glyph glyph-name="minus.tab" 
d="M497 345l-8 -36h-375l6 38z" />
    <glyph glyph-name="multiply.tab" 
d="M303 309l-160 -176l-26 22l164 178l-154 168l25 24l150 -169l161 179q11 -13 25 -25l-164 -178l158 -171l-25 -22z" />
    <glyph glyph-name="divide.tab" 
d="M103 310l9 37h396l-6 -38q-287 7 -399 1zM271 214q19 0 32.5 -16t13.5 -40q0 -22 -14.5 -36.5t-32.5 -14.5q-20 0 -33 15t-13 36q0 27 13.5 41.5t33.5 14.5zM333 548q18 0 32 -15t14 -39q0 -22 -14 -37.5t-33 -15.5q-21 0 -33.5 14.5t-12.5 38.5q0 25 13.5 39.5
t33.5 14.5z" />
    <glyph glyph-name="equal.tab" 
d="M99 220q3 13 6 36q140 -1 373 2q-5 -14 -9 -38q-123 2 -370 0zM505 401l-371 2l8 37h370z" />
    <glyph glyph-name="less.tab" 
d="M463 123q-8 -11 -18 -31l-357 212l7 35l431 208l13 -33l-404 -194z" />
    <glyph glyph-name="greater.tab" 
d="M82 92l-13 34l405 201l-322 190q8 9 19 30l350 -208l-5 -34z" />
    <glyph glyph-name="period.tab" horiz-adv-x="308" 
d="M110 -7q-22 0 -35.5 14t-13.5 40q0 23 13.5 40t35.5 17q26 0 38.5 -16t12.5 -37q0 -27 -14 -42.5t-37 -15.5z" />
    <glyph glyph-name="comma.tab" horiz-adv-x="308" 
d="M44 -119l-13 25q54 28 85 83q-26 -2 -41 14.5t-15 44.5q0 24 14 39.5t38 15.5q26 0 38 -18.5t12 -46.5q0 -100 -118 -157z" />
    <glyph glyph-name="colon.tab" horiz-adv-x="308" 
d="M107 -9q-22 0 -35.5 16t-13.5 41t14 41.5t36 16.5q25 0 37 -17t12 -41q0 -26 -14.5 -41.5t-35.5 -15.5zM161 280q-22 0 -35.5 16.5t-13.5 43.5q0 22 14 38.5t36 16.5q24 0 36.5 -16t12.5 -39q0 -28 -14 -44t-36 -16z" />
    <glyph glyph-name="semicolon.tab" horiz-adv-x="308" 
d="M38 -119l-13 25q52 29 84 83q-23 -1 -39 14.5t-16 41.5q0 24 13 40.5t38 16.5q51 0 51 -66q0 -49 -31.5 -88.5t-86.5 -66.5zM158 280q-22 0 -35.5 16.5t-13.5 43.5q0 22 14 38.5t36 16.5q24 0 36.5 -16t12.5 -39q0 -28 -14 -44t-36 -16z" />
    <glyph glyph-name="parenleft.tab" horiz-adv-x="360" 
d="M153 -130q-40 135 -40 277q0 156 55.5 314t159.5 277l29 -16q-95 -110 -150 -268t-55 -312q0 -133 37 -263z" />
    <glyph glyph-name="parenright.tab" horiz-adv-x="360" 
d="M38 -129q-9 7 -29 19q98 149 149 286.5t51 293.5q0 135 -40 261q13 4 33 12q46 -141 46 -279q0 -304 -210 -593z" />
    <glyph glyph-name="bracketleft.tab" horiz-adv-x="360" 
d="M211 -109q-68 3 -161 3l156 823q52 0 160 2q-2 -12 -5 -33q-43 0 -123 -2l-145 -753q43 -2 128 -2q-5 -13 -10 -38z" />
    <glyph glyph-name="bracketright.tab" horiz-adv-x="360" 
d="M-6 -115q3 16 6 38q113 0 127 2q81 393 150 768q-54 2 -121 2l7 34q52 -2 160 -2l-165 -839q-76 -1 -164 -3z" />
    <glyph glyph-name="braceleft.tab" horiz-adv-x="360" 
d="M229 -109q-126 36 -126 139q0 34 19 103t19 96q0 74 -100 71l10 41q69 0 97.5 20.5t36.5 73.5q11 73 19 141q9 69 50.5 106t126.5 41l4 -31q-77 -6 -109 -34.5t-38 -84.5q-10 -87 -17 -135q-9 -58 -32.5 -86.5t-74.5 -34.5q62 -18 62 -84l-38 -200q0 -40 24 -67.5
t81 -44.5z" />
    <glyph glyph-name="braceright.tab" horiz-adv-x="360" 
d="M-25 -116q-2 15 -6 34q78 6 114 36.5t44 87.5l10 75l11 83q8 55 33 85.5t77 39.5q-68 18 -68 80q0 29 20 97t20 91q0 40 -25.5 68.5t-77.5 36.5q4 13 10 29q64 -10 96 -46t32 -86q0 -26 -20 -90.5t-20 -95.5q0 -34 23.5 -49.5t77.5 -16.5q-6 -29 -6 -41q-122 7 -138 -109
q-12 -84 -20 -157q-9 -72 -61 -111t-126 -41z" />
    <glyph glyph-name="section.tab" 
d="M240 -193q-102 0 -160 58t-63 161l36 3q5 -93 55 -141t134 -48q78 0 130.5 37.5t52.5 105.5q0 41 -43 71t-162 66q-140 42 -140 144q0 110 138 151q-32 20 -51.5 53.5t-19.5 74.5q0 74 60.5 123.5t139.5 49.5q96 0 149 -59.5t61 -149.5l-36 -6q-10 82 -52 131.5
t-118 49.5q-69 0 -118.5 -39.5t-49.5 -99.5q0 -97 166 -145q97 -27 134.5 -62t37.5 -81q0 -97 -131 -160q73 -40 73 -113q0 -77 -65.5 -126t-157.5 -49zM239 151q28 -9 122 -43q68 37 96.5 70.5t28.5 75.5q0 37 -33 62.5t-124 53.5l-84 29q-65 -22 -97.5 -53.5t-32.5 -80.5
q0 -37 28.5 -65t95.5 -49z" />
    <glyph glyph-name="numbersign.tab" 
d="M357 117l31 158q-42 0 -190 -2q-19 -108 -25 -147q-14 3 -37 5l29 142l-125 -2q2 10 6 36q56 -1 125 -1l40 209q-36 0 -120 -2q3 13 6 36h120l25 145q13 -2 37 -3l-29 -142q116 0 190 1l29 159q14 -2 36 -3l-31 -155q37 0 129 2q-5 -13 -9 -34h-126l-40 -212l131 2
q-4 -12 -8 -35q-49 1 -129 1q-27 -159 -28 -162q-16 3 -37 4zM244 516q-21 -101 -40 -210q108 0 190 1l40 211q-42 0 -190 -2z" />
    <glyph glyph-name="zero.numerator" horiz-adv-x="398" 
d="M212 287q-65 0 -100.5 40.5t-35.5 115.5q0 142 79 222q48 48 108 48q63 0 96.5 -43t33.5 -114q0 -55 -22 -121t-56 -100q-48 -48 -103 -48zM212 320q44 0 80 36q30 30 48.5 86.5t18.5 111.5q0 57 -24.5 92.5t-72.5 35.5q-43 0 -81 -38q-33 -33 -52 -87.5t-19 -110.5
q0 -60 26 -93t76 -33z" />
    <glyph glyph-name="one.numerator" horiz-adv-x="254" 
d="M136 301l70 362l-104 -47l-12 27l130 62l24 -5l-75 -403z" />
    <glyph glyph-name="two.numerator" horiz-adv-x="346" 
d="M304 298l-264 4l5 30q142 76 207 137t65 130q0 37 -23 61t-59 24q-48 0 -76.5 -28.5t-46.5 -90.5q-12 4 -30 9q13 61 52.5 100.5t96.5 39.5q59 0 89 -34.5t30 -81.5q0 -69 -66 -136.5t-184 -127.5l212 -3z" />
    <glyph glyph-name="three.numerator" horiz-adv-x="373" 
d="M201 286q-69 0 -109.5 39t-41.5 103q13 1 35 5q1 -56 31.5 -87t82.5 -31q46 0 80 27t34 70q0 78 -139 73q3 13 7 34q71 -4 115 19.5t44 74.5q0 32 -24.5 54t-70.5 22q-37 0 -68 -26.5t-48 -70.5l-32 7q19 54 58.5 86t89.5 32q59 0 93 -29t34 -75q0 -48 -31 -77t-85 -34
q44 -7 67 -33.5t23 -61.5q0 -53 -44 -87t-101 -34z" />
    <glyph glyph-name="four.numerator" horiz-adv-x="364" 
d="M251 302q2 11 9 44.5l11 51.5l-231 -3q2 10 5 23l287 296l32 -3l-56 -284l44 1q-4 -18 -6 -30h-44l-19 -99zM277 427l47 236l-233 -238q30 0 186 2z" />
    <glyph glyph-name="five.numerator" horiz-adv-x="375" 
d="M204 286q-116 0 -139 113l34 9q22 -91 106 -91q53 0 89 40t36 100q0 39 -21 62t-64 23q-70 0 -122 -68q-22 4 -32 4l49 225q188 0 245 2q-6 -21 -8 -32q-136 1 -209 -1q-29 -119 -37 -156q21 24 53.5 40.5t61.5 16.5q57 0 86.5 -32t29.5 -84q0 -74 -45.5 -122.5
t-112.5 -48.5z" />
    <glyph glyph-name="six.numerator" horiz-adv-x="385" 
d="M223 284q-69 0 -108.5 44t-39.5 124q0 106 52 183.5t135 77.5q48 0 79 -30.5t42 -80.5l-32 -8q-21 90 -87 90q-53 0 -93.5 -45.5t-55.5 -121.5q-4 -23 -5 -31q25 32 61.5 52t71.5 20q60 0 93 -33t33 -85q0 -66 -44 -111t-102 -45zM244 527q-80 0 -136 -78q2 -63 32 -99
t82 -36q47 0 81 36.5t34 92.5q0 38 -23.5 61t-69.5 23z" />
    <glyph glyph-name="seven.numerator" horiz-adv-x="338" 
d="M123 298q55 234 212 376h-235l6 31l282 1l-5 -23q-93 -85 -145.5 -176t-81.5 -212z" />
    <glyph glyph-name="eight.numerator" horiz-adv-x="373" 
d="M203 282q-69 0 -106 30t-37 78t33 78.5t87 43.5q-37 12 -56.5 36t-19.5 54q0 48 43.5 80t98.5 32q61 0 96.5 -25t35.5 -66q0 -42 -30 -70.5t-83 -39.5q90 -25 90 -103q0 -58 -46.5 -93t-105.5 -35zM203 312q50 0 84.5 29t34.5 72q0 34 -28 55.5t-68 28.5
q-66 -8 -98.5 -36.5t-32.5 -69.5q0 -36 29.5 -57.5t78.5 -21.5zM224 527q54 8 87 32t33 60q0 27 -24.5 46t-68.5 19q-48 0 -80 -23.5t-32 -60.5q0 -56 85 -73z" />
    <glyph glyph-name="nine.numerator" horiz-adv-x="386" 
d="M206 286q-126 0 -146 123l34 7q19 -101 113 -101q41 0 71 30q49 49 65 166q-58 -58 -126 -58q-61 0 -94.5 33t-33.5 83q0 59 43 102.5t104 43.5q68 0 105.5 -45.5t37.5 -118.5q0 -52 -21 -121.5t-56 -104.5q-39 -39 -96 -39zM216 482q71 0 131 67q1 61 -27.5 99t-80.5 38
q-48 0 -82 -34.5t-34 -82.5q0 -37 26 -62t67 -25z" />
    <glyph glyph-name="zero.denominator" horiz-adv-x="398" 
d="M152 -25q-65 0 -100.5 40.5t-35.5 115.5q0 142 79 222q48 48 108 48q63 0 96.5 -43t33.5 -114q0 -55 -22 -121t-56 -100q-48 -48 -103 -48zM152 8q44 0 80 36q30 30 48.5 86.5t18.5 111.5q0 57 -24.5 92.5t-72.5 35.5q-43 0 -81 -38q-33 -33 -52 -87.5t-19 -110.5
q0 -60 26 -93t76 -33z" />
    <glyph glyph-name="one.denominator" horiz-adv-x="254" 
d="M76 -11l70 362l-104 -47l-12 27l130 62l24 -5l-75 -403z" />
    <glyph glyph-name="two.denominator" horiz-adv-x="346" 
d="M244 -14l-264 4l5 30q142 76 207 137t65 130q0 37 -23 61t-59 24q-48 0 -76.5 -28.5t-46.5 -90.5q-12 4 -30 9q13 61 52.5 100.5t96.5 39.5q59 0 89 -34.5t30 -81.5q0 -69 -66 -136.5t-184 -127.5l212 -3z" />
    <glyph glyph-name="three.denominator" horiz-adv-x="373" 
d="M141 -26q-69 0 -109.5 39t-41.5 103q13 1 35 5q1 -56 31.5 -87t82.5 -31q46 0 80 27t34 70q0 78 -139 73q3 13 7 34q71 -4 115 19.5t44 74.5q0 32 -24.5 54t-70.5 22q-37 0 -68 -26.5t-48 -70.5l-32 7q19 54 58.5 86t89.5 32q59 0 93 -29t34 -75q0 -48 -31 -77t-85 -34
q44 -7 67 -33.5t23 -61.5q0 -53 -44 -87t-101 -34z" />
    <glyph glyph-name="four.denominator" horiz-adv-x="364" 
d="M191 -10q2 11 9 44.5l11 51.5l-231 -3q2 10 5 23l287 296l32 -3l-56 -284l44 1q-4 -18 -6 -30h-44l-19 -99zM217 115l47 236l-233 -238q30 0 186 2z" />
    <glyph glyph-name="five.denominator" horiz-adv-x="375" 
d="M144 -26q-116 0 -139 113l34 9q22 -91 106 -91q53 0 89 40t36 100q0 39 -21 62t-64 23q-70 0 -122 -68q-22 4 -32 4l49 225q188 0 245 2q-6 -21 -8 -32q-136 1 -209 -1q-29 -119 -37 -156q21 24 53.5 40.5t61.5 16.5q57 0 86.5 -32t29.5 -84q0 -74 -45.5 -122.5
t-112.5 -48.5z" />
    <glyph glyph-name="six.denominator" horiz-adv-x="385" 
d="M163 -28q-69 0 -108.5 44t-39.5 124q0 106 52 183.5t135 77.5q48 0 79 -30.5t42 -80.5l-32 -8q-21 90 -87 90q-53 0 -93.5 -45.5t-55.5 -121.5q-4 -23 -5 -31q25 32 61.5 52t71.5 20q60 0 93 -33t33 -85q0 -66 -44 -111t-102 -45zM184 215q-80 0 -136 -78q2 -63 32 -99
t82 -36q47 0 81 36.5t34 92.5q0 38 -23.5 61t-69.5 23z" />
    <glyph glyph-name="seven.denominator" horiz-adv-x="338" 
d="M63 -14q55 234 212 376h-235l6 31l282 1l-5 -23q-93 -85 -145.5 -176t-81.5 -212z" />
    <glyph glyph-name="eight.denominator" horiz-adv-x="373" 
d="M143 -30q-69 0 -106 30t-37 78t33 78.5t87 43.5q-37 12 -56.5 36t-19.5 54q0 48 43.5 80t98.5 32q61 0 96.5 -25t35.5 -66q0 -42 -30 -70.5t-83 -39.5q90 -25 90 -103q0 -58 -46.5 -93t-105.5 -35zM143 0q50 0 84.5 29t34.5 72q0 34 -28 55.5t-68 28.5
q-66 -8 -98.5 -36.5t-32.5 -69.5q0 -36 29.5 -57.5t78.5 -21.5zM164 215q54 8 87 32t33 60q0 27 -24.5 46t-68.5 19q-48 0 -80 -23.5t-32 -60.5q0 -56 85 -73z" />
    <glyph glyph-name="nine.denominator" horiz-adv-x="386" 
d="M146 -26q-126 0 -146 123l34 7q19 -101 113 -101q41 0 71 30q49 49 65 166q-58 -58 -126 -58q-61 0 -94.5 33t-33.5 83q0 59 43 102.5t104 43.5q68 0 105.5 -45.5t37.5 -118.5q0 -52 -21 -121.5t-56 -104.5q-39 -39 -96 -39zM156 170q71 0 131 67q1 61 -27.5 99t-80.5 38
q-48 0 -82 -34.5t-34 -82.5q0 -37 26 -62t67 -25z" />
    <glyph glyph-name="dollar.cap" horiz-adv-x="563" 
d="M266 -19h-17l-21 -113l-38 5l22 113q-88 14 -135.5 75.5t-52.5 160.5q15 3 41 6q14 -213 201 -213q74 0 123 43.5t49 118.5q0 48 -36 81.5t-125 72.5q-154 67 -154 186q0 87 59.5 142t151.5 55q13 0 20 -1l24 123l37 -5l-24 -124q67 -17 104 -74t43 -141l-39 -6
q-15 195 -167 195q-76 0 -123.5 -45.5t-47.5 -119.5q0 -45 31.5 -82.5t109.5 -72.5q91 -41 132.5 -83t41.5 -101q0 -85 -59 -140.5t-151 -55.5z" />
    <glyph glyph-name="cent.cap" horiz-adv-x="559" 
d="M257 39h-9l-19 -103l-38 4q18 92 21 103q-73 16 -112.5 79.5t-39.5 159.5q0 84 27 160t77 126q76 76 165 79l21 114l38 -5l-23 -111q135 -17 154 -193l-37 -8q-9 84 -43.5 127t-103.5 43q-77 0 -142 -65q-47 -47 -71.5 -117.5t-24.5 -146.5q0 -96 44 -154t120 -58
q63 0 110.5 36.5t82.5 128.5q13 -4 32 -11q-30 -97 -91.5 -142.5t-137.5 -45.5z" />
    <glyph glyph-name="Euro.cap" horiz-adv-x="678" 
d="M38 381q3 11 6 34q15 0 87 1q38 147 120 227t182 80q52 0 92 -20t63.5 -55t36.5 -74.5t18 -87.5l-35 -4q-14 106 -54.5 155.5t-121.5 49.5q-94 0 -162.5 -73.5t-101.5 -196.5l255 6q-4 -13 -9 -35q-45 0 -254 -4q-11 -51 -13 -83l267 6q-4 -14 -6 -34q-42 0 -263 -4v-15
q0 -116 51.5 -181t141.5 -65q168 0 240 235l33 -6q-36 -130 -110 -197t-163 -65q-106 0 -167.5 73.5t-61.5 205.5v15q-56 -2 -89 -2q3 7 8 34q17 -1 83 0q3 44 12 82z" />
    <glyph glyph-name="sterling.cap" horiz-adv-x="563" 
d="M145 310h-76l5 33l63 -1q-23 90 -23 133q0 98 62.5 168.5t163.5 70.5q91 0 144 -66.5t64 -176.5q-18 -3 -39 -6q-12 100 -53 156.5t-113 56.5q-84 0 -137 -59t-53 -152q0 -37 22 -125l210 1l-6 -35q-188 2 -195 2q8 -35 8 -69q0 -65 -31.5 -118.5t-85.5 -88.5
q6 0 51.5 -0.5t134.5 -1t201 -0.5q-4 -15 -8 -37q-65 1 -434 5q1 19 1 40q134 75 134 196q0 32 -10 74z" />
    <glyph glyph-name="yen.cap" horiz-adv-x="599" 
d="M338 288l-18.5 -25l-19.5 -27l-14 -74l198 5q-3 -16 -6 -34q-66 0 -198 -2q-20 -116 -24 -141q-14 3 -37 4q13 63 26 137l-200 -4q3 11 7 34q66 -1 198 1l12 72l-16 57q-71 0 -166 -3q2 10 6 35q62 -1 150 1l-108 357q13 2 35 8l124 -411l321 432q12 -6 35 -14l-281 -375
q46 0 150 3q-1 -10 -5 -35q-77 1 -169 -1z" />
    <glyph glyph-name="florin.cap" horiz-adv-x="467" 
d="M381 378l-135 3l-45 -247q-30 -156 -152 -156q-33 0 -69 10q5 12 11 35q33 -9 58 -9q88 0 113 118q11 53 48 249l-95 1l2 33q76 -2 99 -2q10 57 25 125q32 155 146 155q37 0 80 -15l-10 -33q-43 16 -71 16q-42 0 -67.5 -30.5t-39.5 -92.5q-22 -102 -26 -126h127z" />
    <glyph glyph-name="zero.cap" horiz-adv-x="653" 
d="M294 -22q-107 0 -168.5 77t-61.5 206q0 100 35.5 203.5t98.5 166.5q82 82 184 82q108 0 165 -78.5t57 -202.5q0 -96 -35 -206t-101 -176q-72 -72 -174 -72zM295 14q87 0 148 61q57 57 91 163.5t34 202.5q0 107 -46 172t-138 65q-90 0 -163 -73q-54 -54 -87 -152t-33 -192
q0 -114 52 -180.5t142 -66.5z" />
    <glyph glyph-name="one.cap" horiz-adv-x="379" 
d="M151 -1q71 353 122 646l-180 -90l-13 31l214 113l25 -5l-129 -699q-19 3 -39 4z" />
    <glyph glyph-name="two.cap" horiz-adv-x="555" 
d="M452 -4l-447 8l1 37q257 127 372.5 240t115.5 230q0 70 -45 119t-122 49q-158 0 -223 -223q-14 5 -34 10q28 112 95 180t161 68q98 0 151 -61t53 -145q0 -122 -119 -242.5t-347 -229.5l397 -5z" />
    <glyph glyph-name="three.cap" horiz-adv-x="595" 
d="M276 -24q-116 0 -181 63.5t-65 186.5q16 1 37 3q2 -107 54 -163t152 -56q83 0 145.5 49t62.5 131q0 64 -60.5 101t-174.5 37h-17l9 40q14 -1 40 -1q124 0 190 49t66 126q0 60 -47 101.5t-129 41.5q-80 0 -138 -46.5t-79 -137.5l-35 4q21 100 91 157t160 57
q95 0 153.5 -50t58.5 -126q0 -79 -57 -134.5t-149 -62.5q73 -13 113.5 -58t40.5 -105q0 -92 -70 -149.5t-171 -57.5z" />
    <glyph glyph-name="four.cap" horiz-adv-x="594" 
d="M374 1l35 168q-385 -4 -404 -4q2 12 7 35l500 514l39 -4l-100 -509l77 1q-4 -14 -8 -33h-75l-32 -171zM505 659l-445 -459q175 0 355 1q59 286 90 458z" />
    <glyph glyph-name="five.cap" horiz-adv-x="612" 
d="M285 -24q-203 0 -245 211l38 10q19 -94 69 -141t138 -47t157 66.5t69 185.5q0 76 -43 127t-121 51q-60 0 -118 -35.5t-102 -96.5q-17 4 -35 5q39 167 84 385q315 0 411 2q-4 -16 -7 -35q-252 2 -373 -1l-67 -296q35 44 93.5 74.5t114.5 30.5q92 0 145.5 -59.5
t53.5 -150.5q0 -128 -76 -207t-186 -79z" />
    <glyph glyph-name="six.cap" horiz-adv-x="619" 
d="M301 -27q-108 0 -171.5 81t-63.5 214q0 113 37 213.5t110 166t166 65.5q90 0 141 -58.5t62 -150.5l-39 -9q-27 185 -165 185q-98 0 -168 -82.5t-99 -230.5q-7 -35 -8 -61q46 55 109 91t123 36q101 0 156 -57.5t55 -144.5q0 -116 -74 -187t-171 -71zM338 400
q-60 0 -123 -37t-115 -102q0 -118 54.5 -186t147.5 -68q85 0 145 61.5t60 164.5q0 72 -44.5 119.5t-124.5 47.5z" />
    <glyph glyph-name="seven.cap" horiz-adv-x="506" 
d="M132 -5q40 194 139 373t235 298h-406l5 33l456 2l-5 -34q-160 -148 -249.5 -311t-138.5 -367z" />
    <glyph glyph-name="eight.cap" horiz-adv-x="609" 
d="M271 -31q-108 0 -172 52.5t-64 135.5q0 85 59 138t157 73q-64 20 -97.5 61.5t-33.5 93.5q0 82 66 136.5t171 54.5q101 0 161.5 -49t60.5 -118q0 -67 -51 -114.5t-144 -67.5q68 -21 108 -74t40 -111q0 -89 -76 -150t-185 -61zM270 4q94 0 157.5 48.5t63.5 127.5
q0 60 -45 110t-129 61q-112 -13 -177 -64t-65 -132q0 -66 53.5 -108.5t141.5 -42.5zM320 382q108 18 164.5 61t56.5 103q0 54 -48.5 94.5t-132.5 40.5q-92 0 -147 -46.5t-55 -110.5q0 -49 42 -87.5t120 -54.5z" />
    <glyph glyph-name="nine.cap" horiz-adv-x="613" 
d="M269 10q89 0 151.5 77.5t96.5 257.5l5 29q-96 -102 -222 -102q-93 0 -151.5 57t-58.5 145q0 101 69.5 171.5t171.5 70.5q113 0 172 -78t59 -200q0 -91 -38 -213t-99 -183q-67 -67 -160 -67q-199 0 -230 217l36 9q20 -102 68.5 -146.5t129.5 -44.5zM302 307q122 0 224 115
q5 117 -48 187.5t-144 70.5q-87 0 -146.5 -59t-59.5 -147q0 -73 47.5 -120t126.5 -47z" />
    <glyph glyph-name="percent.cap" horiz-adv-x="770" 
d="M124 -22l-32 13l565 720l35 -13zM207 349q-65 0 -103 41t-38 110q0 101 59 160q44 44 101 44q69 0 105 -42t36 -109q0 -100 -64 -164q-40 -40 -96 -40zM205 382q42 0 74 31q24 23 39 62t15 78q0 52 -27 86.5t-77 34.5q-44 0 -76 -32q-24 -24 -38 -63.5t-14 -78.5
q0 -55 27 -86.5t77 -31.5zM560 -11q-67 0 -105 43t-38 109q0 95 62 157q43 43 97 43q68 0 105 -41.5t37 -107.5q0 -103 -60 -163q-40 -40 -98 -40zM558 21q44 0 73 29q53 53 53 143q0 53 -27.5 85t-78.5 32q-40 0 -73 -33q-53 -53 -53 -138q0 -52 28 -85t78 -33z" />
    <glyph glyph-name="perthousand.cap" horiz-adv-x="1146" 
d="M124 -22l-32 13l565 720l35 -13zM207 349q-65 0 -103 41t-38 110q0 101 59 160q44 44 101 44q69 0 105 -42t36 -109q0 -100 -64 -164q-40 -40 -96 -40zM205 382q42 0 74 31q24 23 39 62t15 78q0 52 -27 86.5t-77 34.5q-44 0 -76 -32q-24 -24 -38 -63.5t-14 -78.5
q0 -55 27 -86.5t77 -31.5zM560 -11q-67 0 -105 43t-38 109q0 95 62 157q43 43 97 43q68 0 105 -41.5t37 -107.5q0 -103 -60 -163q-40 -40 -98 -40zM558 21q44 0 73 29q53 53 53 143q0 53 -27.5 85t-78.5 32q-40 0 -73 -33q-53 -53 -53 -138q0 -52 28 -85t78 -33zM936 -4
q-65 0 -103 41t-38 110q0 101 59 160q44 44 101 44q69 0 105 -42t36 -109q0 -100 -64 -164q-40 -40 -96 -40zM934 29q42 0 74 31q24 23 39 62t15 78q0 52 -27 86.5t-77 34.5q-44 0 -76 -32q-24 -24 -38 -63.5t-14 -78.5q0 -55 27 -86.5t77 -31.5z" />
    <glyph glyph-name="questiondown.cap" horiz-adv-x="568" 
d="M363 715q22 0 36 -16.5t14 -45.5q0 -24 -13.5 -39.5t-36.5 -15.5q-24 0 -37 16.5t-13 42.5q0 28 14.5 43t35.5 15zM356 528l-30 -165q-19 1 -29 1q-105 0 -159 -54q-61 -61 -61 -144q0 -63 44 -105.5t129 -42.5q82 0 140.5 52.5t77.5 160.5q14 -4 35 -7
q-17 -116 -85.5 -177t-162.5 -61q-104 0 -159 52.5t-55 131.5q0 91 69 160q31 31 84 48.5t101 17.5l25 134z" />
    <glyph glyph-name="exclamdown.cap" horiz-adv-x="296" 
d="M197 529l-99 -543q-13 2 -43 4l105 543q16 -2 37 -4zM200 715q22 0 36.5 -15.5t14.5 -44.5q0 -25 -13.5 -41.5t-37.5 -16.5t-36.5 17t-12.5 43q0 27 13.5 42.5t35.5 15.5z" />
    <glyph glyph-name="parenleft.cap" horiz-adv-x="288" 
d="M116 -70q-41 138 -41 276q0 144 54.5 281.5t153.5 250.5l29 -16q-91 -104 -143.5 -242.5t-52.5 -274.5q0 -137 36 -266z" />
    <glyph glyph-name="parenright.cap" horiz-adv-x="289" 
d="M39 -70q-9 7 -29 19q75 117 119.5 249.5t44.5 252.5q0 141 -43 280q13 4 33 12q49 -141 49 -291q0 -262 -174 -522z" />
    <glyph glyph-name="bracketleft.cap" horiz-adv-x="329" 
d="M207 -45q-64 2 -157 2l144 760q47 0 155 2q-2 -12 -5 -33q-38 0 -118 -2l-133 -690l123 -1q-4 -13 -9 -38z" />
    <glyph glyph-name="bracketright.cap" horiz-adv-x="327" 
d="M0 -51q3 13 6 38q40 0 124 2l135 704q-39 2 -115 2q3 12 7 34q54 -2 155 -2l-153 -775q-59 0 -159 -3z" />
    <glyph glyph-name="braceleft.cap" horiz-adv-x="369" 
d="M235 -51q-126 36 -126 140q0 25 15.5 87t15.5 85q0 74 -100 71l10 41q69 0 97.5 20.5t36.5 73.5q6 40 14 109q9 69 50.5 106t126.5 41l4 -31q-77 -6 -109 -34.5t-38 -84.5q-9 -82 -12 -103q-8 -58 -32 -86.5t-75 -34.5q62 -18 62 -84q0 -24 -15.5 -85.5t-15.5 -88.5
q0 -40 24 -67.5t81 -44.5z" />
    <glyph glyph-name="braceright.cap" horiz-adv-x="367" 
d="M-24 -59q-2 15 -6 34q77 6 112.5 36t45.5 88l21 133q8 55 33 85.5t77 39.5q-67 17 -67 81q0 29 15.5 80t15.5 74q0 41 -25.5 69.5t-77.5 36.5q4 13 10 29q64 -11 95.5 -47t31.5 -86q0 -29 -15.5 -79t-15.5 -73q0 -34 23.5 -50t77.5 -17q-6 -28 -6 -41q-121 7 -138 -109
l-20 -132q-11 -74 -62 -112t-125 -40z" />
    <glyph glyph-name="slash.cap" horiz-adv-x="375" 
d="M-35 -40l435 780l35 -10l-434 -780z" />
    <glyph glyph-name="backslash.cap" horiz-adv-x="341" 
d="M262 -39q-14 -2 -35 -6l-132 771q13 2 35 6z" />
    <glyph glyph-name="bar.cap" horiz-adv-x="310" 
d="M70 -49l149 784q14 -1 36 -1l-148 -782q-18 0 -37 -1z" />
    <glyph glyph-name="at.cap" horiz-adv-x="874" 
d="M657 106q-51 0 -80 33.5t-29 95.5q-29 -57 -72 -91t-92 -34q-68 0 -109 54t-41 141q0 59 22.5 125.5t61.5 105.5q58 58 127 58q56 0 90 -44t46 -107q18 84 26 133q15 -2 36 -3q-6 -44 -52 -275q-7 -32 -7 -62q0 -94 74 -94q57 0 92.5 59t35.5 179q0 131 -82.5 221
t-230.5 90q-171 0 -270 -103.5t-99 -266.5q0 -144 83 -232.5t238 -88.5q93 0 191 36l10 -38q-114 -34 -203 -34q-172 0 -265 100.5t-93 258.5q0 174 110.5 287t296.5 113q91 0 161.5 -31.5t110.5 -82.5t60 -108.5t20 -117.5q0 -142 -47.5 -209.5t-119.5 -67.5zM449 561
q-54 0 -100 -46q-35 -35 -55.5 -93.5t-20.5 -120.5q0 -72 31.5 -115t81.5 -43q49 0 96 47q37 37 59 86.5t22 98.5q0 72 -33 129t-81 57z" />
    <glyph glyph-name="copyright.cap" horiz-adv-x="761" 
d="M391 128q-81 0 -132.5 62t-51.5 159q0 92 49 161.5t133 69.5q140 0 161 -157l-34 -3q-17 127 -129 127q-66 0 -104.5 -59.5t-38.5 -138.5q0 -84 42.5 -136.5t104.5 -52.5q116 0 131 136l35 -4q-9 -85 -53.5 -124.5t-112.5 -39.5zM385 -24q-145 0 -232.5 102t-87.5 277
q0 95 36.5 176.5t113 135t177.5 53.5q96 0 169.5 -51.5t111.5 -135.5t38 -186q0 -180 -88.5 -275.5t-237.5 -95.5zM390 5q127 0 208 87t81 253q0 92 -32.5 169.5t-100 127t-158.5 49.5q-128 0 -209.5 -99t-81.5 -248q0 -85 25 -152t67 -106.5t93 -60t108 -20.5z" />
    <glyph glyph-name="Pcircle.cap" horiz-adv-x="761" 
d="M391 720q141 0 230.5 -105.5t89.5 -273.5q0 -166 -87.5 -265.5t-239.5 -99.5q-147 0 -233 107.5t-86 264.5q0 164 90 268t236 104zM386 690q-118 0 -203.5 -91.5t-85.5 -247.5q0 -158 81 -252.5t210 -94.5q134 0 212.5 92.5t78.5 254.5q0 155 -83 247t-210 92zM271 128
q0 149 -5 442q48 5 80 5q110 0 163.5 -38t53.5 -102q0 -151 -211 -151q-31 0 -48 2q0 -32 3 -157q-20 0 -36 -1zM302 538q1 -154 1 -219q29 -3 53 -3q171 0 171 116q0 50 -44 79.5t-130 29.5q-24 0 -51 -3z" />
    <glyph glyph-name="space.captab" horiz-adv-x="325" 
 />
    <glyph glyph-name="dollar.captab" horiz-adv-x="650" 
d="M310 -19h-17l-21 -113l-38 5l22 113q-88 14 -135.5 75.5t-52.5 160.5q15 3 41 6q14 -213 201 -213q74 0 123 43.5t49 118.5q0 48 -36 81.5t-125 72.5q-154 67 -154 186q0 87 59.5 142t151.5 55q13 0 20 -1l24 123l37 -5l-24 -124q67 -17 104 -74t43 -141l-39 -6
q-15 195 -167 195q-76 0 -123.5 -45.5t-47.5 -119.5q0 -45 31.5 -82.5t109.5 -72.5q91 -41 132.5 -83t41.5 -101q0 -85 -59 -140.5t-151 -55.5z" />
    <glyph glyph-name="cent.captab" horiz-adv-x="650" 
d="M303 39h-9l-19 -103l-38 4q18 92 21 103q-73 16 -112.5 79.5t-39.5 159.5q0 84 27 160t77 126q76 76 165 79l21 114l38 -5l-23 -111q135 -17 154 -193l-37 -8q-9 84 -43.5 127t-103.5 43q-77 0 -142 -65q-47 -47 -71.5 -117.5t-24.5 -146.5q0 -96 44 -154t120 -58
q63 0 110.5 36.5t82.5 128.5q13 -4 32 -11q-30 -97 -91.5 -142.5t-137.5 -45.5z" />
    <glyph glyph-name="Euro.captab" horiz-adv-x="650" 
d="M24 381q3 11 6 34q15 0 87 1q38 147 120 227t182 80q52 0 92 -20t63.5 -55t36.5 -74.5t18 -87.5l-35 -4q-14 106 -54.5 155.5t-121.5 49.5q-94 0 -162.5 -73.5t-101.5 -196.5l255 6q-4 -13 -9 -35q-45 0 -254 -4q-11 -51 -13 -83l267 6q-4 -14 -6 -34q-42 0 -263 -4v-15
q0 -116 51.5 -181t141.5 -65q168 0 240 235l33 -6q-36 -130 -110 -197t-163 -65q-106 0 -167.5 73.5t-61.5 205.5v15q-56 -2 -89 -2q3 7 8 34q17 -1 83 0q3 44 12 82z" />
    <glyph glyph-name="sterling.captab" horiz-adv-x="650" 
d="M189 310h-76l5 33l63 -1q-23 90 -23 133q0 98 62.5 168.5t163.5 70.5q91 0 144 -66.5t64 -176.5q-18 -3 -39 -6q-12 100 -53 156.5t-113 56.5q-84 0 -137 -59t-53 -152q0 -37 22 -125l210 1l-6 -35q-188 2 -195 2q8 -35 8 -69q0 -65 -31.5 -118.5t-85.5 -88.5
q6 0 51.5 -0.5t134.5 -1t201 -0.5q-4 -15 -8 -37q-65 1 -434 5q1 19 1 40q134 75 134 196q0 32 -10 74z" />
    <glyph glyph-name="yen.captab" horiz-adv-x="650" 
d="M245 -6q13 63 26 137l-200 -4q3 11 7 34q66 -1 198 1l12 72l-16 57q-71 0 -166 -3q2 10 6 35q62 -1 150 1l-108 357q13 2 35 8l124 -411l321 432q12 -6 35 -14l-281 -375q46 0 150 3q-1 -10 -5 -35q-77 1 -169 -1l-38 -52l-14 -74l198 5q-3 -16 -6 -34q-66 0 -198 -2
q-20 -116 -24 -141q-14 3 -37 4z" />
    <glyph glyph-name="florin.captab" horiz-adv-x="650" 
d="M473 378l-135 3l-45 -247q-30 -156 -152 -156q-33 0 -69 10q5 12 11 35q33 -9 58 -9q88 0 113 118q11 53 48 249l-95 1l2 33q76 -2 99 -2q10 57 25 125q32 155 146 155q37 0 80 -15l-10 -33q-43 16 -71 16q-42 0 -67.5 -30.5t-39.5 -92.5q-22 -102 -26 -126h127z" />
    <glyph glyph-name="zero.captab" horiz-adv-x="650" 
d="M292 -22q-107 0 -168.5 77t-61.5 206q0 100 35.5 203.5t98.5 166.5q82 82 184 82q108 0 165 -78.5t57 -202.5q0 -96 -35 -206t-101 -176q-72 -72 -174 -72zM293 14q87 0 148 61q57 57 91 163.5t34 202.5q0 107 -46 172t-138 65q-90 0 -163 -73q-54 -54 -87 -152t-33 -192
q0 -114 52 -180.5t142 -66.5z" />
    <glyph glyph-name="one.captab" horiz-adv-x="650" 
d="M89 -3l7 38q101 -3 185 -3l116 613l-202 -102l-13 31l236 125l25 -5l-123 -663l182 1l-8 -35h-405z" />
    <glyph glyph-name="two.captab" horiz-adv-x="650" 
d="M497 -4l-447 8l1 37q257 127 372.5 240t115.5 230q0 70 -45 119t-122 49q-158 0 -223 -223q-14 5 -34 10q28 112 95 180t161 68q98 0 151 -61t53 -145q0 -122 -119 -242.5t-347 -229.5l397 -5z" />
    <glyph glyph-name="three.captab" horiz-adv-x="650" 
d="M303 -24q-116 0 -181 63.5t-65 186.5q16 1 37 3q2 -107 54 -163t152 -56q83 0 145.5 49t62.5 131q0 64 -60.5 101t-174.5 37h-17l9 40q14 -1 40 -1q124 0 190 49t66 126q0 60 -47 101.5t-129 41.5q-80 0 -138 -46.5t-79 -137.5l-35 4q21 100 91 157t160 57
q95 0 153.5 -50t58.5 -126q0 -79 -57 -134.5t-149 -62.5q73 -13 113.5 -58t40.5 -105q0 -92 -70 -149.5t-171 -57.5z" />
    <glyph glyph-name="four.captab" horiz-adv-x="650" 
d="M397 1l35 168q-385 -4 -404 -4q2 12 7 35l500 514l39 -4l-100 -509l77 1q-4 -14 -8 -33h-75l-32 -171zM528 659l-445 -459q175 0 355 1q59 286 90 458z" />
    <glyph glyph-name="five.captab" horiz-adv-x="650" 
d="M303 -24q-203 0 -245 211l38 10q19 -94 69 -141t138 -47t157 66.5t69 185.5q0 76 -43 127t-121 51q-60 0 -118 -35.5t-102 -96.5q-17 4 -35 5q39 167 84 385q315 0 411 2q-4 -16 -7 -35q-252 2 -373 -1l-67 -296q35 44 93.5 74.5t114.5 30.5q92 0 145.5 -59.5
t53.5 -150.5q0 -128 -76 -207t-186 -79z" />
    <glyph glyph-name="six.captab" horiz-adv-x="650" 
d="M318 -27q-108 0 -171.5 81t-63.5 214q0 113 37 213.5t110 166t166 65.5q90 0 141 -58.5t62 -150.5l-39 -9q-27 185 -165 185q-98 0 -168 -82.5t-99 -230.5q-7 -35 -8 -61q46 55 109 91t123 36q101 0 156 -57.5t55 -144.5q0 -116 -74 -187t-171 -71zM355 400
q-60 0 -123 -37t-115 -102q0 -118 54.5 -186t147.5 -68q85 0 145 61.5t60 164.5q0 72 -44.5 119.5t-124.5 47.5z" />
    <glyph glyph-name="seven.captab" horiz-adv-x="650" 
d="M196 -5q40 194 139 373t235 298h-406l5 33l456 2l-5 -34q-160 -148 -249.5 -311t-138.5 -367z" />
    <glyph glyph-name="eight.captab" horiz-adv-x="650" 
d="M288 -31q-108 0 -172 52.5t-64 135.5q0 85 59 138t157 73q-64 20 -97.5 61.5t-33.5 93.5q0 82 66 136.5t171 54.5q101 0 161.5 -49t60.5 -118q0 -67 -51 -114.5t-144 -67.5q68 -21 108 -74t40 -111q0 -89 -76 -150t-185 -61zM287 4q94 0 157.5 48.5t63.5 127.5
q0 60 -45 110t-129 61q-112 -13 -177 -64t-65 -132q0 -66 53.5 -108.5t141.5 -42.5zM337 382q108 18 164.5 61t56.5 103q0 54 -48.5 94.5t-132.5 40.5q-92 0 -147 -46.5t-55 -110.5q0 -49 42 -87.5t120 -54.5z" />
    <glyph glyph-name="nine.captab" horiz-adv-x="650" 
d="M288 10q89 0 151.5 77.5t96.5 257.5l5 29q-96 -102 -222 -102q-93 0 -151.5 57t-58.5 145q0 101 69.5 171.5t171.5 70.5q113 0 172 -78t59 -200q0 -91 -38 -213t-99 -183q-67 -67 -160 -67q-199 0 -230 217l36 9q20 -102 68.5 -146.5t129.5 -44.5zM321 307q122 0 224 115
q5 117 -48 187.5t-144 70.5q-87 0 -146.5 -59t-59.5 -147q0 -73 47.5 -120t126.5 -47z" />
    <glyph glyph-name="plus.captab" horiz-adv-x="650" 
d="M260 123q21 92 41 194l-187 -1l6 36q27 -1 58 -1.5t69.5 -1t59.5 -0.5l35 185l36 -5q-19 -84 -37 -180l191 1l-9 -34q-63 1 -189 1l-36 -196z" />
    <glyph glyph-name="minus.captab" horiz-adv-x="650" 
d="M512 345l-8 -36h-375l6 38z" />
    <glyph glyph-name="multiply.captab" horiz-adv-x="650" 
d="M316 309l-160 -176l-26 22l164 178l-154 168l25 24l150 -169l161 179q11 -13 25 -25l-164 -178l158 -171l-25 -22z" />
    <glyph glyph-name="divide.captab" horiz-adv-x="650" 
d="M120 310l9 37q71 -1 146 -1h122.5t87 0.5t40.5 0.5l-6 -38q-287 7 -399 1zM288 214q19 0 32.5 -16t13.5 -40q0 -22 -14.5 -36.5t-32.5 -14.5q-20 0 -33 15t-13 36q0 27 13.5 41.5t33.5 14.5zM350 548q18 0 32 -15t14 -39q0 -22 -14 -37.5t-33 -15.5q-21 0 -33.5 14.5
t-12.5 38.5q0 25 13.5 39.5t33.5 14.5z" />
    <glyph glyph-name="equal.captab" horiz-adv-x="650" 
d="M117 220q3 13 6 36q140 -1 373 2q-5 -14 -9 -38q-123 2 -370 0zM523 401l-371 2l8 37h370z" />
    <glyph glyph-name="less.captab" horiz-adv-x="650" 
d="M482 123q-8 -11 -18 -31l-357 212l7 35l431 208l13 -33l-404 -194z" />
    <glyph glyph-name="greater.captab" horiz-adv-x="650" 
d="M97 92l-13 34l405 201l-322 190q8 9 19 30l350 -208l-5 -34z" />
    <glyph glyph-name="period.captab" horiz-adv-x="325" 
d="M119 -7q-22 0 -35.5 14t-13.5 40q0 23 13.5 40t35.5 17q26 0 38.5 -16t12.5 -37q0 -27 -14 -42.5t-37 -15.5z" />
    <glyph glyph-name="comma.captab" horiz-adv-x="325" 
d="M53 -119l-13 25q54 28 85 83q-26 -2 -41 14.5t-15 44.5q0 24 14 39.5t38 15.5q26 0 38 -18.5t12 -46.5q0 -100 -118 -157z" />
    <glyph glyph-name="colon.captab" horiz-adv-x="325" 
d="M113 -9q-22 0 -35.5 16t-13.5 41t14 41.5t36 16.5q25 0 37 -17t12 -41q0 -26 -14.5 -41.5t-35.5 -15.5zM167 280q-22 0 -35.5 16.5t-13.5 43.5q0 22 14 38.5t36 16.5q24 0 36.5 -16t12.5 -39q0 -28 -14 -44t-36 -16z" />
    <glyph glyph-name="semicolon.captab" horiz-adv-x="325" 
d="M44 -119l-13 25q52 29 84 83q-23 -1 -39 14.5t-16 41.5q0 24 13 40.5t38 16.5q51 0 51 -66q0 -49 -31.5 -88.5t-86.5 -66.5zM164 280q-22 0 -35.5 16.5t-13.5 43.5q0 22 14 38.5t36 16.5q24 0 36.5 -16t12.5 -39q0 -28 -14 -44t-36 -16z" />
    <glyph glyph-name="parenleft.captab" horiz-adv-x="390" 
d="M167 -70q-41 138 -41 276q0 144 54.5 281.5t153.5 250.5l29 -16q-91 -104 -143.5 -242.5t-52.5 -274.5q0 -137 36 -266z" />
    <glyph glyph-name="parenright.captab" horiz-adv-x="390" 
d="M90 -70q-9 7 -29 19q75 117 119.5 249.5t44.5 252.5q0 141 -43 280q13 4 33 12q49 -141 49 -291q0 -262 -174 -522z" />
    <glyph glyph-name="bracketleft.captab" horiz-adv-x="390" 
d="M238 -45q-64 2 -157 2l144 760q47 0 155 2q-2 -12 -5 -33q-38 0 -118 -2l-133 -690l123 -1q-4 -13 -9 -38z" />
    <glyph glyph-name="bracketright.captab" horiz-adv-x="390" 
d="M32 -51q3 13 6 38q40 0 124 2l135 704q-39 2 -115 2q3 12 7 34q54 -2 155 -2l-153 -775q-59 0 -159 -3z" />
    <glyph glyph-name="braceleft.captab" horiz-adv-x="390" 
d="M246 -51q-126 36 -126 140q0 25 15.5 87t15.5 85q0 74 -100 71l10 41q69 0 97.5 20.5t36.5 73.5q6 40 14 109q9 69 50.5 106t126.5 41l4 -31q-77 -6 -109 -34.5t-38 -84.5q-9 -82 -12 -103q-8 -58 -32 -86.5t-75 -34.5q62 -18 62 -84q0 -24 -15.5 -85.5t-15.5 -88.5
q0 -40 24 -67.5t81 -44.5z" />
    <glyph glyph-name="braceright.captab" horiz-adv-x="390" 
d="M-12 -59q-2 15 -6 34q77 6 112.5 36t45.5 88l21 133q8 55 33 85.5t77 39.5q-67 17 -67 81q0 29 15.5 80t15.5 74q0 41 -25.5 69.5t-77.5 36.5q4 13 10 29q64 -11 95.5 -47t31.5 -86q0 -29 -15.5 -79t-15.5 -73q0 -34 23.5 -50t77.5 -17q-6 -28 -6 -41q-121 7 -138 -109
l-20 -132q-11 -74 -62 -112t-125 -40z" />
    <glyph glyph-name="section.captab" horiz-adv-x="650" 
d="M259 -193q-102 0 -160 58t-63 161l36 3q5 -93 55 -141t134 -48q78 0 130.5 37.5t52.5 105.5q0 41 -43 71t-162 66q-140 42 -140 144q0 110 138 151q-32 20 -51.5 53.5t-19.5 74.5q0 74 60.5 123.5t139.5 49.5q96 0 149 -59.5t61 -149.5l-36 -6q-10 82 -52 131.5
t-118 49.5q-69 0 -118.5 -39.5t-49.5 -99.5q0 -97 166 -145q97 -27 134.5 -62t37.5 -81q0 -97 -131 -160q73 -40 73 -113q0 -77 -65.5 -126t-157.5 -49zM258 151q28 -9 122 -43q68 37 96.5 70.5t28.5 75.5q0 37 -33 62.5t-124 53.5l-84 29q-65 -22 -97.5 -53.5t-32.5 -80.5
q0 -37 28.5 -65t95.5 -49z" />
    <glyph glyph-name="numbersign.captab" horiz-adv-x="650" 
d="M375 117l31 158q-42 0 -190 -2q-19 -108 -25 -147q-14 3 -37 5l29 142l-125 -2q2 10 6 36q56 -1 125 -1l40 209q-36 0 -120 -2q3 13 6 36h120l25 145q13 -2 37 -3l-29 -142q116 0 190 1l29 159q14 -2 36 -3l-31 -155q37 0 129 2q-5 -13 -9 -34h-126l-40 -212l131 2
q-4 -12 -8 -35q-49 1 -129 1q-27 -159 -28 -162q-16 3 -37 4zM262 516q-21 -101 -40 -210q108 0 190 1l40 211q-42 0 -190 -2z" />
    </font>
</defs>
</svg>
